<?xml version="1.0" encoding="UTF-8"?>
<svg version="1.1" xmlns="http://www.w3.org/2000/svg" width="3598" height="3598">
<path d="M0 0 C1187.34 0 2374.68 0 3598 0 C3598 1187.34 3598 2374.68 3598 3598 C2410.66 3598 1223.32 3598 0 3598 C0 2410.66 0 1223.32 0 0 Z " fill="#093A81" transform="translate(0,0)"/>
<path d="M0 0 C8.13333333 4.06666667 8.13333333 4.06666667 12 7 C12.77085938 7.30550781 13.54171875 7.61101562 14.3359375 7.92578125 C16.8890968 8.95528097 19.08881337 10.13374955 21.4375 11.5625 C22.29859375 12.08585937 23.1596875 12.60921875 24.046875 13.1484375 C26.21799175 14.50969324 28.37121681 15.88694945 30.515625 17.2890625 C31.4274353 17.88352173 31.4274353 17.88352173 32.35766602 18.48999023 C33.54654779 19.26803762 34.7321449 20.05113577 35.91381836 20.84008789 C39.83023494 23.40788707 43.67713085 25.26037266 48 27 C51.86440678 28.72881356 51.86440678 28.72881356 53 31 C54.74006246 31.9542278 56.51881372 32.83834891 58.3125 33.6875 C62.69716398 35.82001748 66.93305866 38.07234548 71.125 40.5625 C76.30098137 43.63531216 81.57491713 46.39548013 87 49 C87 49.66 87 50.32 87 51 C87.79019531 51.21140625 88.58039063 51.4228125 89.39453125 51.640625 C94.20042711 53.45259874 98.3296349 56.05600254 102.6875 58.75 C104.48993828 59.84791058 106.29331478 60.94428249 108.09765625 62.0390625 C108.95375488 62.55887695 109.80985352 63.07869141 110.69189453 63.61425781 C115.04700845 66.22898455 119.52128385 68.60641616 124 71 C135.01620044 76.96228226 145.8314262 83.23185559 156.58947754 89.64743042 C166.17704233 95.36288564 175.83593146 100.94151072 185.54092407 106.45492554 C193.57247689 111.01833623 201.54143114 115.6573328 209.41015625 120.49609375 C211.98224949 122.10682368 211.98224949 122.10682368 215 123 C215 123.66 215 124.32 215 125 C215.84046875 125.24105469 216.6809375 125.48210937 217.546875 125.73046875 C221.47227944 127.17363215 224.72322392 129.09856167 228.25 131.3125 C232.56897329 133.97395284 236.84772093 136.51002342 241.4375 138.6875 C244.48101666 140.14719641 247.00600646 141.68776338 249.625 143.8125 C253.38516651 146.78265173 257.39701741 148.79764609 261.6875 150.875 C269.11936549 154.4744323 276.02432258 158.57012316 283 163 C287.64791962 165.86941268 292.26169777 168.69396291 297.1875 171.0625 C300.3396461 172.58551713 302.98795039 174.46037851 305.79296875 176.5625 C310.89096827 179.88296694 316.52557677 182.36529146 322 185 C322 185.66 322 186.32 322 187 C322.8338623 187.16544312 322.8338623 187.16544312 323.68457031 187.33422852 C326.39493599 188.11355867 328.58239188 189.28022981 331.046875 190.65234375 C332.01947266 191.19358887 332.99207031 191.73483398 333.99414062 192.29248047 C338.77158475 195.00637295 343.5150064 197.77534658 348.25 200.5625 C356.29502117 205.27837426 364.37070823 209.9309564 372.5 214.5 C381.39360636 219.50017975 390.21698817 224.61099048 399.01953125 229.76953125 C405.81174977 233.74267075 412.64093713 237.64353647 419.5 241.5 C428.39352501 246.50032665 437.21698552 251.61098893 446.01953125 256.76953125 C452.81175192 260.74267201 459.64099839 264.64342486 466.5 268.5 C477.47966575 274.67535575 488.35872442 281.01579971 499.22949219 287.38037109 C503.27179321 289.74348574 507.3220771 292.09266025 511.375 294.4375 C512.11661377 294.86659668 512.85822754 295.29569336 513.62231445 295.73779297 C518.2580642 298.41827191 522.89641388 301.0942352 527.53515625 303.76953125 C528.67742676 304.42832275 529.81969727 305.08711426 530.99658203 305.76586914 C533.22001086 307.04796124 535.44363037 308.32972274 537.66748047 309.61108398 C543.86513541 313.18391211 550.05143183 316.77544675 556.22875977 320.38330078 C560.0631201 322.62020803 563.9062747 324.84173891 567.75 327.0625 C578.21377584 333.11420248 588.65441749 339.20547068 599.09155273 345.30297852 C601.11329324 346.48262413 603.13633942 347.66003369 605.16040039 348.83569336 C611.34320669 352.42967998 617.44838274 356.10635463 623.50390625 359.91015625 C627.26353624 362.20811963 631.144835 364.27698258 635.01879883 366.37426758 C640.06704449 369.12721721 645.06199992 371.97402843 650.0625 374.8125 C652.09480331 375.96528243 654.12734302 377.11764824 656.16015625 378.26953125 C657.04324463 378.77073486 657.92633301 379.27193848 658.83618164 379.78833008 C660.20741601 380.556178 661.59433315 381.29716657 663 382 C663 490.9 663 599.8 663 712 C654.01768991 707.50884495 654.01768991 707.50884495 649.671875 704.93359375 C648.71740479 704.37124023 647.76293457 703.80888672 646.77954102 703.22949219 C645.77979248 702.63813477 644.78004395 702.04677734 643.75 701.4375 C636.0796646 696.92823336 628.37810048 692.50269672 620.5625 688.25 C612.39600459 683.80051293 604.36928741 679.15286554 596.37304688 674.40576172 C583.56680862 666.81951482 570.69874879 659.35427046 557.6875 652.125 C547.78722338 646.6208081 538.02763827 640.90687695 528.29980469 635.10424805 C520.22609455 630.2966786 512.10348129 625.58613678 503.9375 620.9375 C503.0651622 620.44085342 503.0651622 620.44085342 502.17520142 619.93417358 C499.83875402 618.60419459 497.50223061 617.27434945 495.16548157 615.94490051 C485.82703668 610.62874082 476.53043861 605.23960869 467.2265625 599.86328125 C463.96475993 597.9796495 460.70138156 596.09877679 457.4375 594.21875 C446.83735547 588.11179401 436.24871174 581.98657619 425.6875 575.8125 C414.17476001 569.08320911 402.60349243 562.45942279 391.01074219 555.86914062 C383.69161488 551.70797278 376.41208984 547.48727669 369.16357422 543.20483398 C362.42845523 539.23408493 355.65218578 535.33589405 348.875 531.4375 C341.13404817 526.9846075 333.42361371 522.49418905 325.7890625 517.86132812 C321.50827624 515.27398515 317.14276717 512.88414455 312.734375 510.5234375 C309.63468029 508.79646473 306.634699 506.94176182 303.625 505.0625 C298.3204339 501.75965696 292.91224411 498.77241899 287.390625 495.8515625 C282.99349408 493.45036428 278.72318996 490.86301734 274.44140625 488.26367188 C270.87875169 486.10771494 267.29591304 484.03144427 263.625 482.0625 C254.70059083 477.26927134 245.99276007 472.05558209 237.34765625 466.77734375 C229.28405987 461.86130588 221.07526694 457.28849933 212.76489258 452.80224609 C202.55956096 447.26712139 192.56625983 441.38046788 182.55859375 435.49804688 C179.38599804 433.64050419 176.19676171 431.8156365 173 430 C166.92991604 426.54809683 160.90215844 423.02624468 154.875 419.5 C145.80241319 414.19365122 136.69421603 408.95357257 127.5625 403.75 C119.49870872 399.15446677 111.45206875 394.53495691 103.46508789 389.80688477 C96.83634498 385.8883716 90.16923737 382.03652061 83.5 378.1875 C82.40091309 377.55255615 81.30182617 376.9176123 80.16943359 376.26342773 C74.14216826 372.78821044 68.09629904 369.35276982 62 366 C62 365.34 62 364.68 62 364 C61.175 363.76023437 60.35 363.52046875 59.5 363.2734375 C55.38829403 361.77743734 51.78320817 359.80105583 48 357.625 C47.31421875 357.23828125 46.6284375 356.8515625 45.921875 356.453125 C41.82898837 354.125491 37.91649193 351.61634502 34 349 C32.09680628 347.91355118 30.1804623 346.84972353 28.25 345.8125 C27.30640625 345.30332031 26.3628125 344.79414062 25.390625 344.26953125 C23.93556714 343.49682895 22.47357042 342.73678521 21 342 C21 341.34 21 340.68 21 340 C19.35 339.67 17.7 339.34 16 339 C10.72 336.03 5.44 333.06 0 330 C0 221.1 0 112.2 0 0 Z " fill="#DDC27F" transform="translate(1466,1106)"/>
<path d="M0 0 C0.13724489 41.97191129 0.24301305 83.94379676 0.30639198 125.91588788 C0.31389648 130.86775374 0.32166239 135.81961917 0.32958984 140.77148438 C0.33116371 141.75733801 0.33273757 142.74319164 0.33435912 143.75891963 C0.36048801 159.73507285 0.40780699 175.71109692 0.46291678 191.68717346 C0.51896765 208.07236452 0.55234034 224.45748781 0.56453097 240.84277081 C0.57277584 250.95861619 0.59884344 261.07409656 0.6474988 271.18982962 C0.67914274 278.12060243 0.68881695 285.05118574 0.68100826 291.98202559 C0.6771539 295.9846984 0.68318312 299.98673213 0.71523285 303.98929214 C0.74434177 307.65121252 0.74596623 311.31206165 0.72539337 314.97403041 C0.72164079 316.93160071 0.74760132 318.88915764 0.77448785 320.84654689 C0.74180093 324.01360647 0.67043517 326.90499416 0 330 C-2.8483181 332.68806839 -2.8483181 332.68806839 -6 334 C-7.03898437 334.66 -8.07796875 335.32 -9.1484375 336 C-14.33467092 339.21471127 -19.47342032 342.32474615 -24.98828125 344.94921875 C-27.53296577 346.27838406 -29.9027132 347.81492646 -32.3125 349.375 C-36.80611177 352.28226805 -41.37944026 354.90038087 -46.09375 357.4296875 C-56.40969972 363.00362807 -66.47039319 369.03665134 -76.55639648 375.01220703 C-83.24661718 378.97294519 -89.96039071 382.89003809 -96.69433594 386.77587891 C-101.95629029 389.81329369 -107.20570424 392.87139776 -112.44970703 395.93969727 C-122.26788045 401.6831442 -132.11754214 407.36811808 -142 413 C-150.73395143 417.97740195 -159.44732405 422.98733951 -168.125 428.0625 C-185.94297401 438.48338669 -203.83446121 448.77526598 -221.76235962 459.00567627 C-230.33413405 463.89733708 -238.89165179 468.81314532 -247.4375 473.75 C-260.3893605 481.23198018 -273.37314696 488.65701776 -286.37109375 496.05859375 C-295.0854702 501.02470702 -303.77352846 506.02637052 -312.40283203 511.13891602 C-319.406973 515.27190138 -326.49922664 519.2464015 -333.59057617 523.22729492 C-339.96727196 526.81776954 -346.27864333 530.4946143 -352.48486328 534.37329102 C-357.7785904 537.63355719 -357.7785904 537.63355719 -361 538 C-363.18481445 536.99829102 -363.18481445 536.99829102 -365.55078125 535.44140625 C-369.15931639 533.14975813 -372.77446315 530.98427624 -376.54296875 528.96484375 C-377.93612305 528.21557617 -377.93612305 528.21557617 -379.35742188 527.45117188 C-381.25487814 526.43631431 -383.15332843 525.42331322 -385.05273438 524.41210938 C-389.01023762 522.28029752 -392.87888716 520.19243798 -396.48828125 517.50390625 C-400.1151291 514.80747262 -404.00822001 512.7374626 -407.98925781 510.61083984 C-413.32695202 507.75500897 -418.59423384 504.77187673 -423.875 501.8125 C-424.97585938 501.19697266 -426.07671875 500.58144531 -427.2109375 499.94726562 C-428.273125 499.35236328 -429.3353125 498.75746094 -430.4296875 498.14453125 C-431.38085449 497.61190674 -432.33202148 497.07928223 -433.31201172 496.53051758 C-434.19904785 496.02544678 -435.08608398 495.52037598 -436 495 C-436.9398877 494.48139404 -437.87977539 493.96278809 -438.84814453 493.4284668 C-439.55825684 492.95707275 -440.26836914 492.48567871 -441 492 C-441 491.34 -441 490.68 -441 490 C-441.70125 489.90332031 -442.4025 489.80664062 -443.125 489.70703125 C-446.53053392 488.86952902 -448.97991127 487.47512605 -452 485.6875 C-453.25492926 484.95264822 -454.51015639 484.21830496 -455.765625 483.484375 C-456.7855957 482.88399414 -456.7855957 482.88399414 -457.82617188 482.27148438 C-460.92440063 480.45931284 -464.04403737 478.68550949 -467.16333008 476.90991211 C-485.66074907 466.38061207 -504.08116657 455.7170572 -522.46118164 444.984375 C-534.40866237 438.00785913 -546.37260737 431.06291927 -558.3934021 424.21331787 C-570.50701502 417.31068573 -582.57227265 410.33837765 -594.5625 403.22265625 C-610.24626305 393.91615431 -626.00627193 384.76423988 -642 376 C-642 375.34 -642 374.68 -642 374 C-643.32 373.67 -644.64 373.34 -646 373 C-642.34570479 368.73831512 -637.79141321 366.40249586 -632.9375 363.75 C-632.12216797 363.29109375 -631.30683594 362.8321875 -630.46679688 362.359375 C-624.38292876 359 -624.38292876 359 -621 359 C-621 358.34 -621 357.68 -621 357 C-620.48953125 356.7097998 -619.9790625 356.41959961 -619.453125 356.12060547 C-608.93545452 350.13681555 -598.44505109 344.10976961 -588 338 C-580.56243771 333.65043374 -573.11068564 329.32874449 -565.625 325.0625 C-549.3659957 315.79603168 -533.15871143 306.44026495 -517 297 C-500.26708553 287.22525907 -483.47852071 277.5482139 -466.64535522 267.94726562 C-456.88553621 262.38051291 -447.14431233 256.78374267 -437.4375 251.125 C-436.42606934 250.53581787 -435.41463867 249.94663574 -434.37255859 249.33959961 C-430.86236453 247.28848413 -427.38350306 245.25566871 -424 243 C-422.68 243 -421.36 243 -420 243 C-420 242.34 -420 241.68 -420 241 C-419.48953125 240.7097998 -418.9790625 240.41959961 -418.453125 240.12060547 C-401.88246831 230.69310641 -385.37603915 221.15625513 -368.9765625 211.43359375 C-368.00323975 210.85665771 -367.02991699 210.27972168 -366.02709961 209.68530273 C-364.20643817 208.60473993 -362.38684079 207.52238107 -360.56860352 206.43774414 C-355.34567002 203.3352863 -350.06342717 200.37385641 -344.72094727 197.48242188 C-340.40496543 195.13099597 -336.13943304 192.69333444 -331.875 190.25 C-330.96685547 189.73050781 -330.05871094 189.21101562 -329.12304688 188.67578125 C-322.87561765 185.09456393 -316.66009328 181.46254383 -310.46337891 177.79443359 C-304.7602683 174.42630679 -299.00875987 171.14685984 -293.25 167.875 C-286.46887165 164.02117062 -279.76566776 160.09472823 -273.1796875 155.9140625 C-269.53147719 153.71796538 -265.80428634 151.70109354 -262.06054688 149.67333984 C-256.60280408 146.68934422 -251.21007698 143.59106131 -245.8125 140.5 C-244.9043454 139.98060349 -244.9043454 139.98060349 -243.97784424 139.45071411 C-234.60389458 134.08877329 -225.26170868 128.67419485 -215.94067383 123.22070312 C-208.64320449 118.952315 -201.32607611 114.71908098 -194 110.5 C-185.546389 105.63141503 -177.10881335 100.73673497 -168.6875 95.8125 C-160.45855817 91.00156916 -152.20076142 86.24533894 -143.91699219 81.52954102 C-137.39819887 77.81299654 -130.91361093 74.04034993 -124.4375 70.25 C-115.59093082 65.07478945 -106.71395231 59.95502252 -97.8125 54.875 C-97.22092102 54.53736633 -96.62934204 54.19973267 -96.01983643 53.85186768 C-91.0120604 50.99442001 -86.00238058 48.14031673 -80.9921875 45.28710938 C-71.48688141 39.87327457 -62.00323684 34.43223 -52.59106445 28.85791016 C-45.6332599 24.75318871 -38.59086553 20.8008791 -31.55004883 16.84082031 C-24.7276074 12.99651493 -17.95486944 9.07705708 -11.2265625 5.0703125 C-2.69528584 0 -2.69528584 0 0 0 Z " fill="#DFC582" transform="translate(2129,715)"/>
<path d="M0 0 C4.6946537 1.76269851 8.79987464 4.29491695 13.05859375 6.921875 C15.03135222 8.11396704 17.00535058 9.30400921 18.98046875 10.4921875 C20.50124023 11.40919434 20.50124023 11.40919434 22.05273438 12.34472656 C26.92444365 15.24573486 31.86344606 18.02350091 36.80859375 20.796875 C43.81271163 24.73415667 50.79872693 28.69771657 57.74609375 32.734375 C64.31542596 36.55085737 70.89827656 40.3423286 77.49609375 44.109375 C78.36298828 44.60469727 79.22988281 45.10001953 80.12304688 45.61035156 C84.65467599 48.19817678 89.19018744 50.77894647 93.73046875 53.3515625 C110.48387014 62.8598126 110.48387014 62.8598126 117.8671875 67.76953125 C120.13628895 69.23217022 120.13628895 69.23217022 122.73046875 70.4609375 C127.59471968 72.91547887 132.24191477 75.71715674 136.93359375 78.484375 C146.74269229 84.24284471 156.62225195 89.86011159 166.56958008 95.3762207 C171.97943151 98.38268866 177.328503 101.46219604 182.62353516 104.66650391 C187.09485358 107.36153317 191.61006715 109.98154103 196.12109375 112.609375 C197.14638184 113.2070166 198.17166992 113.8046582 199.22802734 114.42041016 C213.19892735 122.5561936 227.18124951 130.67624193 241.24462891 138.65136719 C248.30941028 142.65862393 255.22030806 146.88984901 262.12109375 151.171875 C263.95127891 152.30198933 265.78435544 153.42744278 267.62109375 154.546875 C268.37390625 155.00835938 269.12671875 155.46984375 269.90234375 155.9453125 C272.2470422 157.24150143 274.61610069 158.2280924 277.12109375 159.171875 C277.12109375 159.831875 277.12109375 160.491875 277.12109375 161.171875 C277.86359375 161.295625 278.60609375 161.419375 279.37109375 161.546875 C281.9225086 162.12674201 283.84785105 162.90896239 286.12109375 164.171875 C285.12109375 167.171875 285.12109375 167.171875 282.12109375 168.86328125 C280.79135795 169.49461284 279.45769923 170.11772058 278.12109375 170.734375 C272.15208902 173.60159425 266.37226422 176.65655704 260.68359375 180.046875 C259.97323975 180.4701709 259.26288574 180.8934668 258.53100586 181.32958984 C257.09402462 182.18882244 255.65790305 183.04949444 254.22265625 183.91162109 C250.88679975 185.91204991 247.53599118 187.8868284 244.18359375 189.859375 C243.49692627 190.26389893 242.81025879 190.66842285 242.1027832 191.08520508 C235.71451849 194.84035766 229.29326673 198.53760418 222.87109375 202.234375 C213.42837356 207.66987586 204.01505374 213.15261785 194.62109375 218.671875 C176.80067924 229.13945373 158.89497862 239.45602512 140.94018555 249.69140625 C133.40929306 253.99190638 125.91908932 258.36074882 118.43334961 262.73925781 C110.82647949 267.18591861 103.19618054 271.59072135 95.55859375 275.984375 C87.50520687 280.61773327 79.48735773 285.2943993 71.5625 290.14453125 C67.80815962 292.35622553 63.99210864 294.42863776 60.16186523 296.50512695 C55.2842094 299.17873244 50.46327806 301.95042524 45.63931274 304.71942139 C42.57082129 306.48072839 39.50035016 308.23857545 36.4296875 309.99609375 C35.81199997 310.34967957 35.19431244 310.70326538 34.5579071 311.06756592 C28.69746959 314.41947863 22.81651589 317.73461217 16.93359375 321.046875 C6.25222396 327.06913476 -4.36462444 333.1963997 -14.8359375 339.578125 C-21.49959162 343.63269837 -28.15375729 347.3749029 -35.18359375 350.77734375 C-38.50753151 352.49712025 -41.49073983 354.55429692 -44.55859375 356.6875 C-47.1260951 358.33000928 -49.75084881 359.6150904 -52.50390625 360.921875 C-58.22126973 363.68172907 -63.35644091 367.01740991 -68.53955078 370.65722656 C-71.47934338 372.69486481 -74.28965861 374.44189076 -77.6015625 375.8125 C-80.30641413 376.93441701 -82.23437508 377.95117194 -84.50390625 379.734375 C-87.21476798 381.76000782 -89.71715856 382.93802224 -92.87890625 384.171875 C-94.85367361 385.34452935 -96.78083823 386.58167975 -98.71484375 387.8203125 C-100.85965127 389.15984933 -103.03627749 390.39477268 -105.25390625 391.609375 C-111.05499147 394.79350411 -116.69706589 398.23357035 -122.34765625 401.67578125 C-126.53767981 404.21498857 -130.75073692 406.66805037 -135.06640625 408.98828125 C-140.43538766 411.90555203 -145.69647867 414.97593275 -150.94140625 418.109375 C-160.27346259 423.65435828 -169.65823037 429.1022615 -179.06713867 434.515625 C-186.31240164 438.68599089 -193.53883834 442.88701946 -200.75390625 447.109375 C-214.07205199 454.89664476 -227.47496973 462.53371162 -240.87890625 470.171875 C-244.71285996 472.35828939 -248.54616614 474.54583396 -252.37890625 476.734375 C-253.23427979 477.22260742 -254.08965332 477.71083984 -254.97094727 478.21386719 C-259.4968804 480.80011469 -264.00835874 483.40818407 -268.50390625 486.046875 C-271.99234685 488.09283805 -275.50503284 490.06834549 -279.06640625 491.984375 C-284.75831606 495.05435551 -290.31394438 498.34321189 -295.8659668 501.6574707 C-306.82892096 508.171875 -306.82892096 508.171875 -310.87890625 508.171875 C-311.20890625 509.161875 -311.53890625 510.151875 -311.87890625 511.171875 C-314.21484375 512.78515625 -314.21484375 512.78515625 -317.25390625 514.484375 C-318.34574219 515.09925781 -319.43757813 515.71414063 -320.5625 516.34765625 C-321.65691406 516.94964844 -322.75132813 517.55164062 -323.87890625 518.171875 C-324.79800781 518.68105469 -325.71710938 519.19023437 -326.6640625 519.71484375 C-330.5226483 521.8345087 -334.40131842 523.91580896 -338.28125 525.99609375 C-339.42722656 526.61097656 -340.57320312 527.22585938 -341.75390625 527.859375 C-342.80320312 528.42011719 -343.8525 528.98085937 -344.93359375 529.55859375 C-347.61956129 531.02982 -350.25283108 532.5962299 -352.87890625 534.171875 C-352.87890625 424.611875 -352.87890625 315.051875 -352.87890625 202.171875 C-349.24890625 200.191875 -345.61890625 198.211875 -341.87890625 196.171875 C-339.38728383 194.68729362 -336.90939751 193.1936936 -334.44140625 191.671875 C-317.16836111 181.171875 -317.16836111 181.171875 -312.87890625 181.171875 C-312.87890625 180.511875 -312.87890625 179.851875 -312.87890625 179.171875 C-312.30785156 178.85138184 -311.73679687 178.53088867 -311.1484375 178.20068359 C-299.06516343 171.41224643 -287.03329977 164.54498592 -275.07177734 157.54418945 C-264.46243836 151.33590697 -253.81262122 145.19858726 -243.16113281 139.06298828 C-237.73230684 135.93507352 -232.3057065 132.80330253 -226.87890625 129.671875 C-220.29717748 125.87447537 -213.71526553 122.07739407 -207.1328125 118.28125 C-204.90233094 116.99481388 -202.67186207 115.70835575 -200.44140625 114.421875 C-199.35448486 113.79498779 -198.26756348 113.16810059 -197.14770508 112.5222168 C-190.0237505 108.41234706 -182.90644472 104.29115056 -175.79174805 100.1652832 C-169.07751792 96.27665202 -162.33656521 92.43541474 -155.5949707 88.59448242 C-149.24358782 84.96909108 -142.93673596 81.27327667 -136.64379883 77.54760742 C-131.99251116 74.80255764 -127.28822671 72.18003284 -122.52783203 69.62792969 C-120.04639118 68.26393768 -117.6229173 66.83718058 -115.203125 65.3671875 C-110.05600058 62.26394944 -104.8536529 59.267101 -99.62890625 56.296875 C-92.05022555 51.99189029 -92.05022555 51.99189029 -84.51171875 47.6171875 C-83.86879883 47.24190918 -83.22587891 46.86663086 -82.56347656 46.47998047 C-80.87188285 45.49085916 -79.18385015 44.49565485 -77.49609375 43.5 C-74.87890625 42.171875 -74.87890625 42.171875 -71.87890625 42.171875 C-71.87890625 41.511875 -71.87890625 40.851875 -71.87890625 40.171875 C-42.81693589 23.38896408 -42.81693589 23.38896408 -29.39794922 15.76171875 C-26.59914204 14.17066042 -23.80152271 12.5775259 -21.00390625 10.984375 C-20.12307373 10.48462158 -19.24224121 9.98486816 -18.3347168 9.4699707 C-17.48562744 8.98616943 -16.63653809 8.50236816 -15.76171875 8.00390625 C-14.93575195 7.53549316 -14.10978516 7.06708008 -13.25878906 6.58447266 C-10.97217347 5.22723447 -8.81088186 3.75254741 -6.62109375 2.24609375 C-4.08202768 0.67742788 -3.05036538 0.18211137 0 0 Z " fill="#DCC07D" transform="translate(1818.87890625,1666.828125)"/>
<path d="M0 0 C1.66889599 -0.00271661 3.33779079 -0.00628128 5.00668335 -0.01062012 C9.50280975 -0.01966956 13.99884344 -0.0162301 18.49497128 -0.00986195 C23.22754585 -0.00475974 27.96011306 -0.00950535 32.69268799 -0.01263428 C40.64116829 -0.01626313 48.58961131 -0.01150477 56.53808594 -0.00195312 C65.68628905 0.00891431 74.83440287 0.0054139 83.98260379 -0.00560594 C91.87521837 -0.0147277 99.76780631 -0.01593989 107.66042447 -0.0107286 C112.35733833 -0.00763369 117.05421046 -0.00713014 121.75112152 -0.01380157 C126.17372873 -0.01964547 130.59622272 -0.01545159 135.0188179 -0.00401306 C136.62746876 -0.00140301 138.2361294 -0.00206759 139.84477615 -0.00653839 C147.9845288 -0.02704743 156.0059691 0.21612063 164.09942627 1.13433838 C164.77583813 1.2097151 165.45225 1.28509181 166.14915919 1.36275268 C178.45001033 2.90960832 191.17352066 7.05180438 199.25488281 16.88378906 C208.80140061 30.83231228 209.3515723 46.00290431 209.00488281 62.25878906 C202.08081988 64.27306192 195.09668125 66.00926505 188.09179688 67.71777344 C186.62732121 68.0759719 185.16344127 68.4366155 183.70019531 68.79980469 C181.55047788 69.33335369 179.39901316 69.8592963 177.24707031 70.38378906 C175.97718262 70.69574219 174.70729492 71.00769531 173.39892578 71.32910156 C167.64658927 72.54617554 161.81619275 73.36474138 156.00488281 74.25878906 C156.00488281 64.68878906 156.00488281 55.11878906 156.00488281 45.25878906 C99.90488281 45.25878906 43.80488281 45.25878906 -13.99511719 45.25878906 C-13.99511719 63.73878906 -13.99511719 82.21878906 -13.99511719 101.25878906 C-8.58540527 101.24307861 -3.17569336 101.22736816 2.39794922 101.21118164 C20.29125515 101.16142525 38.18456384 101.1281628 56.07792091 101.10335255 C66.92437909 101.08791213 77.77077153 101.06687683 88.6171875 101.0324707 C98.07568514 101.00248163 107.53413514 100.98319355 116.992679 100.97652358 C121.99657935 100.97262738 127.00034347 100.96353016 132.00419998 100.94159889 C136.72375489 100.92108326 141.44311874 100.91498543 146.162714 100.91946602 C147.88550547 100.91864751 149.60830399 100.91277235 151.33105659 100.90117264 C168.41027397 100.79191309 186.49364075 102.64067688 200.00488281 114.25878906 C211.09679188 126.90702391 212.32330373 143.99351517 212.34082031 160.03222656 C212.34727421 161.44593428 212.35400431 162.85964077 212.36099243 164.27334595 C212.37289463 167.22669556 212.37668114 170.17992892 212.37548828 173.13330078 C212.37532659 176.11597165 212.3890869 179.09802271 212.41650391 182.08056641 C212.84504934 229.42174975 212.84504934 229.42174975 199.62988281 245.07128906 C183.89788725 258.18128536 163.1371455 258.71734742 143.55200195 258.6628418 C141.66738993 258.66856078 139.78278136 258.67553087 137.8981781 258.68363953 C132.83197112 258.70141617 127.76593879 258.70043221 122.69971013 258.69469714 C118.44814475 258.69158304 114.19661186 258.69772212 109.94505113 258.70373589 C99.90515248 258.71772828 89.86533901 258.71626373 79.82543945 258.70483398 C69.51490095 258.69335455 59.20462262 258.70743775 48.89411837 258.73423046 C39.9958849 258.75647581 31.09773258 258.76300512 22.19947332 258.75715405 C16.90505986 258.75380475 11.61081312 258.75606341 6.31642342 258.77340508 C1.3347214 258.7890142 -3.64659867 258.78476588 -8.62828636 258.76609993 C-10.44131657 258.76245253 -12.25437598 258.76540791 -14.067379 258.77598572 C-30.89001297 258.86653529 -48.38060964 257.34791375 -62.30761719 246.94628906 C-67.60924457 241.64466168 -70.86982632 235.43915028 -72.99511719 228.25878906 C-73.27484375 227.34355469 -73.55457031 226.42832031 -73.84277344 225.48535156 C-76.86059556 213.89130008 -76.28088328 202.14958949 -75.99511719 190.25878906 C-74.01606381 189.7999668 -72.03686775 189.34175998 -70.05761719 188.88378906 C-68.95546875 188.62855469 -67.85332031 188.37332031 -66.71777344 188.11035156 C-58.17695366 186.15662784 -49.61506239 184.32297753 -41.03588867 182.54443359 C-39.036876 182.12948366 -37.03846392 181.7117158 -35.04003906 181.29394531 C-33.77869141 181.03226563 -32.51734375 180.77058594 -31.21777344 180.50097656 C-30.07058838 180.26233887 -28.92340332 180.02370117 -27.74145508 179.77783203 C-24.99511719 179.25878906 -24.99511719 179.25878906 -22.99511719 179.25878906 C-22.99511719 189.48878906 -22.99511719 199.71878906 -22.99511719 210.25878906 C37.06488281 210.25878906 97.12488281 210.25878906 159.00488281 210.25878906 C159.00488281 190.78878906 159.00488281 171.31878906 159.00488281 151.25878906 C153.8124585 151.2692627 148.62003418 151.27973633 143.27026367 151.29052734 C126.08742307 151.32371199 108.90458118 151.34587875 91.72171688 151.36241341 C81.30689288 151.37270285 70.89209936 151.38671834 60.47729492 151.40966797 C51.39417787 151.42967351 42.31108291 151.44252243 33.22794443 151.44696605 C28.42357654 151.44956135 23.61927179 151.45561225 18.81492424 151.47024918 C14.28170932 151.48394659 9.74858284 151.48798744 5.2153492 151.48500443 C3.56232343 151.4855492 1.90929433 151.48945355 0.25628662 151.49720001 C-16.60513688 151.57226047 -37.78920897 151.59765393 -51.29199219 140.03222656 C-66.91243093 123.76690732 -66.34092539 100.69212626 -66.25585938 79.55322266 C-66.24515955 76.39628795 -66.25579947 73.2399251 -66.26855469 70.08300781 C-66.29874747 28.4406284 -66.29874747 28.4406284 -53.99511719 14.25878906 C-39.29531875 0.49784637 -19.10213139 -0.0527958 0 0 Z " fill="#FDFDFE" transform="translate(978.9951171875,2439.7412109375)"/>
<path d="M0 0 C1.30018066 0.0724292 2.60036133 0.1448584 3.93994141 0.21948242 C7.94796091 0.43324018 11.89328121 0.44520346 15.90625 0.4296875 C35.22682941 0.71184226 35.22682941 0.71184226 39.87744141 5.38598633 C41.99819702 8.77873858 43.27630333 11.95692053 44.54296875 15.74414062 C45.61898453 17.73182997 46.73559759 19.69815863 47.89453125 21.63867188 C48.98782701 23.61013739 50.07891399 25.58282918 51.16796875 27.55664062 C55.82972911 35.94340545 60.56347657 44.2799252 65.41796875 52.55664062 C70.55539889 61.31784565 75.6351188 70.11008476 80.66796875 78.93164062 C81.00744537 79.52657318 81.346922 80.12150574 81.69668579 80.73446655 C83.98014895 84.73691146 86.26162734 88.74048596 88.54296875 92.74414062 C98.75620031 110.6562485 109.05055996 128.52091324 119.375 146.36914062 C125.87684289 157.61545874 132.33153125 168.88497979 138.7019043 180.20629883 C142.56200199 187.05002983 146.50500638 193.8418818 150.48046875 200.61914062 C155.88813748 209.83798542 161.14023035 219.1343571 166.33227539 228.47607422 C170.95846666 236.77108763 175.75075661 244.95929212 180.63305664 253.10595703 C181.14731201 253.96624512 181.66156738 254.8265332 182.19140625 255.71289062 C182.64692871 256.47021484 183.10245117 257.22753906 183.57177734 258.0078125 C184.54296875 259.74414062 184.54296875 259.74414062 184.54296875 260.74414062 C162.10296875 260.74414062 139.66296875 260.74414062 116.54296875 260.74414062 C112.91296875 253.81414063 109.28296875 246.88414062 105.54296875 239.74414062 C103.29520192 235.68442267 101.04188259 231.6410602 98.73046875 227.61914062 C94.58633011 220.36818182 90.54334547 213.07816461 86.54296875 205.74414062 C4.86796875 205.24914063 4.86796875 205.24914063 -78.45703125 204.74414062 C-79.44703125 207.71414062 -79.44703125 207.71414062 -80.45703125 210.74414062 C-81.18983789 212.24904606 -81.96600589 213.73365439 -82.78515625 215.19335938 C-83.24881592 216.02907471 -83.71247559 216.86479004 -84.19018555 217.72583008 C-84.69074463 218.61874756 -85.19130371 219.51166504 -85.70703125 220.43164062 C-91.3299838 230.58261858 -96.70232701 240.84724553 -101.99902344 251.1706543 C-102.5665332 252.2738501 -103.13404297 253.3770459 -103.71875 254.51367188 C-104.22365967 255.49956299 -104.72856934 256.4854541 -105.2487793 257.5012207 C-106.45703125 259.74414062 -106.45703125 259.74414062 -107.45703125 260.74414062 C-109.29821154 260.83795365 -111.14300766 260.86158017 -112.98657227 260.85766602 C-114.1677211 260.85759048 -115.34886993 260.85751495 -116.56581116 260.85743713 C-117.85120285 260.85227585 -119.13659454 260.84711456 -120.4609375 260.84179688 C-122.42316505 260.83967445 -122.42316505 260.83967445 -124.42503357 260.83750916 C-127.90865984 260.83368472 -131.39224464 260.82385509 -134.87585449 260.81280518 C-138.42829833 260.80258945 -141.98074884 260.79801119 -145.53320312 260.79296875 C-152.50782957 260.78223275 -159.48242842 260.76515722 -166.45703125 260.74414062 C-165.15676121 256.72770678 -163.74099688 253.17282608 -161.65625 249.49804688 C-161.09800537 248.50788574 -160.53976074 247.51772461 -159.96459961 246.49755859 C-159.36397705 245.44455566 -158.76335449 244.39155273 -158.14453125 243.30664062 C-157.52006104 242.2020752 -156.89559082 241.09750977 -156.25219727 239.95947266 C-154.95616851 237.66817097 -153.65788998 235.37814044 -152.35742188 233.08935547 C-150.59902109 229.99408214 -148.84675668 226.89545777 -147.09765625 223.79492188 C-144.95606411 219.99897985 -142.81156046 216.20471345 -140.6640625 212.41210938 C-138.53208558 208.64632943 -136.40463763 204.87805147 -134.28125 201.10742188 C-128.50073983 190.84874039 -122.6674211 180.62334833 -116.76953125 170.43164062 C-112.1596246 162.46388636 -107.59980134 154.47453784 -103.15014648 146.41625977 C-94.756535 131.21776006 -86.12455579 116.15265016 -77.49832153 101.0854187 C-71.54993495 90.69186908 -65.68375919 80.25364051 -59.84375 69.79882812 C-54.42001518 60.09220764 -48.94136375 50.41661565 -43.45703125 40.74414062 C-43.0894873 40.09509766 -42.72194336 39.44605469 -42.34326172 38.77734375 C-40.83165796 36.10971945 -39.30821493 33.46004077 -37.71191406 30.84179688 C-35.83821831 27.62710605 -34.43967929 24.32725968 -33.03051758 20.88574219 C-25.55295259 4.02974321 -18.37449499 -0.45097215 0 0 Z " fill="#FDFDFD" transform="translate(2550.45703125,2437.255859375)"/>
<path d="M0 0 C2.38338757 -0.05908209 4.76866244 -0.06061368 7.15234375 -0.01489258 C8.41699463 -0.02208817 9.68164551 -0.02928375 10.98461914 -0.03669739 C13.65762634 -0.03911979 16.32154405 -0.02170851 18.99316406 0.02929688 C22.4047884 0.09190202 25.8095065 0.0694538 29.22114563 0.02077198 C32.49019533 -0.01487023 35.7583178 0.01921925 39.02734375 0.04760742 C40.85567749 0.02498589 40.85567749 0.02498589 42.72094727 0.00190735 C50.96470345 0.23012067 50.96470345 0.23012067 54.11752319 3.16665649 C55.68246002 5.47179745 56.91269516 7.75582682 58.08984375 10.27807617 C58.67588379 11.26259766 59.26192383 12.24711914 59.86572266 13.26147461 C60.58381104 14.56133301 60.58381104 14.56133301 61.31640625 15.88745117 C61.86683594 16.87817627 62.41726563 17.86890137 62.984375 18.88964844 C63.55542969 19.92532959 64.12648438 20.96101074 64.71484375 22.02807617 C65.95633065 24.26153867 67.19852915 26.49460575 68.44140625 28.72729492 C69.05661133 29.83379395 69.67181641 30.94029297 70.30566406 32.08032227 C72.87346391 36.68254482 75.47420142 41.26540678 78.08984375 45.84057617 C78.57291992 46.68555664 79.05599609 47.53053711 79.55371094 48.40112305 C83.31788193 54.96671069 87.13940294 61.49806141 90.96484375 68.02807617 C95.76748053 76.22707104 100.46791585 84.47592768 105.08984375 92.77807617 C110.77806226 102.99308599 116.62035953 113.10860695 122.53125 123.19604492 C134.55448302 143.71680153 146.31344166 164.39170566 158.10021973 185.04882812 C160.45026032 189.16729202 162.80086585 193.28543273 165.15234375 197.40307617 C165.4825351 197.9812912 165.81272644 198.55950623 166.15292358 199.15524292 C171.02671847 207.68799734 175.92525364 216.20625312 180.83984375 224.71557617 C185.57651088 232.91960341 190.31267317 241.12388227 195.02734375 249.34057617 C195.54200195 250.23381592 196.05666016 251.12705566 196.58691406 252.04736328 C197.0506543 252.8569751 197.51439453 253.66658691 197.9921875 254.50073242 C198.39945068 255.20979736 198.80671387 255.9188623 199.22631836 256.64941406 C200.08984375 258.27807617 200.08984375 258.27807617 200.08984375 259.27807617 C191.52784881 259.67360799 182.96971578 259.97476264 174.40081978 260.15888309 C170.42048865 260.24730695 166.44643895 260.36691879 162.46972656 260.56054688 C136.95114655 261.77016988 136.95114655 261.77016988 130.75341797 257.7701416 C127.12943352 253.92383754 125.39311852 249.49315356 123.83514404 244.50741577 C122.71754869 241.1644685 121.03376058 238.36403236 119.26171875 235.31713867 C118.11762099 233.18097417 116.97691833 231.04298736 115.83984375 228.90307617 C114.68907999 226.74928183 113.53804096 224.59563454 112.38671875 222.44213867 C111.84208984 221.41894531 111.29746094 220.39575195 110.73632812 219.34155273 C108.59012168 215.34828487 106.38359877 211.3892673 104.16503906 207.43579102 C103.08984375 205.27807617 103.08984375 205.27807617 103.08984375 203.27807617 C48.30984375 203.27807617 -6.47015625 203.27807617 -62.91015625 203.27807617 C-63.90015625 206.24807617 -63.90015625 206.24807617 -64.91015625 209.27807617 C-65.78996815 211.15128836 -66.71118271 213.0054867 -67.66796875 214.84057617 C-68.20736084 215.87811035 -68.74675293 216.91564453 -69.30249023 217.98461914 C-69.87427002 219.07145996 -70.4460498 220.15830078 -71.03515625 221.27807617 C-71.62047119 222.39714355 -72.20578613 223.51621094 -72.80883789 224.66918945 C-76.41645003 231.53395713 -80.10458493 238.33308929 -84.03125 245.02026367 C-86.7440831 249.72401171 -89.3099976 254.51111865 -91.91015625 259.27807617 C-111.38015625 259.27807617 -130.85015625 259.27807617 -150.91015625 259.27807617 C-149.56060564 255.22942434 -148.59962477 252.42569356 -146.546875 248.90698242 C-146.07902588 248.0976123 -145.61117676 247.28824219 -145.12915039 246.4543457 C-144.37106079 245.16052979 -144.37106079 245.16052979 -143.59765625 243.84057617 C-142.50591877 241.95419971 -141.41479408 240.06746849 -140.32421875 238.18041992 C-139.75993164 237.2070166 -139.19564453 236.23361328 -138.61425781 235.23071289 C-135.86832304 230.47292848 -133.17044517 225.68827416 -130.47265625 220.90307617 C-129.37896813 218.96554124 -128.2852178 217.02804142 -127.19140625 215.09057617 C-126.64871094 214.12893555 -126.10601563 213.16729492 -125.546875 212.17651367 C-123.9301712 209.31352031 -122.31120198 206.45182119 -120.69140625 203.59057617 C-115.05120197 193.62558726 -109.43424393 183.64823187 -103.84765625 173.65307617 C-97.6041622 162.48802836 -91.27365681 151.3750364 -84.91015625 140.27807617 C-82.20006258 135.5499158 -79.49143 130.82092405 -76.78515625 126.09057617 C-76.26728546 125.18544281 -76.26728546 125.18544281 -75.73895264 124.26202393 C-71.26794815 116.44413971 -66.84216552 108.60361485 -62.48901367 100.71948242 C-58.91500276 94.25684643 -55.25038304 87.84755331 -51.57885742 81.43994141 C-46.20276233 72.05420745 -40.88496881 62.63585807 -35.56884766 53.21606445 C-33.88568353 50.23472841 -32.20092833 47.25429718 -30.515625 44.27416992 C-29.95875 43.28940674 -29.401875 42.30464355 -28.828125 41.29003906 C-27.72532844 39.33996804 -26.622465 37.38993484 -25.51953125 35.43994141 C-23.10759804 31.17372397 -20.69882257 26.90587373 -18.3046875 22.62963867 C-17.90668945 21.91928467 -17.50869141 21.20893066 -17.09863281 20.47705078 C-16.38958927 19.21039645 -15.68173628 17.94307423 -14.97558594 16.67480469 C-14.34601539 15.55018586 -13.70249661 14.43322492 -13.04316711 13.32579041 C-11.84310625 11.24135403 -11.84310625 11.24135403 -10.85203552 8.77783203 C-8.21122948 3.21242092 -6.30447441 0.66934523 0 0 Z " fill="#FDFDFD" transform="translate(1858.91015625,2438.721923828125)"/>
<path d="M0 0 C19.8 0 39.6 0 60 0 C60 33 60 66 60 100 C122.04 100 184.08 100 248 100 C248 67 248 34 248 0 C267.8 0 287.6 0 308 0 C308 85.14 308 170.28 308 258 C288.2 258 268.4 258 248 258 C248 221.37 248 184.74 248 147 C185.96 147 123.92 147 60 147 C60 183.63 60 220.26 60 258 C40.2 258 20.4 258 0 258 C0 172.86 0 87.72 0 0 Z " fill="#FDFEFE" transform="translate(1316,2440)"/>
<path d="M0 0 C1187.34 0 2374.68 0 3598 0 C3598 3.3 3598 6.6 3598 10 C2410.66 10 1223.32 10 0 10 C0 6.7 0 3.4 0 0 Z " fill="#174B8F" transform="translate(0,3588)"/>
<path d="M0 0 C86.46 0 172.92 0 262 0 C262 14.85 262 29.7 262 45 C195.34 45 128.68 45 60 45 C60 67.77 60 90.54 60 114 C95.97 114 131.94 114 169 114 C169 129.18 169 144.36 169 160 C133.03 160 97.06 160 60 160 C60 192.34 60 224.68 60 258 C40.2 258 20.4 258 0 258 C0 172.86 0 87.72 0 0 Z " fill="#FDFDFE" transform="translate(2142,2440)"/>
<path d="M0 0 C13.344375 -0.061875 26.68875 -0.12375 40.4375 -0.1875 C44.61591553 -0.21481201 48.79433105 -0.24212402 53.09936523 -0.27026367 C58.2911377 -0.28381348 58.2911377 -0.28381348 60.73890686 -0.28633118 C62.41068433 -0.29087022 64.08245341 -0.30127626 65.75416565 -0.31672668 C87.36266046 -0.5060599 107.30305728 1.84951796 124 17 C134.95260923 29.21561282 136.7895515 43.85655911 136.18798828 59.58789062 C135.74026096 65.33275543 134.05112666 70.63003646 132 76 C131.71125 76.76570313 131.4225 77.53140625 131.125 78.3203125 C126.88579604 87.97207151 119.18534388 94.29918037 110 99 C109.29230469 99.37898438 108.58460937 99.75796875 107.85546875 100.1484375 C96.63184665 105.68736789 83.2289117 107.17619405 70.83984375 107.11352539 C70.0558168 107.11364593 69.27178986 107.11376646 68.46400452 107.11389065 C65.95513964 107.11315114 63.44635139 107.10556729 60.9375 107.09765625 C59.37695349 107.09618384 57.81640648 107.09516497 56.25585938 107.09460449 C50.50389866 107.08938621 44.75194856 107.07542496 39 107.0625 C26.13 107.041875 13.26 107.02125 0 107 C0 71.69 0 36.38 0 0 Z " fill="#F1DEA4" transform="translate(1681,2774)"/>
<path d="M0 0 C17.325 -0.061875 34.65 -0.12375 52.5 -0.1875 C60.69166992 -0.22846802 60.69166992 -0.22846802 69.04882812 -0.27026367 C75.74121094 -0.28381348 75.74121094 -0.28381348 78.87878418 -0.28633118 C81.06011798 -0.29092401 83.24144438 -0.30144638 85.42272949 -0.31672668 C88.73572937 -0.33876546 92.04826565 -0.34171535 95.36132812 -0.34057617 C96.80772045 -0.35676766 96.80772045 -0.35676766 98.28333282 -0.37328625 C105.4795646 -0.34028221 111.15987371 0.65380872 116.875 5.375 C121.1964644 10.71327955 121.32918739 15.56539683 121.37109375 22.17578125 C121.38012222 23.05977097 121.3891507 23.94376068 121.39845276 24.85453796 C121.41292881 26.72126901 121.42183541 28.58805048 121.42553711 30.45483398 C121.43741852 33.29303679 121.48661572 36.12905335 121.53710938 38.96679688 C121.54657655 40.7864478 121.55381018 42.60611199 121.55859375 44.42578125 C121.57812607 45.26563065 121.59765839 46.10548004 121.61778259 46.97077942 C121.5714036 53.10690801 120.02298788 57.31369531 116 62 C109.62728782 66.61734605 101.45765661 66.6438814 93.875 66.75 C92.2971875 66.79447266 92.2971875 66.79447266 90.6875 66.83984375 C88.12492691 66.90973211 85.56322038 66.96282401 83 67 C90.44992677 73.29013963 98.00666367 79.41013345 105.69140625 85.41015625 C108.50099248 87.60411845 111.28635805 89.82628841 114.0625 92.0625 C116.84946394 94.30509869 119.65881195 96.51163231 122.50390625 98.6796875 C123.10388428 99.13722412 123.7038623 99.59476074 124.32202148 100.06616211 C125.50813429 100.96831453 126.69639579 101.86765011 127.88696289 102.76391602 C129.27572549 103.81966008 130.64048634 104.90684873 132 106 C132 106.33 132 106.66 132 107 C126.91402543 107.22434739 121.83099335 107.38663156 116.74121094 107.49438477 C115.0144631 107.53934209 113.28805199 107.60053584 111.5625 107.67895508 C95.3938218 108.39475594 95.3938218 108.39475594 89.1875 102.81640625 C87.75811666 101.24073373 86.358112 99.63750188 85 98 C83.91212356 96.96671507 82.80773526 95.95021054 81.6796875 94.9609375 C80.75414062 94.10757813 79.82859375 93.25421875 78.875 92.375 C75.63827567 89.39733698 72.38860924 86.44045978 69.0625 83.5625 C62.91070941 78.23181705 56.75671564 72.75671564 51 67 C49.07521187 66.84193469 47.1450079 66.748865 45.21484375 66.68359375 C44.16159912 66.64548584 43.10835449 66.60737793 42.02319336 66.56811523 C40.67491455 66.52501221 39.32663574 66.48190918 37.9375 66.4375 C33.668125 66.293125 29.39875 66.14875 25 66 C25 79.53 25 93.06 25 107 C16.75 107 8.5 107 0 107 C0 71.69 0 36.38 0 0 Z " fill="#F1DEA4" transform="translate(916,2774)"/>
<path d="M0 0 C1.23324005 -0.01007584 1.23324005 -0.01007584 2.49139404 -0.02035522 C5.19256745 -0.03925512 7.89349126 -0.04325555 10.59472656 -0.04541016 C12.48651224 -0.05184435 14.37829693 -0.05857317 16.27008057 -0.06558228 C20.2308584 -0.07753555 24.19154916 -0.08126518 28.15234375 -0.08007812 C33.20365134 -0.07987521 38.2543946 -0.10715758 43.3055687 -0.14162254 C47.21261104 -0.1639678 51.11951929 -0.16791331 55.02661896 -0.16685867 C56.88757519 -0.16920392 58.74853573 -0.17796611 60.60942841 -0.19352341 C83.07237034 -0.36371695 83.07237034 -0.36371695 90.2098999 5.77334595 C95.70502391 11.97173566 94.56294188 18.45390562 94.48535156 26.29052734 C87.22535156 27.61052734 79.96535156 28.93052734 72.48535156 30.29052734 C72.48535156 26.66052734 72.48535156 23.03052734 72.48535156 19.29052734 C48.06535156 19.29052734 23.64535156 19.29052734 -1.51464844 19.29052734 C-1.51464844 26.88052734 -1.51464844 34.47052734 -1.51464844 42.29052734 C0.88671387 42.26958008 3.28807617 42.24863281 5.76220703 42.22705078 C13.72489739 42.16056589 21.68760048 42.11650643 29.65049553 42.08327866 C34.47515505 42.0624655 39.29952851 42.03426333 44.12402344 41.98876953 C48.78598948 41.94508692 53.44768156 41.92134314 58.10983658 41.91101837 C59.88232862 41.90366703 61.65480685 41.88931214 63.42718124 41.86760712 C83.68209268 41.62958052 83.68209268 41.62958052 91.11154175 47.59661865 C97.69823805 54.51940224 96.82222006 64.74751663 96.79785156 73.60302734 C96.81396484 74.76253906 96.83007812 75.92205078 96.84667969 77.11669922 C96.85148271 85.66127087 96.04874723 93.7333795 91.79785156 101.29052734 C85.4019011 106.82216018 76.92841955 107.44101987 68.82055664 107.4675293 C67.94685425 107.47410049 67.07315186 107.48067169 66.17297363 107.48744202 C63.2836091 107.50713989 60.39429649 107.5188306 57.50488281 107.52880859 C56.51582129 107.53288412 55.52675976 107.53695965 54.50772667 107.54115868 C49.27134791 107.56200573 44.03499524 107.57631264 38.79858398 107.58569336 C33.40289124 107.5967472 28.00761208 107.63113937 22.61206532 107.67086506 C18.45205442 107.69707022 14.29214145 107.70538873 10.13205528 107.70897484 C8.14383849 107.71383169 6.1556258 107.72541983 4.16749001 107.74401283 C1.37703759 107.76848443 -1.41235294 107.76742453 -4.20288086 107.76049805 C-5.0151564 107.77330811 -5.82743195 107.78611816 -6.6643219 107.79931641 C-13.05122145 107.7418897 -19.26177329 106.24014071 -24.1108427 101.84314442 C-28.66763676 96.56846611 -29.76795534 92.9691003 -29.63964844 86.04052734 C-29.62160156 84.77724609 -29.60355469 83.51396484 -29.58496094 82.21240234 C-29.55015625 80.76607422 -29.55015625 80.76607422 -29.51464844 79.29052734 C-21.81185084 77.15310183 -14.49494907 75.81554712 -6.51464844 75.29052734 C-6.51464844 79.25052734 -6.51464844 83.21052734 -6.51464844 87.29052734 C19.55535156 87.29052734 45.62535156 87.29052734 72.48535156 87.29052734 C72.48535156 79.04052734 72.48535156 70.79052734 72.48535156 62.29052734 C68.8221582 62.31409302 68.8221582 62.31409302 65.08496094 62.33813477 C56.9984912 62.38793796 48.91201453 62.42101915 40.82543182 62.44596386 C35.92455402 62.4615916 31.02383393 62.48277694 26.12304688 62.5168457 C21.38978026 62.54954243 16.65666494 62.5674021 11.92329407 62.57515907 C10.12125773 62.5806841 8.31922928 62.59147306 6.51725769 62.60771751 C3.98495867 62.62962913 1.45327765 62.63248858 -1.07910156 62.63110352 C-1.81709991 62.64188934 -2.55509827 62.65267517 -3.31546021 62.66378784 C-8.9123758 62.63085913 -14.7067602 61.75565706 -19.04761505 57.94468975 C-25.32581471 50.79107718 -24.8872053 43.30645489 -24.88525391 34.30859375 C-24.88960896 32.06090465 -24.92591036 29.815211 -24.96386719 27.56787109 C-25.03458769 18.55166452 -24.70090988 10.70307319 -18.20214844 3.85302734 C-12.36697894 0.46048694 -6.56780899 -0.0078151 0 0 Z " fill="#F1DEA4" transform="translate(1363.5146484375,2773.70947265625)"/>
<path d="M0 0 C21.13162881 0 21.13162881 0 25.74951172 4.1652832 C26.30654785 4.75011475 26.86358398 5.33494629 27.4375 5.9375 C28.73909351 7.13996337 30.04249386 8.34047377 31.34765625 9.5390625 C31.9627002 10.13106445 32.57774414 10.72306641 33.21142578 11.33300781 C35.78481251 13.73146326 38.52796394 15.74522541 41.375 17.8125 C45.76942712 21.06697492 50.06455073 24.4144938 54.3203125 27.84765625 C57.44618802 30.35838134 60.59563858 32.8377262 63.75 35.3125 C64.34280762 35.77769043 64.93561523 36.24288086 65.54638672 36.72216797 C66.75934664 37.67378452 67.97240069 38.62528108 69.18554688 39.57666016 C71.54468468 41.42727552 73.90237892 43.27972313 76.25976562 45.13256836 C77.41960566 46.04394098 78.57976188 46.95491136 79.74023438 47.86547852 C82.7135452 50.19909467 85.68144644 52.53910663 88.640625 54.890625 C89.24519531 55.36951172 89.84976563 55.84839844 90.47265625 56.34179688 C91.60207635 57.23664511 92.72987349 58.13354852 93.85546875 59.03320312 C98.77561872 62.92481319 103.8277957 66.37945699 109 70 C109 46.9 109 23.8 109 0 C116.92 0 124.84 0 133 0 C133 35.31 133 70.62 133 107 C111.8666512 107 111.8666512 107 106.99755859 102.58154297 C106.10157959 101.6439917 106.10157959 101.6439917 105.1875 100.6875 C103.78932045 99.39024365 102.38955852 98.09469087 100.98828125 96.80078125 C99.984021 95.83132568 99.984021 95.83132568 98.95947266 94.84228516 C96.08772522 92.14228439 93.00686525 89.76255437 89.875 87.375 C88.73580347 86.48848791 87.59778139 85.60046456 86.4609375 84.7109375 C85.61354004 84.04916504 85.61354004 84.04916504 84.74902344 83.37402344 C81.64833722 80.93814097 78.57516858 78.46796214 75.5 76 C70.71062556 72.15728354 65.90001538 68.34440753 61.0625 64.5625 C55.35283102 60.09733954 49.71672996 55.54685168 44.11938477 50.94165039 C37.85011127 45.80907221 31.43492218 40.94994014 25 36 C24.67 59.43 24.34 82.86 24 107 C16.08 107 8.16 107 0 107 C0 71.69 0 36.38 0 0 Z " fill="#F0DDA4" transform="translate(2112,2774)"/>
<path d="M0 0 C37.95 0 75.9 0 115 0 C115 6.27 115 12.54 115 19 C85.96 19 56.92 19 27 19 C27 26.59 27 34.18 27 42 C43.83 42 60.66 42 78 42 C78 48.27 78 54.54 78 61 C61.17 61 44.34 61 27 61 C27 69.58 27 78.16 27 87 C56.7 87 86.4 87 117 87 C117 93.6 117 100.2 117 107 C78.39 107 39.78 107 0 107 C0 71.69 0 36.38 0 0 Z " fill="#EFDCA4" transform="translate(1907,2774)"/>
<path d="M0 0 C0.82230606 -0.00511093 1.64461212 -0.01022186 2.49183655 -0.01548767 C5.18758597 -0.02929187 7.88307703 -0.0284336 10.57885742 -0.02612305 C12.4692138 -0.0300155 14.35956931 -0.03435129 16.24992371 -0.03910828 C20.20473062 -0.04655116 24.15944824 -0.0462936 28.11425781 -0.04101562 C33.15760003 -0.03522883 38.20057406 -0.05214238 43.24385548 -0.0753603 C47.1466024 -0.09016452 51.04926206 -0.09096018 54.95203209 -0.08785057 C56.81018489 -0.0883606 58.66834299 -0.09353784 60.52646828 -0.10366249 C84.19909154 -0.21681757 84.19909154 -0.21681757 90.35188293 4.93144226 C96.28992278 11.14443431 96.65726802 17.95478236 96.49682617 26.1496582 C96.48780273 27.02879883 96.4787793 27.90793945 96.46948242 28.8137207 C96.44607194 30.96748531 96.41020627 33.12110835 96.37182617 35.2746582 C90.97383482 37.40874781 85.7206507 37.90100226 79.99682617 38.3996582 C76.82057617 38.6884082 73.64432617 38.9771582 70.37182617 39.2746582 C70.37182617 32.6746582 70.37182617 26.0746582 70.37182617 19.2746582 C46.94182617 19.2746582 23.51182617 19.2746582 -0.62817383 19.2746582 C-0.62817383 41.7146582 -0.62817383 64.1546582 -0.62817383 87.2746582 C22.80182617 87.2746582 46.23182617 87.2746582 70.37182617 87.2746582 C70.37182617 79.6846582 70.37182617 72.0946582 70.37182617 64.2746582 C74.02245117 64.9552832 74.02245117 64.9552832 77.74682617 65.6496582 C78.49109863 65.78807129 79.23537109 65.92648438 80.00219727 66.0690918 C85.4681766 67.09123134 90.92108663 68.17434048 96.37182617 69.2746582 C97.28206539 94.64232498 97.28206539 94.64232498 90.24682617 102.7121582 C79.85958086 108.35740022 68.95199072 107.73202845 57.46166992 107.70825195 C55.52453937 107.7128201 53.58741043 107.71812755 51.65028381 107.72413635 C47.60484196 107.73303672 43.55959786 107.73067832 39.51416016 107.72070312 C34.34725378 107.70919962 29.18102946 107.72946193 24.01421261 107.75862026 C20.01888241 107.7770199 16.02371469 107.7766826 12.02835274 107.77098274 C10.12388716 107.77083008 8.21941019 107.77682822 6.31498528 107.78927422 C3.6472244 107.80425935 0.98071181 107.79345379 -1.68701172 107.77636719 C-2.46180878 107.78603516 -3.23660583 107.79570312 -4.03488159 107.80566406 C-10.83084954 107.71515003 -16.41254265 105.4748269 -22.00317383 101.6496582 C-27.8207158 93.14709686 -27.08663165 82.5408446 -27.06176758 72.6809082 C-27.06633895 71.08247661 -27.07164733 69.48404697 -27.07765198 67.88562012 C-27.08654103 64.55053678 -27.0842076 61.21569346 -27.07421875 57.88061523 C-27.06272296 53.63073198 -27.08297088 49.38167893 -27.11213589 45.1319046 C-27.1305783 41.83566122 -27.13018973 38.53961399 -27.12449837 35.24333191 C-27.1243462 33.67741225 -27.13030342 32.1114784 -27.14278984 30.54560852 C-27.20144198 21.98788818 -27.23725999 13.83945256 -22.62817383 6.2746582 C-16.30296906 0.52447205 -8.17006633 -0.0266985 0 0 Z " fill="#F3DFA4" transform="translate(2367.628173828125,2773.725341796875)"/>
<path d="M0 0 C37.95 0 75.9 0 115 0 C115 6.27 115 12.54 115 19 C85.63 19 56.26 19 26 19 C26 26.59 26 34.18 26 42 C43.16 42 60.32 42 78 42 C78 47.94 78 53.88 78 60 C60.84 60 43.68 60 26 60 C26 68.91 26 77.82 26 87 C55.7 87 85.4 87 116 87 C116 93.6 116 100.2 116 107 C77.72 107 39.44 107 0 107 C0 71.69 0 36.38 0 0 Z " fill="#F1DEA4" transform="translate(2558,2774)"/>
<path d="M0 0 C37.62 0 75.24 0 114 0 C114 5.94 114 11.88 114 18 C84.96 18 55.92 18 26 18 C26 25.92 26 33.84 26 42 C43.16 42 60.32 42 78 42 C78 48.27 78 54.54 78 61 C60.84 61 43.68 61 26 61 C26 69.58 26 78.16 26 87 C55.7 87 85.4 87 116 87 C116 93.6 116 100.2 116 107 C77.72 107 39.44 107 0 107 C0 71.69 0 36.38 0 0 Z " fill="#F1DEA4" transform="translate(1132,2774)"/>
<path d="M0 0 C4.07856529 1.35952176 4.85633202 3.93321925 6.6875 7.5625 C7.2129541 8.57461548 7.2129541 8.57461548 7.74902344 9.60717773 C10.47732973 14.88853876 13.10022994 20.22280154 15.73291016 25.55224609 C19.0026901 32.11508395 22.54260106 38.52160108 26.08056641 44.94262695 C30.73330111 53.42638786 35.17138945 62.01507558 39.58599854 70.62405396 C43.94679363 79.12387805 48.40844276 87.54921441 53.20751953 95.81152344 C56 100.68842982 56 100.68842982 56 104 C19.04 104 -17.92 104 -56 104 C-54.47992145 99.43976435 -53.06294928 96.02434358 -50.76171875 91.9140625 C-50.44482086 91.34421631 -50.12792297 90.77437012 -49.80142212 90.18725586 C-48.76791522 88.33063936 -47.72765535 86.47789845 -46.6875 84.625 C-45.22445175 82.00117358 -43.7647884 79.37546739 -42.3046875 76.75 C-41.93811539 76.09206451 -41.57154327 75.43412903 -41.19386292 74.7562561 C-37.84586869 68.74155339 -34.57277348 62.68765472 -31.3125 56.625 C-26.55452393 47.79327333 -21.65363043 39.05154533 -16.6875 30.33544922 C-12.66548189 23.24886032 -8.81472764 16.08488771 -5.06958008 8.84838867 C-4.69212646 8.11982666 -4.31467285 7.39126465 -3.92578125 6.640625 C-3.60005127 6.00672852 -3.27432129 5.37283203 -2.9387207 4.71972656 C-2.05077097 3.09301189 -1.02801607 1.5420241 0 0 Z " fill="#0B3E83" transform="translate(2555,2491)"/>
<path d="M0 0 C3.8370361 1.27901203 4.00629784 2.38727394 5.78515625 5.93359375 C6.31085205 6.96621338 6.83654785 7.99883301 7.37817383 9.06274414 C7.93400146 10.17641357 8.4898291 11.29008301 9.0625 12.4375 C10.23228663 14.73804226 11.40417658 17.03751618 12.578125 19.3359375 C13.44727539 21.04088379 13.44727539 21.04088379 14.33398438 22.78027344 C16.56677815 27.09535027 18.91975141 31.3346329 21.3125 35.5625 C24.31615497 40.89248604 27.18056071 46.25716928 29.875 51.75 C33.0188739 58.15854213 36.37504793 64.43177442 39.8125 70.6875 C44.0277662 78.36025444 48.18226005 86.06039176 52.25 93.8125 C52.72800049 94.7202417 53.20600098 95.6279834 53.69848633 96.56323242 C54.13314209 97.39443604 54.56779785 98.22563965 55.015625 99.08203125 C55.40008789 99.81655518 55.78455078 100.5510791 56.18066406 101.30786133 C57 103 57 103 57 104 C19.71 104 -17.58 104 -56 104 C-54.47113852 100.17784631 -52.88426535 96.76490093 -50.9453125 93.16015625 C-50.33695557 92.02650635 -49.72859863 90.89285645 -49.10180664 89.72485352 C-48.44300006 88.50399941 -47.78406124 87.28321665 -47.125 86.0625 C-46.44183474 84.79296333 -45.75881233 83.52334978 -45.07592773 82.25366211 C-34.80360845 63.16974743 -24.35547524 44.18345943 -13.87715149 25.2121582 C-9.23976722 16.81452756 -4.61966004 8.40738977 0 0 Z " fill="#093A80" transform="translate(1879,2491)"/>
<path d="M0 0 C9.19875 -0.061875 18.3975 -0.12375 27.875 -0.1875 C30.75976074 -0.21481201 33.64452148 -0.24212402 36.61669922 -0.27026367 C38.92935773 -0.27903392 41.24202092 -0.28667658 43.5546875 -0.29296875 C44.73426025 -0.30831665 45.91383301 -0.32366455 47.12915039 -0.33947754 C58.39161742 -0.34300957 67.14707737 1.88863592 76 9 C81.63224179 14.63224179 83.36000985 21.52706449 83.46850586 29.25683594 C83.45827393 30.10020508 83.44804199 30.94357422 83.4375 31.8125 C83.42920166 32.69325195 83.42090332 33.57400391 83.41235352 34.48144531 C83.16228715 44.13169343 81.00475864 52.16748994 74.16796875 59.28125 C63.66872554 67.60497434 49.18139586 68.33019644 36.328125 68.1953125 C35.39661621 68.19329834 34.46510742 68.19128418 33.50537109 68.18920898 C30.08686263 68.17889043 26.66842538 68.15097029 23.25 68.125 C15.5775 68.08375 7.905 68.0425 0 68 C0 45.56 0 23.12 0 0 Z " fill="#093C81" transform="translate(1707,2793)"/>
<path d="M0 0 C6.6 0 13.2 0 20 0 C20 10.23 20 20.46 20 31 C40.13 31 60.26 31 81 31 C81 20.77 81 10.54 81 0 C87.6 0 94.2 0 101 0 C101 26.73 101 53.46 101 81 C94.4 81 87.8 81 81 81 C81 69.78 81 58.56 81 47 C60.87 47 40.74 47 20 47 C20 57.89 20 68.78 20 80 C13.4 80 6.8 80 0 80 C0 53.6 0 27.2 0 0 Z " fill="#F6F8FA" transform="translate(1717,2292)"/>
<path d="M0 0 C28.05 0 56.1 0 85 0 C85 4.29 85 8.58 85 13 C63.22 13 41.44 13 19 13 C19 18.94 19 24.88 19 31 C31.87 31 44.74 31 58 31 C58 35.62 58 40.24 58 45 C45.13 45 32.26 45 19 45 C19 51.27 19 57.54 19 64 C41.44 64 63.88 64 87 64 C87 68.95 87 73.9 87 79 C58.29 79 29.58 79 0 79 C0 52.93 0 26.86 0 0 Z " fill="#FBFBFC" transform="translate(1854,2293)"/>
<path d="M0 0 C32.01 0 64.02 0 97 0 C97 4.95 97 9.9 97 15 C84.13 15 71.26 15 58 15 C58 36.45 58 57.9 58 80 C51.73 80 45.46 80 39 80 C39 58.55 39 37.1 39 15 C26.13 15 13.26 15 0 15 C0 10.05 0 5.1 0 0 Z " fill="#F8F9FB" transform="translate(1595,2292)"/>
<path d="M0 0 C8.25 0 16.5 0 25 0 C25 35.31 25 70.62 25 107 C16.75 107 8.5 107 0 107 C0 71.69 0 36.38 0 0 Z " fill="#F4E0A4" transform="translate(1556,2774)"/>
<path d="M0 0 C16.02124106 -0.12032643 16.02124106 -0.12032643 22.86132812 -0.14648438 C27.52492539 -0.16440359 32.1883456 -0.18558036 36.85180664 -0.22631836 C40.61248525 -0.25896368 44.37297394 -0.27686385 48.13378334 -0.28463173 C49.56709087 -0.290166 51.00038826 -0.30097321 52.43361473 -0.31719017 C54.44416503 -0.33903055 56.45490728 -0.34022597 58.46557617 -0.34057617 C59.60919113 -0.34723801 60.75280609 -0.35389984 61.93107605 -0.36076355 C65.65627216 0.07714726 68.32910473 1.32910473 71 4 C71.33501527 7.59484108 71.32497746 11.20405554 71.375 14.8125 C71.43107422 16.3294043 71.43107422 16.3294043 71.48828125 17.87695312 C71.49988281 18.85212891 71.51148438 19.82730469 71.5234375 20.83203125 C71.5531665 22.17358276 71.5531665 22.17358276 71.58349609 23.54223633 C70.73606943 27.11171088 69.03231327 28.02448065 66 30 C62.89311218 30.48101807 62.89311218 30.48101807 59.3737793 30.45410156 C58.72931351 30.45468567 58.08484772 30.45526978 57.42085266 30.45587158 C55.30474728 30.45309954 53.19007595 30.42205361 51.07421875 30.390625 C49.60163645 30.38315937 48.12904417 30.37746796 46.65644836 30.37347412 C42.79121194 30.35824282 38.92658215 30.31898363 35.06158447 30.2746582 C30.41856166 30.22643389 25.77533536 30.20815945 21.13213348 30.18484497 C14.08766781 30.14612995 7.04453169 30.06946128 0 30 C0 20.1 0 10.2 0 0 Z " fill="#093A7F" transform="translate(942,2792)"/>
<path d="M0 0 C3.3 0.33 6.6 0.66 10 1 C10 4.3 10 7.6 10 11 C6.7 11 3.4 11 0 11 C0 7.37 0 3.74 0 0 Z " fill="#093671" transform="translate(210,3477)"/>
<path d="M0 0 C3.63 0 7.26 0 11 0 C10.67 3.3 10.34 6.6 10 10 C6.7 10 3.4 10 0 10 C0 6.7 0 3.4 0 0 Z " fill="#0C4590" transform="translate(2140,0)"/>
<path d="M0 0 C3.3 0 6.6 0 10 0 C10 3.3 10 6.6 10 10 C6.7 10 3.4 10 0 10 C0 6.7 0 3.4 0 0 Z " fill="#093672" transform="translate(250,3518)"/>
<path d="M0 0 C3.3 0 6.6 0 10 0 C10 3.3 10 6.6 10 10 C6.7 10 3.4 10 0 10 C0 6.7 0 3.4 0 0 Z " fill="#093671" transform="translate(230,3498)"/>
<path d="M0 0 C3.3 0 6.6 0 10 0 C10 3.3 10 6.6 10 10 C6.7 10 3.4 10 0 10 C0 6.7 0 3.4 0 0 Z " fill="#07346C" transform="translate(99,3367)"/>
<path d="M0 0 C3.3 0 6.6 0 10 0 C10 3.3 10 6.6 10 10 C6.7 10 3.4 10 0 10 C0 6.7 0 3.4 0 0 Z " fill="#083370" transform="translate(49,3317)"/>
<path d="M0 0 C3.3 0 6.6 0 10 0 C10 3.3 10 6.6 10 10 C6.7 10 3.4 10 0 10 C0 6.7 0 3.4 0 0 Z " fill="#083071" transform="translate(944,241)"/>
<path d="M0 0 C3.3 0 6.6 0 10 0 C10 3.3 10 6.6 10 10 C6.7 10 3.4 10 0 10 C0 6.7 0 3.4 0 0 Z " fill="#0B4391" transform="translate(2371,231)"/>
<path d="M0 0 C3.3 0 6.6 0 10 0 C10 3.3 10 6.6 10 10 C6.7 10 3.4 10 0 10 C0 6.7 0 3.4 0 0 Z " fill="#083071" transform="translate(773,70)"/>
<path d="M0 0 C3.3 0 6.6 0 10 0 C10 3.3 10 6.6 10 10 C6.7 10 3.4 10 0 10 C0 6.7 0 3.4 0 0 Z " fill="#0B4492" transform="translate(2190,50)"/>
<path d="M0 0 C3.3 0 6.6 0 10 0 C10 3.3 10 6.6 10 10 C6.7 10 3.4 10 0 10 C0 6.7 0 3.4 0 0 Z " fill="#0B4593" transform="translate(2180,40)"/>
</svg>
