<?xml version="1.0" encoding="UTF-8"?>
<svg version="1.1" xmlns="http://www.w3.org/2000/svg" width="3598" height="3598">
<path d="M0 0 C1187.34 0 2374.68 0 3598 0 C3598 1187.34 3598 2374.68 3598 3598 C2410.66 3598 1223.32 3598 0 3598 C0 2410.66 0 1223.32 0 0 Z " fill="#093A81" transform="translate(0,0)"/>
<path d="M0 0 C6.67474048 2.22491349 6.67474048 2.22491349 10 4.625 C15.43489151 8.36823654 21.14625441 11.57363314 26.890625 14.80908203 C30.85205461 17.04563916 34.80034505 19.30523578 38.75 21.5625 C39.62946289 22.06475098 40.50892578 22.56700195 41.41503906 23.08447266 C49.74151845 27.84351428 58.04716445 32.63841781 66.35131836 37.4362793 C72.16530078 40.79370971 77.98638002 44.13770177 83.82177734 47.45776367 C101.72316506 57.64376207 119.50647995 68.04673113 137.13671875 78.6953125 C143.47902217 82.50104274 149.89404422 86.18500556 156.2890625 89.90112305 C162.56584956 93.55643432 168.79019509 97.26762738 174.92578125 101.15625 C178.57006469 103.34189394 182.29079901 105.36048028 186.02661133 107.38476562 C201.48157614 115.78036848 216.73015121 124.53976306 231.90234375 133.43359375 C238.25046615 137.15334912 244.62362113 140.82895249 251 144.5 C260.33875858 149.87891974 269.65640459 155.2925953 278.9609375 160.73046875 C286.29283774 165.01222151 293.6427156 169.26203368 301 173.5 C321.28076436 185.18442215 341.4911112 196.99004011 361.625 208.92578125 C362.21443893 209.27519775 362.80387787 209.62461426 363.41117859 209.98461914 C366.34467859 211.7237842 369.2777331 213.46369141 372.21020508 215.20458984 C373.30228271 215.85250488 374.39436035 216.50041992 375.51953125 217.16796875 C377.02706879 218.06297824 378.53311922 218.96147813 380.01268864 219.90200233 C382.09964702 221.12062863 382.09964702 221.12062863 384.92584133 222.07631493 C388.63389978 223.67055368 391.13424092 225.13656614 394 228 C395.80739684 234.23236076 395.51985137 240.34537662 395.36230469 246.78686523 C395.35891803 248.71890552 395.36082328 250.65096124 395.36761475 252.58299255 C395.37105494 257.81930602 395.30056664 263.05231399 395.21672726 268.28785968 C395.14165516 273.76229713 395.13465835 279.23681242 395.12042236 284.71168518 C395.08314024 295.07489428 394.98469086 305.43658233 394.86422849 315.79912192 C394.73004833 327.5981189 394.66410845 339.39718897 394.60388327 351.1967591 C394.47848792 375.46534902 394.2674504 399.73258925 394 424 C380.9357907 418.86380845 368.99507615 411.09184145 356.97290039 403.921875 C350.95751338 400.33583567 344.93529387 396.77509245 338.8125 393.375 C332.36601492 389.7936194 325.99029565 386.09872348 319.625 382.375 C310.99494985 377.32649621 302.35024663 372.30470986 293.6875 367.3125 C292.59147461 366.68077881 291.49544922 366.04905762 290.36621094 365.39819336 C288.23066709 364.16741873 286.09508878 362.93670389 283.95947266 361.70605469 C271.7461243 354.66539487 259.55963471 347.57958146 247.38745117 340.46801758 C241.07791264 336.78516899 234.75487588 333.12677938 228.42163086 329.48486328 C218.0346781 323.51160095 207.68341179 317.48254555 197.375 311.375 C196.25504639 310.71193848 195.13509277 310.04887695 193.98120117 309.36572266 C189.55529388 306.73759809 185.13787451 304.10573866 180.7890625 301.3515625 C176.6215004 298.72495228 172.3239028 296.35763098 168 294 C157.51489403 288.25034552 147.14343428 282.3497197 136.8671875 276.23364258 C129.39731524 271.79872613 121.86490771 267.47996904 114.3125 263.1875 C104.9849007 257.88447185 95.71726779 252.49361543 86.5 247 C76.15959686 240.83813929 65.74683449 234.81986449 55.28491211 228.86816406 C46.80670692 224.04346141 38.36590308 219.15827023 29.9543457 214.21826172 C20.01671546 208.39272262 10.00444816 202.71682752 0 197 C0 131.99 0 66.98 0 0 Z " fill="#E3CA8F" transform="translate(495,1586)"/>
<path d="M0 0 C0 65.34 0 130.68 0 198 C-3.63 199.98 -7.26 201.96 -11 204 C-13.11996293 205.27122332 -15.22926859 206.5606548 -17.3203125 207.87890625 C-23.49153096 211.71563572 -29.7624081 215.34684689 -36.08639526 218.92501831 C-45.06340113 224.00666317 -53.99860364 229.14024759 -62.8203125 234.48828125 C-81.31147397 245.65428081 -100.07617342 256.38603982 -118.79833984 267.15722656 C-124.20143613 270.2670764 -129.60047507 273.38395498 -135 276.5 C-137.16014542 277.74611252 -139.32030167 278.99220627 -141.48046875 280.23828125 C-145.87959075 282.77615993 -150.27794321 285.31536583 -154.67578125 287.85546875 C-176.77751262 300.6181209 -176.77751262 300.6181209 -187.6262207 306.76513672 C-191.75950689 309.11422709 -195.85477237 311.50568921 -199.90234375 314 C-200.67892334 314.47397217 -201.45550293 314.94794434 -202.25561523 315.4362793 C-203.7069292 316.32620172 -205.15106843 317.22797995 -206.58618164 318.14379883 C-209.32568138 319.81734536 -211.33553661 321.00800558 -214.59375 320.96875 C-217.57350587 319.76910803 -220.23319664 318.32520346 -223 316.6875 C-224.25492926 315.95264822 -225.51015639 315.21830496 -226.765625 314.484375 C-227.7855957 313.88399414 -227.7855957 313.88399414 -228.82617188 313.27148438 C-231.92440063 311.45931284 -235.04403737 309.68550949 -238.16333008 307.90991211 C-260.51811292 295.18488188 -282.75159148 282.25047244 -304.95898438 269.27050781 C-316.43357372 262.56502103 -327.92125162 255.88373355 -339.4375 249.25 C-348.69695439 243.91406635 -357.95296065 238.57425541 -367.13476562 233.10546875 C-369.05767913 231.9658153 -370.98949918 230.84226921 -372.921875 229.71875 C-374.13581729 229.00067685 -375.34937969 228.28196095 -376.5625 227.5625 C-377.61566406 226.94503906 -378.66882813 226.32757812 -379.75390625 225.69140625 C-380.49511719 225.13324219 -381.23632812 224.57507812 -382 224 C-382 223.01 -382 222.02 -382 221 C-380.1550293 219.5612793 -380.1550293 219.5612793 -377.57421875 218.07421875 C-376.63126953 217.52443359 -375.68832031 216.97464844 -374.71679688 216.40820312 C-373.71712891 215.84037109 -372.71746094 215.27253906 -371.6875 214.6875 C-370.73037109 214.13126953 -369.77324219 213.57503906 -368.78710938 213.00195312 C-364.05067113 210.26215484 -359.27924293 207.59566188 -354.46875 204.98828125 C-348.84846612 201.93930356 -343.3264523 198.73645026 -337.8125 195.5 C-335.69141734 194.25909562 -333.57032327 193.01821075 -331.44921875 191.77734375 C-329.84119385 190.83544189 -329.84119385 190.83544189 -328.20068359 189.87451172 C-323.17795078 186.93289902 -318.15205543 183.99671836 -313.125 181.0625 C-311.64930542 180.20108398 -311.64930542 180.20108398 -310.14379883 179.32226562 C-301.68643992 174.3903492 -293.20625111 169.4984904 -284.72241211 164.61230469 C-277.36260578 160.37085518 -270.02036411 156.10033608 -262.6875 151.8125 C-255.1692256 147.41653882 -247.6305023 143.05978839 -240.0625 138.75 C-232.51770924 134.45280444 -225.01576999 130.09012793 -217.5390625 125.67578125 C-202.65460502 116.89069391 -187.69341461 108.23686795 -172.7175293 99.60888672 C-161.45315527 93.11567224 -150.22503879 86.56090551 -139 80 C-125.59241282 72.16342017 -112.16840721 64.35721392 -98.71142578 56.60571289 C-91.46078014 52.42672406 -84.22527414 48.2226866 -77 44 C-67.59888251 38.50567936 -58.17308619 33.05539093 -48.73730469 27.62084961 C-41.2271384 23.29252727 -33.73408712 18.9357423 -26.25 14.5625 C-12.94321987 6.79147017 -12.94321987 6.79147017 -6.5625 3.125 C-5.49128906 2.50882813 -4.42007812 1.89265625 -3.31640625 1.2578125 C-1 0 -1 0 0 0 Z " fill="#E5CD92" transform="translate(889,1352)"/>
<path d="M0 0 C2.83886719 1.34423828 2.83886719 1.34423828 5.796875 3.0703125 C6.90708008 3.71178223 8.01728516 4.35325195 9.16113281 5.01416016 C10.35751039 5.71762291 11.5537971 6.42124025 12.75 7.125 C14.00046568 7.8516286 15.25145094 8.5773637 16.50292969 9.30224609 C19.07886099 10.79589166 21.65187591 12.29438194 24.22265625 13.796875 C28.81462864 16.47874615 33.42554693 19.12711732 38.03613281 21.77685547 C48.37179339 27.7204099 58.67555297 33.71821947 68.96850586 39.73535156 C76.23262839 43.97875577 83.51957013 48.18134645 90.8125 52.375 C99.74874391 57.51654703 108.63908873 62.72974301 117.5 68 C126.67427467 73.4562194 135.87856087 78.85484172 145.125 84.1875 C146.18525391 84.79916016 147.24550781 85.41082031 148.33789062 86.04101562 C154.19722518 89.41229407 160.0784678 92.73914996 166 96 C166 96.66 166 97.32 166 98 C163.71875 99.56542969 163.71875 99.56542969 160.5 101.421875 C159.92170944 101.75823471 159.34341888 102.09459442 158.74760437 102.44114685 C156.83568146 103.55107094 154.91790175 104.65044478 153 105.75 C151.66860535 106.52051264 150.33763562 107.29175995 149.00708008 108.0637207 C146.29927704 109.63350874 143.58931554 111.19946287 140.87744141 112.76220703 C135.46755912 115.88130304 130.07845107 119.03583921 124.6875 122.1875 C122.73326196 123.32714714 120.77883536 124.46647101 118.82421875 125.60546875 C113.88606532 128.48336048 108.94878266 131.36274104 104.01196289 134.24291992 C102.00475672 135.41385798 99.99743257 136.58459382 97.98999023 137.75512695 C93.03796256 140.64283767 88.08754932 143.53324183 83.140625 146.4296875 C71.86750536 153.02566176 60.55788084 159.55357885 49.21008301 166.0199585 C41.11328446 170.63465254 33.04228907 175.29074517 25 180 C16.36502443 185.05630923 7.69393681 190.04607122 -1 195 C-10.72353135 200.54116222 -20.41403225 206.13549751 -30.07348633 211.7878418 C-37.26135906 215.99220375 -44.47015815 220.15895954 -51.6875 224.3125 C-68.70167967 234.11122209 -85.63964039 244.04084785 -102.53051758 254.05053711 C-124.25107948 266.9216116 -146.18847327 279.41965986 -168.12382507 291.91990662 C-170.55456968 293.3053914 -172.98491611 294.69157312 -175.41506958 296.07809448 C-176.63249127 296.77268512 -177.84999939 297.46712427 -179.06759644 298.16140747 C-187.07023303 302.72606328 -195.05007519 307.32560908 -202.94042969 312.08251953 C-206.22003104 314.04138828 -209.44048473 315.62761121 -213 317 C-213.30373541 291.45294582 -213.53295137 265.90616233 -213.67355824 240.35766602 C-213.74058156 228.4948286 -213.83194706 216.63311325 -213.98071289 204.77099609 C-214.11032267 194.43138985 -214.19416413 184.09259614 -214.22315043 173.75220013 C-214.24009473 168.27692257 -214.27987978 162.80396934 -214.37449074 157.32943726 C-214.46286238 152.1740765 -214.48992959 147.02199205 -214.47039986 141.86594582 C-214.47397111 139.97598251 -214.49976805 138.0859077 -214.54967117 136.19659996 C-214.84203883 124.55484419 -214.84203883 124.55484419 -213 120 C-209.07026332 116.02297257 -205.15951079 114.17351345 -200 112 C-198.09225472 110.91004407 -196.19713605 109.79720936 -194.32421875 108.6484375 C-192.4462386 107.55569852 -190.56730661 106.46459399 -188.6875 105.375 C-186.58721466 104.1536887 -184.48695497 102.93233327 -182.38671875 101.7109375 C-181.32759277 101.09573242 -180.2684668 100.48052734 -179.17724609 99.84667969 C-174.11448075 96.90409808 -169.0574668 93.95167552 -164 91 C-161.99741349 89.83200098 -159.99480929 88.66403228 -157.9921875 87.49609375 C-154.01723501 85.17747926 -150.04336383 82.85702684 -146.0703125 80.53515625 C-128.70368946 70.38903906 -111.30774742 60.29321035 -93.828125 50.34277344 C-79.54036891 42.20849412 -65.37515018 33.86833845 -51.30712891 25.35961914 C-48.920568 23.95318975 -46.50241946 22.6238648 -44.0625 21.3125 C-38.86525055 18.5037737 -33.74017918 15.57962158 -28.625 12.625 C-27.80499512 12.15328369 -26.98499023 11.68156738 -26.14013672 11.19555664 C-22.40463891 9.03303679 -18.70736317 6.84410834 -15.09765625 4.4765625 C-14.51483887 4.09806152 -13.93202148 3.71956055 -13.33154297 3.32958984 C-11.79854588 2.32292024 -10.27952386 1.29505757 -8.76171875 0.265625 C-5.25301683 -1.34232326 -3.72053489 -0.89930725 0 0 Z " fill="#E2C98D" transform="translate(708,1922)"/>
<path d="M0 0 C1.85635015 -0.00792197 3.71269884 -0.01619212 5.56904602 -0.02478027 C11.61575907 -0.05075293 17.6624782 -0.06628043 23.70922852 -0.08056641 C25.80691085 -0.08593581 27.90459317 -0.09131332 30.00227547 -0.09669876 C38.73813373 -0.1182889 47.47399033 -0.13701968 56.20986843 -0.14832115 C68.64853195 -0.16453047 81.08688186 -0.19767992 93.52542728 -0.254722 C102.31750353 -0.29364231 111.10949666 -0.31297962 119.90165669 -0.31824172 C125.13096146 -0.32186428 130.35992988 -0.33355178 135.58913994 -0.36634445 C194.47516706 -0.71719292 194.47516706 -0.71719292 212.15063477 16.09521484 C224.13277236 30.26409255 223.46472543 49.8429861 223.15063477 67.19287109 C209.18313271 70.99607045 195.13353542 74.3597942 181.01293945 77.54589844 C179.16862832 77.9627719 177.32542529 78.38459406 175.48364258 78.8125 C172.31333101 79.54140288 169.41550323 80.19287109 166.15063477 80.19287109 C166.15063477 69.96287109 166.15063477 59.73287109 166.15063477 49.19287109 C105.10063477 49.19287109 44.05063477 49.19287109 -18.84936523 49.19287109 C-18.84936523 68.99287109 -18.84936523 88.79287109 -18.84936523 109.19287109 C-13.22873047 109.17716064 -7.6080957 109.1614502 -1.81713867 109.14526367 C16.80256062 109.09544098 35.42226262 109.06221825 54.04201126 109.03743458 C65.32548692 109.02201423 76.60889909 109.00101792 87.89233398 108.96655273 C97.73543524 108.93650156 107.57849048 108.91726105 117.42163634 108.91060561 C122.62581698 108.90671979 127.82986605 108.89769024 133.03400421 108.87568092 C137.94892043 108.85506646 142.86365298 108.84908678 147.77860832 108.85354805 C149.56660656 108.85273385 151.35461202 108.84691878 153.1425724 108.83525467 C162.47943748 108.77741734 171.56547974 109.17506648 180.81439209 110.5266571 C181.61730973 110.64304372 182.42022738 110.75943033 183.24747586 110.87934381 C194.89551664 112.75318098 208.20250824 117.01444488 216.15063477 126.19287109 C224.05038534 137.57612614 227.23323752 151.51616172 227.31176758 165.21948242 C227.31673248 165.88409485 227.32169739 166.54870728 227.32681274 167.23345947 C227.34131109 169.41395139 227.34821979 171.5943703 227.35375977 173.77490234 C227.35658714 174.52932806 227.35941452 175.28375378 227.36232758 176.06104088 C227.37727904 180.0629142 227.38653087 184.06475193 227.39086914 188.06665039 C227.39523538 191.33955142 227.4090599 194.61218609 227.43188477 197.88500977 C227.78759194 249.91435417 227.78759194 249.91435417 214.15844727 266.22802734 C210.59335456 269.71682429 206.59631513 271.99029997 202.15063477 274.19287109 C201.42618164 274.57185547 200.70172852 274.95083984 199.95532227 275.34130859 C185.51140846 282.03482962 168.13451713 281.63100415 152.56518555 281.54931641 C150.58350026 281.55010976 148.60181515 281.55221458 146.62013245 281.55551147 C141.30023006 281.56058919 135.98052535 281.54722557 130.66065454 281.52998447 C125.06274601 281.51480481 119.46483851 281.51611919 113.86691284 281.51531982 C104.47805463 281.51164317 95.08927023 281.49675433 85.70043945 281.47412109 C73.67950075 281.44520022 61.65862117 281.43488953 49.63765144 281.430439 C39.25428475 281.42644838 28.8709307 281.41395418 18.48757315 281.40009212 C15.17143502 281.39601207 11.85529732 281.39307703 8.53915787 281.39029694 C3.31707225 281.38537202 -1.90497837 281.37511564 -7.12704659 281.36085892 C-9.03409191 281.35637153 -10.9411419 281.35350579 -12.84819221 281.35245132 C-56.63058344 281.32283066 -56.63058344 281.32283066 -71.96655273 269.09130859 C-82.80704831 258.1608504 -86.94653243 242.47596026 -87.14233398 227.48193359 C-87.12278153 224.92707902 -87.08758958 222.37229691 -87.03686523 219.81787109 C-87.0217582 218.48455325 -87.00808066 217.15121842 -86.99584961 215.81787109 C-86.9609715 212.60908545 -86.9119655 209.40121479 -86.84936523 206.19287109 C-85.38061523 205.88688151 -83.91186523 205.58089193 -82.44311523 205.27490234 C-81.00270874 204.97471191 -81.00270874 204.97471191 -79.53320312 204.66845703 C-77.38927351 204.22194888 -75.24522817 203.77599606 -73.10107422 203.33056641 C-67.47400482 202.16077255 -61.84906671 200.9823208 -56.22827148 199.78271484 C-54.63885742 199.44566528 -54.63885742 199.44566528 -53.01733398 199.10180664 C-50.99706606 198.67313501 -48.97749101 198.24118036 -46.95874023 197.80541992 C-45.56075195 197.50994263 -45.56075195 197.50994263 -44.13452148 197.20849609 C-43.32893799 197.03608398 -42.52335449 196.86367187 -41.69335938 196.68603516 C-37.77262193 196.00615794 -33.80427516 195.63230553 -29.84936523 195.19287109 C-29.84936523 206.08287109 -29.84936523 216.97287109 -29.84936523 228.19287109 C35.82063477 228.19287109 101.49063477 228.19287109 169.15063477 228.19287109 C169.15063477 207.07287109 169.15063477 185.95287109 169.15063477 164.19287109 C163.56552979 164.20858154 157.9804248 164.22429199 152.22607422 164.24047852 C133.71814091 164.29031498 115.21020487 164.32352944 96.70222187 164.34830761 C85.48715589 164.3637238 74.27215383 164.38471199 63.05712891 164.41918945 C53.2729817 164.44925354 43.48888084 164.46848415 33.70468873 164.47513658 C28.53233387 164.47902025 23.3601115 164.48803567 18.18779945 164.51006126 C13.301607 164.53069633 8.41559934 164.53665143 3.52936745 164.53219414 C1.75307708 164.53300744 -0.02322064 164.53880992 -1.79947281 164.55048752 C-21.14253562 164.67122287 -45.45722363 164.51299364 -60.84936523 151.19287109 C-77.9253904 133.23593987 -76.45023941 108.17954381 -76.24060059 85.12994385 C-76.21890982 82.12446829 -76.21966589 79.1191754 -76.22087669 76.11363506 C-76.2203285 73.18019137 -76.20929258 70.24686113 -76.19487381 67.31345558 C-76.18859786 65.93063012 -76.18458904 64.54779211 -76.1830864 63.16495323 C-76.14409779 46.06601949 -74.31228511 27.60208296 -62.34936523 14.44287109 C-44.973517 -1.19539231 -22.00005249 0.05324181 0 0 Z " fill="#FDFDFE" transform="translate(1204.849365234375,1657.80712890625)"/>
<path d="M0 0 C1.25543106 -0.04188446 2.51086212 -0.08376892 3.80433655 -0.12692261 C8.81545136 -0.26476762 13.82729725 -0.36240758 18.83975315 -0.4358654 C22.64399792 -0.49240312 26.44400208 -0.57371666 30.24609375 -0.71582031 C33.9241113 -0.85272261 37.59829417 -0.92476661 41.27869987 -0.95251846 C42.67654084 -0.97390954 44.0742363 -1.01779509 45.47061348 -1.08523178 C49.97804382 -1.29279963 53.87478355 -1.21793416 58.13842773 0.31982422 C61.80923822 4.28010119 63.885213 8.40342339 66.13842773 13.31982422 C67.14947645 15.18207261 68.17060532 17.03894476 69.20874023 18.88623047 C69.68730469 19.77842285 70.16586914 20.67061523 70.65893555 21.58984375 C73.34043853 26.53779199 76.18906197 31.389993 79.01342773 36.25732422 C80.33681969 38.54481169 81.65984489 40.83250609 82.98217773 43.12060547 C83.32098969 43.70670593 83.65980164 44.2928064 84.00888062 44.89666748 C87.86338083 51.56814061 91.69111458 58.25487087 95.51342773 64.94482422 C95.8535791 65.54000854 96.19373047 66.13519287 96.54418945 66.74841309 C100.74828143 74.10658029 104.92255162 81.48027182 109.05883789 88.87670898 C112.00647832 94.12811508 115.06808581 99.30902892 118.13696289 104.49023438 C121.63157143 110.41124793 125.0184441 116.38966915 128.38842773 122.38232422 C133.53323326 131.531021 138.79144697 140.60763005 144.10253906 149.66064453 C148.10609566 156.50204435 151.98086453 163.40391212 155.79443359 170.35253906 C158.49575686 175.24484155 161.38916227 179.96683833 164.45068359 184.64404297 C166.05470345 187.18708616 167.51211041 189.75806628 168.93530273 192.40576172 C180.49202294 213.76639716 192.57992368 234.84518032 205.13842773 255.63232422 C210.20302352 264.01569559 214.75761471 272.55819817 219.13842773 281.31982422 C194.71842773 281.31982422 170.29842773 281.31982422 145.13842773 281.31982422 C137.296945 267.2051553 129.51319568 253.07642171 121.90478516 238.83740234 C121.1776003 237.47748933 120.44938808 236.11812524 119.72021484 234.75927734 C118.65293353 232.77024231 117.58869865 230.7796052 116.52514648 228.78857422 C116.19914963 228.18235229 115.87315277 227.57613037 115.53727722 226.95153809 C114.19105773 224.42414645 113.0464645 222.04393453 112.13842773 219.31982422 C53.06842773 219.64982422 -6.00157227 219.97982422 -66.86157227 220.31982422 C-71.15157227 228.56982422 -75.44157227 236.81982422 -79.86157227 245.31982422 C-81.84157227 248.61982422 -83.82157227 251.91982422 -85.86157227 255.31982422 C-87.23069112 257.97752553 -88.5696707 260.6265379 -89.86157227 263.31982422 C-90.78688651 265.24886917 -91.71995241 267.16341571 -92.72067261 269.05459595 C-93.9133745 271.33466132 -93.9133745 271.33466132 -94.8611145 273.87582397 C-96.23881906 276.88764492 -97.49748273 278.98401215 -99.86157227 281.31982422 C-104.76825036 282.73133705 -109.6115042 282.48775712 -114.66625977 282.29638672 C-116.11495061 282.27771713 -117.56370493 282.26349113 -119.01248169 282.25350952 C-122.81181545 282.21546373 -126.60727844 282.11737954 -130.40509033 282.00646973 C-134.28588486 281.90385965 -138.16731002 281.85843574 -142.04907227 281.80810547 C-149.65499708 281.70110272 -157.25774085 281.53062483 -164.86157227 281.31982422 C-163.92858045 279.43285493 -162.9931132 277.5471095 -162.05664062 275.66186523 C-161.53597519 274.6116066 -161.01530975 273.56134796 -160.47886658 272.47926331 C-157.9914114 267.61993557 -155.21544435 262.94645949 -152.42407227 258.25732422 C-147.28202981 249.53057899 -142.26513213 240.74527231 -137.36157227 231.88232422 C-136.73927734 230.75810059 -136.11698242 229.63387695 -135.47583008 228.47558594 C-134.2229084 226.21038928 -132.97046468 223.94492819 -131.71850586 221.67919922 C-123.99462951 207.70594934 -116.27349919 193.74822149 -107.94287109 180.12475586 C-104.96239405 175.23668806 -102.16408741 170.27578285 -99.44213867 165.23925781 C-86.87126942 142.01984871 -73.74747879 119.09445042 -60.62893677 96.18191528 C-56.27333244 88.57252617 -51.96141013 80.94199408 -47.72802734 73.26391602 C-43.50137661 65.62198445 -39.14721923 58.05297873 -34.80508423 50.47634888 C-30.67193458 43.26277291 -26.56456193 36.03730558 -22.54907227 28.75732422 C-19.03239567 22.38497805 -15.44049383 16.05926346 -11.79907227 9.75732422 C-11.08207153 8.51390259 -11.08207153 8.51390259 -10.35058594 7.24536133 C-9.90948486 6.48489502 -9.46838379 5.72442871 -9.01391602 4.94091797 C-8.62196045 4.26472412 -8.23000488 3.58853027 -7.82617188 2.8918457 C-5.76799592 -0.46239246 -3.85789109 0.128492 0 0 Z " fill="#FDFDFE" transform="translate(2896.861572265625,1657.68017578125)"/>
<path d="M0 0 C3.76210359 -0.11350324 7.51009319 -0.27127317 11.26457691 -0.539855 C35.37702789 -2.22104588 35.37702789 -2.22104588 42.29588795 3.57666111 C46.84860357 9.21507256 49.68180453 15.46183845 52.30189991 22.17405796 C54.43747648 27.32101729 57.28833883 32.03169817 60.10954762 36.82562351 C61.18074039 38.72079367 62.24885699 40.61770878 63.31267262 42.51702976 C66.76974243 48.63346406 70.3091714 54.70050396 73.85954762 60.76312351 C79.20819713 69.8976334 84.45749873 79.07911659 89.60954762 88.32562351 C100.41256704 107.68824058 111.5679103 126.8484973 122.76067066 145.98773289 C126.28118362 152.0180325 129.74221067 158.07641346 133.14055347 164.17620945 C136.52752923 170.23229885 140.0388193 176.21418682 143.54704762 182.20062351 C148.13024855 190.02484149 152.62737247 197.88522729 157.0031023 205.82708836 C161.2321956 213.48866381 165.63331502 221.04750851 170.03337574 228.61175632 C174.96099466 237.09617576 179.85455581 245.60033923 184.7506609 254.10296726 C186.56172514 257.24271616 188.37992905 260.37823572 190.19939137 263.51312351 C191.29462123 265.40885414 192.38968243 267.30468224 193.48454762 269.20062351 C193.99042408 270.06800144 194.49630054 270.93537937 195.0175066 271.82904148 C195.47842701 272.62971043 195.93934742 273.43037937 196.41423512 274.25531101 C197.01727467 275.29534275 197.01727467 275.29534275 197.63249683 276.35638523 C198.60954762 278.32562351 198.60954762 278.32562351 199.60954762 282.32562351 C175.51954762 282.32562351 151.42954762 282.32562351 126.60954762 282.32562351 C122.24993928 274.69630892 118.12583537 267.44892539 114.29314137 259.63812351 C109.8174576 250.83213781 104.85983169 242.2632033 99.96501637 233.68499851 C99.54776295 232.95119968 99.13050953 232.21740086 98.70061207 231.4613657 C97.90492621 230.06392344 97.10542972 228.66864233 96.30168629 227.27581882 C93.60954762 222.54822032 93.60954762 222.54822032 93.60954762 220.32562351 C34.53954762 220.65562351 -24.53045238 220.98562351 -85.39045238 221.32562351 C-92.46700767 234.29930821 -99.49253563 247.22832946 -106.18830395 260.38958836 C-107.10434499 262.18747543 -108.02460637 263.98315849 -108.94513988 265.77874851 C-109.46576 266.80129734 -109.98638012 267.82384617 -110.5227766 268.87738132 C-111.13910961 270.01530125 -111.75544262 271.15322117 -112.39045238 272.32562351 C-112.7303117 273.18324284 -113.07017101 274.04086216 -113.42032909 274.92446995 C-114.80142736 277.93761411 -116.00427345 280.01204762 -118.39045238 282.32562351 C-123.3011278 283.72542651 -128.13960087 283.49358608 -133.19513988 283.30218601 C-134.64383073 283.28351642 -136.09258505 283.26929042 -137.54136181 283.25930882 C-141.34069557 283.22126302 -145.13615856 283.12317884 -148.93397045 283.01226902 C-152.81476498 282.90965894 -156.69619014 282.86423504 -160.57795238 282.81390476 C-168.1838772 282.70690202 -175.78662097 282.53642412 -183.39045238 282.32562351 C-182.27399046 280.07777854 -181.15592877 277.83075351 -180.03693676 275.58416843 C-179.72270763 274.95109524 -179.40847851 274.31802204 -179.08472729 273.66576481 C-176.85940012 269.20229722 -174.49060636 264.8901742 -171.89045238 260.63812351 C-167.46086191 253.24528975 -163.24910126 245.74192054 -159.07795238 238.20062351 C-140.06930516 203.86172545 -140.06930516 203.86172545 -131.48810863 189.87249851 C-129.21229398 186.09397683 -127.12724195 182.21482356 -125.02595043 178.33734226 C-122.13996807 173.02289557 -119.20109167 167.73775611 -116.26545238 162.45062351 C-115.93997417 161.86436192 -115.61449596 161.27810032 -115.27915478 160.67407322 C-110.53899575 152.14037453 -105.741796 143.64136669 -100.87800121 135.17743015 C-97.01400941 128.44492217 -93.2293016 121.67009609 -89.45295238 114.88812351 C-84.38207327 105.78931702 -79.18228498 96.77864043 -73.82819653 87.84344578 C-70.74367526 82.68283339 -67.7996986 77.46647505 -64.93976879 72.17816257 C-62.20191166 67.13733012 -59.3851918 62.14054419 -56.57795238 57.13812351 C-55.65067333 55.48478001 -55.65067333 55.48478001 -54.70466137 53.79803562 C-53.4794182 51.61372557 -52.25392261 49.42955709 -51.0281477 47.24554539 C-49.68552341 44.85171914 -48.34547199 42.45650413 -47.00763988 40.05999851 C-42.541203 32.07016641 -37.99548897 24.12614198 -33.42924023 16.19302464 C-32.73925851 14.99417659 -32.04974078 13.79506137 -31.36069775 12.59567356 C-30.39312878 10.91224254 -29.42309274 9.23023023 -28.45295238 7.54827976 C-27.88705395 6.5660947 -27.32115551 5.58390965 -26.73810863 4.5719614 C-22.76907395 -2.04381543 -7.39793851 0.21787957 0 0 Z " fill="#FDFDFE" transform="translate(2178.3904523849487,1656.674376487732)"/>
<path d="M0 0 C21.45 0 42.9 0 65 0 C65 35.97 65 71.94 65 109 C132.98 109 200.96 109 271 109 C271 73.03 271 37.06 271 0 C292.45 0 313.9 0 336 0 C336 92.73 336 185.46 336 281 C314.22 281 292.44 281 270 281 C270 241.07 270 201.14 270 160 C202.68 160 135.36 160 66 160 C66 199.93 66 239.86 66 281 C44.22 281 22.44 281 0 281 C0 188.27 0 95.54 0 0 Z " fill="#FDFEFE" transform="translate(1568,1658)"/>
<path d="M0 0 C1187.34 0 2374.68 0 3598 0 C3598 3.3 3598 6.6 3598 10 C2410.66 10 1223.32 10 0 10 C0 6.7 0 3.4 0 0 Z " fill="#174B8F" transform="translate(0,3588)"/>
<path d="M0 0 C94.05 0 188.1 0 285 0 C285 16.17 285 32.34 285 49 C212.4 49 139.8 49 65 49 C65 73.42 65 97.84 65 123 C104.27 123 143.54 123 184 123 C184 139.83 184 156.66 184 174 C144.73 174 105.46 174 65 174 C65 209.31 65 244.62 65 281 C43.55 281 22.1 281 0 281 C0 188.27 0 95.54 0 0 Z " fill="#FDFDFE" transform="translate(2470,1658)"/>
<path d="M0 0 C15.324375 -0.0825 30.64875 -0.165 46.4375 -0.25 C51.2423999 -0.28641602 56.0472998 -0.32283203 60.99780273 -0.36035156 C66.95129395 -0.37841797 66.95129395 -0.37841797 69.75502014 -0.3817749 C71.67681098 -0.38784146 73.59858844 -0.40174845 75.52027893 -0.42230225 C91.08541097 -0.58018441 106.5692501 0.18329823 120.5625 7.8125 C121.55141235 8.33287842 121.55141235 8.33287842 122.56030273 8.86376953 C135.50687138 15.89112786 143.30535555 26.72572062 147.53271484 40.76977539 C148.5780839 45.75903681 148.22826936 50.98567863 148.25 56.0625 C148.2809375 57.82883789 148.2809375 57.82883789 148.3125 59.63085938 C148.38033014 74.95199294 144.00505613 87.57404463 133.375 98.74609375 C126.2362551 105.52085659 118.22025715 108.80703767 109 112 C108.09197632 112.32928497 107.18395264 112.65856995 106.24841309 112.99783325 C93.51723009 116.92552592 79.58012436 116.27233968 66.40625 116.1953125 C64.69498831 116.19236205 62.9837248 116.1903278 61.27246094 116.18920898 C55.01494595 116.17883772 48.75746992 116.15091607 42.5 116.125 C28.475 116.08375 14.45 116.0425 0 116 C0 77.72 0 39.44 0 0 Z " fill="#F5E6B7" transform="translate(1966,2022)"/>
<path d="M0 0 C17.9025 -0.061875 35.805 -0.12375 54.25 -0.1875 C62.70028809 -0.22846802 62.70028809 -0.22846802 71.32128906 -0.27026367 C78.24951172 -0.28381348 78.24951172 -0.28381348 81.50238037 -0.28633118 C83.75353784 -0.29091012 86.00468837 -0.30140317 88.25579834 -0.31672668 C91.68400677 -0.33887761 95.11176916 -0.34171163 98.54003906 -0.34057617 C99.52738163 -0.3513705 100.5147242 -0.36216482 101.53198624 -0.37328625 C110.58755554 -0.33348183 121.02687243 0.72418518 128 7 C132.06459497 12.760005 132.58244849 17.11076944 132.49609375 24.0625 C132.49754898 25.01261963 132.49900421 25.96273926 132.50050354 26.94165039 C132.49885033 28.94192586 132.48735422 30.94221482 132.46655273 32.94238281 C132.43758753 35.99078834 132.44595877 39.03745326 132.45898438 42.0859375 C132.45274629 44.03646672 132.4443548 45.98699049 132.43359375 47.9375 C132.43652939 48.84185791 132.43946503 49.74621582 132.44248962 50.67797852 C132.33977398 57.62431262 131.33040359 62.55862481 126.375 67.75 C119.15521611 73.13709488 110.63104421 73.49552899 101.9375 73.6875 C100.88111328 73.72166016 99.82472656 73.75582031 98.73632812 73.79101562 C96.15765843 73.87269295 93.57929438 73.94209943 91 74 C95.72421078 78.19508704 100.49795456 82.26593728 105.5 86.125 C111.42729986 90.73710175 117.26210683 95.45291971 123.07446289 100.20874023 C128.49454603 104.62768264 134.02605953 108.87965936 139.62109375 113.07421875 C142 115 142 115 143 117 C137.52351184 117.2745925 132.0511294 117.47270414 126.56933594 117.60424805 C124.7105523 117.65913593 122.85223401 117.73388405 120.99511719 117.82983398 C103.91329595 118.68944124 103.91329595 118.68944124 97.60717773 113.30641174 C95.24831954 110.98405992 93.12699017 108.53819938 91 106 C89.84960325 104.89898599 88.68208095 103.81497956 87.484375 102.765625 C86.13085938 101.52039062 86.13085938 101.52039062 84.75 100.25 C80.87912154 96.69593264 76.97119145 93.19169925 73 89.75 C69.79386505 86.94463192 66.64582038 84.07505654 63.4921875 81.2109375 C62.66976563 80.48132812 61.84734375 79.75171875 61 79 C60.195625 78.10152344 59.39125 77.20304687 58.5625 76.27734375 C53.76488046 72.30615979 47.01708507 73.21657855 41.125 73.1875 C36.79375 73.125625 32.4625 73.06375 28 73 C28 87.52 28 102.04 28 117 C18.76 117 9.52 117 0 117 C0 78.39 0 39.78 0 0 Z " fill="#F4E5B7" transform="translate(1132,2021)"/>
<path d="M0 0 C1.17011879 -0.00503792 1.17011879 -0.00503792 2.36387634 -0.01017761 C4.92009107 -0.01960666 7.47623971 -0.02162683 10.0324707 -0.02270508 C11.82835414 -0.02592388 13.62423733 -0.02928841 15.42012024 -0.03279114 C19.17819831 -0.03876278 22.93625346 -0.04063313 26.69433594 -0.04003906 C31.47732689 -0.0399377 36.26016853 -0.05357202 41.0431242 -0.07081127 C44.75206661 -0.08200726 48.46097384 -0.08395593 52.16993141 -0.08342934 C53.93153204 -0.08459872 55.69313389 -0.08896096 57.45471764 -0.0967617 C85.70918669 -0.21014506 85.70918669 -0.21014506 92.77075195 6.14526367 C97.81845874 11.4142398 98.89992579 15.06531546 98.83325195 22.33276367 C98.82422852 23.60506836 98.81520508 24.87737305 98.8059082 26.18823242 C98.78850586 27.65196289 98.78850586 27.65196289 98.77075195 29.14526367 C95.52203279 29.81827657 92.27158816 30.48255877 89.02075195 31.14526367 C88.10036133 31.33604492 87.1799707 31.52682617 86.23168945 31.72338867 C84.89750977 31.9940918 84.89750977 31.9940918 83.53637695 32.27026367 C82.31096191 32.52163086 82.31096191 32.52163086 81.06079102 32.77807617 C78.77075195 33.14526367 78.77075195 33.14526367 74.77075195 33.14526367 C74.77075195 29.18526367 74.77075195 25.22526367 74.77075195 21.14526367 C48.04075195 21.14526367 21.31075195 21.14526367 -6.22924805 21.14526367 C-6.22924805 29.39526367 -6.22924805 37.64526367 -6.22924805 46.14526367 C-3.78301025 46.12955322 -1.33677246 46.11384277 1.18359375 46.09765625 C9.30994307 46.04771386 17.43629957 46.01471682 25.56276226 45.98982716 C30.4847959 45.97424081 35.4066709 45.9531326 40.32861328 45.91894531 C45.08783823 45.88609905 49.84691158 45.86835793 54.60624123 45.86063194 C56.41251826 45.85513342 58.21878798 45.84439758 60.02499962 45.8280735 C87.58494754 45.58913652 87.58494754 45.58913652 95.77075195 53.14526367 C101.79986846 61.17103564 101.01467634 70.58329767 101.06591797 80.14770508 C101.07741947 81.63901267 101.09784264 83.13027969 101.12744141 84.62133789 C101.33014724 94.86081372 100.92202976 103.57069061 94.58325195 112.08276367 C87.95068211 116.94664822 80.65907069 117.58959931 72.65209961 117.54931641 C71.68334396 117.55617966 70.71458832 117.56304291 69.71647644 117.57011414 C66.53910333 117.58829743 63.36222804 117.58455637 60.18481445 117.57885742 C57.95958294 117.58342354 55.73435283 117.58873039 53.50912476 117.59474182 C48.85408791 117.60365653 44.19922276 117.60126871 39.54418945 117.59130859 C33.60062932 117.5798261 27.65766395 117.60002831 21.7141819 117.62922573 C17.12086264 117.64763802 12.52768455 117.64728514 7.93433762 117.64158821 C5.74404441 117.64143559 3.55374127 117.64743089 1.36348343 117.65987968 C-23.92853757 117.78338534 -23.92853757 117.78338534 -31.72924805 110.95776367 C-35.97166181 103.00323786 -36.63918269 96.11827746 -36.22924805 87.14526367 C-30.26931273 85.37399318 -24.51004307 83.85209521 -18.29956055 83.35620117 C-15.92078824 83.11383569 -13.5739021 82.61419448 -11.22924805 82.14526367 C-11.22924805 86.76526367 -11.22924805 91.38526367 -11.22924805 96.14526367 C17.15075195 96.14526367 45.53075195 96.14526367 74.77075195 96.14526367 C74.77075195 87.23526367 74.77075195 78.32526367 74.77075195 69.14526367 C72.25345459 69.16097412 69.73615723 69.17668457 67.14257812 69.19287109 C58.79269582 69.24274902 50.44280665 69.27578511 42.09281445 69.30070019 C37.0339636 69.31630564 31.97526637 69.33744968 26.91650391 69.37158203 C22.02761147 69.40435897 17.13886611 69.42215512 12.24987221 69.4298954 C10.39170329 69.43540617 8.53354173 69.44616672 6.67543602 69.46245384 C-16.66663602 69.65877982 -16.66663602 69.65877982 -24.66674805 64.08276367 C-31.83271094 55.86812329 -31.8634968 46.26404319 -31.75073242 35.87670898 C-31.72922078 33.51727298 -31.75064839 31.16085928 -31.77612305 28.80151367 C-31.80607308 13.0014626 -31.80607308 13.0014626 -25.81738281 6.6472168 C-18.44218622 -0.00922564 -9.44791622 -0.00596685 0 0 Z " fill="#F3E4B6" transform="translate(1624.229248046875,2020.854736328125)"/>
<path d="M0 0 C21 0 21 0 27.4375 4.3125 C28.8313011 5.71416457 30.22495381 7.11678004 31.57666016 8.55908203 C34.04422777 11.0571239 36.83843303 13.12327513 39.625 15.25 C40.80018532 16.16706456 41.97464333 17.08506177 43.1484375 18.00390625 C48.29840461 22.01288694 53.45322594 26.01564191 58.60791016 30.01855469 C62.42642604 32.98678714 66.23275862 35.96672117 70 39 C81.20700088 48.01558047 92.6380269 56.75700342 104.07836914 65.47338867 C109.07809248 69.28415722 114.03699149 73.13988227 119 77 C119 51.59 119 26.18 119 0 C127.25 0 135.5 0 144 0 C144 38.28 144 76.56 144 116 C123 116 123 116 118.5625 113.1875 C118.01980469 112.54683594 117.47710938 111.90617187 116.91796875 111.24609375 C114.4052376 108.30348599 111.4356055 106.0842273 108.375 103.75 C107.15670642 102.8005633 105.9392686 101.85002757 104.72265625 100.8984375 C104.10793457 100.41987305 103.49321289 99.94130859 102.85986328 99.44824219 C92.91731456 91.70615778 83.08841944 83.84742019 73.3671875 75.828125 C67.81983669 71.26732929 62.21353256 66.79441797 56.55249023 62.37646484 C53.30739128 59.83659236 50.08987465 57.26811898 46.90234375 54.65625 C45.86436646 53.80595215 45.86436646 53.80595215 44.80541992 52.93847656 C43.48655973 51.85506557 42.17009533 50.76872773 40.85668945 49.67871094 C35.722667 45.46116739 30.49564144 41.84694901 25 38 C25 63.74 25 89.48 25 116 C16.75 116 8.5 116 0 116 C0 77.72 0 39.44 0 0 Z " fill="#F6E6B7" transform="translate(2437,2022)"/>
<path d="M0 0 C1.25049889 -0.00503792 1.25049889 -0.00503792 2.52626038 -0.01017761 C5.25922164 -0.01961132 7.99212116 -0.02162679 10.72509766 -0.02270508 C12.64026921 -0.02592257 14.55544052 -0.02928701 16.47061157 -0.03279114 C20.47667002 -0.0387632 24.48270695 -0.04063298 28.48876953 -0.04003906 C33.60162678 -0.03993747 38.71434507 -0.05359544 43.82716942 -0.07081127 C47.78047306 -0.08197237 51.73374353 -0.08395702 55.68706131 -0.08342934 C57.57115788 -0.08460303 59.45525549 -0.08899024 61.3393364 -0.0967617 C89.79417942 -0.20316194 89.79417942 -0.20316194 98.07666016 7.89526367 C102.64564602 14.68347124 102.53016471 21.14854571 102.38916016 29.08276367 C102.38013672 30.0527832 102.37111328 31.02280273 102.36181641 32.0222168 C102.33842122 34.39682774 102.30564192 36.77091143 102.26416016 39.14526367 C98.74524139 39.82230778 95.22376439 40.48500854 91.70166016 41.14526367 C90.71101563 41.33604492 89.72037109 41.52682617 88.69970703 41.72338867 C87.7296875 41.90385742 86.75966797 42.08432617 85.76025391 42.27026367 C84.43272095 42.52163086 84.43272095 42.52163086 83.07836914 42.77807617 C80.26416016 43.14526367 80.26416016 43.14526367 73.26416016 43.14526367 C73.26416016 36.21526367 73.26416016 29.28526367 73.26416016 22.14526367 C48.18416016 22.14526367 23.10416016 22.14526367 -2.73583984 22.14526367 C-2.73583984 46.23526367 -2.73583984 70.32526367 -2.73583984 95.14526367 C22.34416016 95.14526367 47.42416016 95.14526367 73.26416016 95.14526367 C73.26416016 86.89526367 73.26416016 78.64526367 73.26416016 70.14526367 C80.20835833 71.40784516 87.07822612 72.7094334 93.95166016 74.27026367 C94.76054687 74.45202148 95.56943359 74.6337793 96.40283203 74.82104492 C98.35705763 75.26045659 100.31067763 75.70256026 102.26416016 76.14526367 C102.35232921 79.7909408 102.40493964 83.43633842 102.45166016 87.08276367 C102.47679688 88.1043457 102.50193359 89.12592773 102.52783203 90.1784668 C102.60218798 97.93627129 101.42081297 104.10153965 97.76416016 110.95776367 C88.00708038 119.49520848 73.90571095 117.71142201 61.81494141 117.64135742 C59.6302231 117.64151261 57.44550453 117.64300493 55.26078796 117.64576721 C50.69920569 117.64714641 46.13793967 117.63467036 41.57641602 117.61181641 C35.74253897 117.58338283 29.9091848 117.58618944 24.07526875 117.59890652 C19.57042506 117.60587378 15.06570139 117.59806322 10.56087303 117.58564949 C8.40997974 117.58114877 6.25907351 117.58078607 4.10817909 117.58471489 C1.10041661 117.58763867 -1.90663431 117.57106581 -4.91430664 117.54931641 C-5.79398605 117.55381805 -6.67366547 117.5583197 -7.58000183 117.56295776 C-14.05503718 117.48551216 -19.7363813 116.5019811 -24.97802734 112.38354492 C-25.51685547 111.74803711 -26.05568359 111.1125293 -26.61083984 110.45776367 C-27.16513672 109.83514648 -27.71943359 109.2125293 -28.29052734 108.57104492 C-31.63165633 102.96336627 -31.98814079 96.73374831 -32.01049805 90.34326172 C-32.01560898 89.60873779 -32.02071991 88.87421387 -32.02598572 88.11743164 C-32.03976892 85.71386327 -32.03893325 83.31058537 -32.03662109 80.90698242 C-32.04051478 79.21840816 -32.04485083 77.52983487 -32.04960632 75.84126282 C-32.05704476 72.31015848 -32.05679498 68.77915416 -32.05151367 65.24804688 C-32.04572834 60.7494947 -32.06263889 56.25135551 -32.08585835 51.75287151 C-32.10067732 48.26703037 -32.10145624 44.78128676 -32.09834862 41.29541969 C-32.09885794 39.63822425 -32.10402157 37.98102277 -32.11416054 36.32385826 C-32.23173056 14.41880527 -32.23173056 14.41880527 -26.48583984 6.64526367 C-19.02745537 -0.13508585 -9.52992204 -0.00561586 0 0 Z " fill="#F2E3B6" transform="translate(2717.73583984375,2020.854736328125)"/>
<path d="M0 0 C41.58 0 83.16 0 126 0 C126 6.93 126 13.86 126 21 C93.99 21 61.98 21 29 21 C29 29.58 29 38.16 29 47 C47.48 47 65.96 47 85 47 C85 53.27 85 59.54 85 66 C66.19 66 47.38 66 28 66 C28 75.9 28 85.8 28 96 C60.67 96 93.34 96 127 96 C127 102.93 127 109.86 127 117 C85.09 117 43.18 117 0 117 C0 78.39 0 39.78 0 0 Z " fill="#F4E5B6" transform="translate(1367,2021)"/>
<path d="M0 0 C41.25 0 82.5 0 125 0 C125 6.93 125 13.86 125 21 C92.99 21 60.98 21 28 21 C28 29.58 28 38.16 28 47 C46.81 47 65.62 47 85 47 C85 53.27 85 59.54 85 66 C66.19 66 47.38 66 28 66 C28 75.9 28 85.8 28 96 C60.67 96 93.34 96 127 96 C127 102.93 127 109.86 127 117 C85.09 117 43.18 117 0 117 C0 78.39 0 39.78 0 0 Z " fill="#F4E5B7" transform="translate(2213,2021)"/>
<path d="M0 0 C41.25 0 82.5 0 125 0 C125 6.93 125 13.86 125 21 C92.99 21 60.98 21 28 21 C28 29.58 28 38.16 28 47 C46.48 47 64.96 47 84 47 C84 53.27 84 59.54 84 66 C65.52 66 47.04 66 28 66 C28 75.9 28 85.8 28 96 C60.34 96 92.68 96 126 96 C126 102.93 126 109.86 126 117 C84.42 117 42.84 117 0 117 C0 78.39 0 39.78 0 0 Z " fill="#F5E5B7" transform="translate(2923,2021)"/>
<path d="M0 0 C2.65798139 2.37408615 4.10737615 4.82113794 5.71484375 7.98828125 C6.22974365 8.99294434 6.74464355 9.99760742 7.27514648 11.03271484 C7.82372314 12.11504395 8.3722998 13.19737305 8.9375 14.3125 C13.16774118 22.56008052 17.45968644 30.75910439 21.9375 38.875 C26.42065609 47.01881717 30.74231508 55.23617828 35 63.5 C39.38598186 72.01112338 43.83792985 80.47721157 48.4375 88.875 C48.92895508 89.77259033 49.42041016 90.67018066 49.92675781 91.5949707 C52.04178303 95.45022942 54.16621977 99.3000608 56.30078125 103.14453125 C56.95059868 104.325478 57.60034513 105.50646381 58.25 106.6875 C58.79140625 107.66074219 59.3328125 108.63398437 59.890625 109.63671875 C61 112 61 112 61 115 C20.41 115 -20.18 115 -62 115 C-60.67370343 111.68425858 -59.38904372 108.6830621 -57.75 105.55078125 C-57.31212158 104.71289062 -56.87424316 103.875 -56.4230957 103.01171875 C-55.95347412 102.12097656 -55.48385254 101.23023438 -55 100.3125 C-54.50653076 99.3740625 -54.01306152 98.435625 -53.50463867 97.46875 C-49.72069547 90.30210826 -45.82768415 83.2029869 -41.8671875 76.1328125 C-39.60603392 72.09492095 -37.36588188 68.04565874 -35.1328125 63.9921875 C-34.79167923 63.37296921 -34.45054596 62.75375092 -34.09907532 62.11576843 C-33.04509755 60.20224465 -31.99128299 58.28863105 -30.9375 56.375 C-26.62281749 48.53982413 -22.29354806 40.71476802 -17.875 32.9375 C-14.91454443 27.72275258 -12.18477017 22.42575533 -9.55078125 17.0390625 C-6.58993057 11.23669014 -3.2794419 5.62665667 0 0 Z " fill="#0C3F83" transform="translate(2920,1712)"/>
<path d="M0 0 C3.68116161 1.23380705 4.95588404 3.20799464 6.68743896 6.59393311 C6.99167786 7.21777893 7.29591675 7.84162476 7.609375 8.484375 C8.10513031 9.4624411 8.10513031 9.4624411 8.61090088 10.46026611 C9.66850953 12.55140585 10.70994074 14.65008462 11.75 16.75 C13.11433149 19.47672318 14.4854489 22.1999752 15.859375 24.921875 C16.19829773 25.59557129 16.53722046 26.26926758 16.88641357 26.96337891 C19.80391594 32.71786507 22.96493939 38.30625889 26.22265625 43.87402344 C28.01846413 47.03247454 29.65328845 50.23698531 31.25 53.5 C34.30639136 59.7246872 37.59352471 65.80041376 40.9375 71.875 C44.87513752 79.028913 48.67334297 86.2189297 52.25561523 93.55688477 C54.81858871 98.76239338 57.69862713 103.70648363 60.75 108.64453125 C62 111 62 111 62 114 C21.41 114 -19.18 114 -61 114 C-59.4385514 109.31565421 -57.91109893 105.73933763 -55.55078125 101.4921875 C-55.21507614 100.88545197 -54.87937103 100.27871643 -54.53349304 99.65359497 C-53.46452072 97.72474767 -52.38849798 95.79993496 -51.3125 93.875 C-50.60959295 92.60701082 -49.90711562 91.33878332 -49.20507812 90.0703125 C-45.93094492 84.16873663 -42.60812644 78.30273814 -39.1875 72.484375 C-36.85332287 68.50561113 -34.68070892 64.53333883 -32.6875 60.375 C-28.92383783 52.68763409 -24.75056305 45.24630343 -20.56152344 37.78466797 C-17.74085172 32.75455828 -14.93362443 27.71697799 -12.12915039 22.67782593 C-11.14689821 20.91431549 -10.16234226 19.15208886 -9.17773438 17.38989258 C-5.98249321 11.65248595 -2.87337471 5.90557918 0 0 Z " fill="#0B3D81" transform="translate(2182,1713)"/>
<path d="M0 0 C10.10625 -0.103125 20.2125 -0.20625 30.625 -0.3125 C33.78658691 -0.35802002 36.94817383 -0.40354004 40.20556641 -0.45043945 C42.75422103 -0.46506327 45.30288747 -0.47779943 47.8515625 -0.48828125 C49.14022217 -0.51386108 50.42888184 -0.53944092 51.7565918 -0.5657959 C63.28043611 -0.5712471 73.48664704 1.83687299 82.625 9.125 C90.50291983 17.09361956 91.3677451 25.19198531 91.5 36 C91.39245181 47.03517931 89.97566106 56.09490773 82.015625 64.2890625 C66.73255762 77.26189877 44.09138442 75.5100486 25.4375 75.25 C17.043125 75.1675 8.64875 75.085 0 75 C0 50.25 0 25.5 0 0 Z " fill="#093B7E" transform="translate(1994,2042)"/>
<path d="M0 0 C7.26 0 14.52 0 22 0 C22 10.89 22 21.78 22 33 C43.78 33 65.56 33 88 33 C88 22.11 88 11.22 88 0 C94.93 0 101.86 0 109 0 C109 29.04 109 58.08 109 88 C102.07 88 95.14 88 88 88 C88 75.79 88 63.58 88 51 C66.22 51 44.44 51 22 51 C22 63.21 22 75.42 22 88 C14.74 88 7.48 88 0 88 C0 58.96 0 29.92 0 0 Z " fill="#F7F8FA" transform="translate(2006,1496)"/>
<path d="M0 0 C31.02 0 62.04 0 94 0 C94 5.28 94 10.56 94 16 C69.91 16 45.82 16 21 16 C21 22.27 21 28.54 21 35 C34.86 35 48.72 35 63 35 C63 39.95 63 44.9 63 50 C49.14 50 35.28 50 21 50 C21 56.93 21 63.86 21 71 C45.42 71 69.84 71 95 71 C95 76.61 95 82.22 95 88 C63.65 88 32.3 88 0 88 C0 58.96 0 29.92 0 0 Z " fill="#F7F8FA" transform="translate(2155,1496)"/>
<path d="M0 0 C9.24 0 18.48 0 28 0 C28 38.28 28 76.56 28 116 C18.76 116 9.52 116 0 116 C0 77.72 0 39.44 0 0 Z " fill="#F6E6B7" transform="translate(1830,2022)"/>
<path d="M0 0 C35.31 0 70.62 0 107 0 C107 5.28 107 10.56 107 16 C92.81 16 78.62 16 64 16 C64 39.76 64 63.52 64 88 C57.07 88 50.14 88 43 88 C43 64.24 43 40.48 43 16 C28.81 16 14.62 16 0 16 C0 10.72 0 5.44 0 0 Z " fill="#F8F9FB" transform="translate(1872,1496)"/>
<path d="M0 0 C17.4785278 -0.12032643 17.4785278 -0.12032643 24.9453125 -0.14648438 C30.034601 -0.16439804 35.12372713 -0.18556001 40.21289062 -0.22631836 C44.31721651 -0.25898252 48.42136819 -0.27686786 52.52581406 -0.28463173 C54.08947363 -0.2901626 55.65312398 -0.30096312 57.21670914 -0.31719017 C59.41177002 -0.33905886 61.60611674 -0.34196308 63.80126953 -0.34057617 C65.04925323 -0.34723801 66.29723694 -0.35389984 67.58303833 -0.36076355 C71.38129176 0.04025687 73.78837371 0.9517343 77 3 C78.52680029 7.58040086 78.26639155 12.1391474 78.3125 16.9375 C78.35600586 18.44086914 78.35600586 18.44086914 78.40039062 19.97460938 C78.46440173 27.35558275 78.46440173 27.35558275 76.10546875 30.62890625 C72.22990471 33.15269656 69.81594808 33.12163057 65.16357422 33.11352539 C64.46102509 33.11367142 63.75847595 33.11381744 63.03463745 33.1139679 C60.70795627 33.11327014 58.38135473 33.10548419 56.0546875 33.09765625 C54.44328861 33.09579158 52.83188916 33.09436791 51.2204895 33.09336853 C46.97571248 33.0895472 42.73096958 33.07972018 38.48620605 33.06866455 C33.395103 33.05664544 28.30398854 33.05204636 23.21287537 33.04621124 C15.4752265 33.03650823 7.73765253 33.017349 0 33 C0 22.11 0 11.22 0 0 Z " fill="#08397C" transform="translate(1160,2041)"/>
<path d="M0 0 C3.3 0.33 6.6 0.66 10 1 C10 4.3 10 7.6 10 11 C6.7 11 3.4 11 0 11 C0 7.37 0 3.74 0 0 Z " fill="#093671" transform="translate(210,3477)"/>
<path d="M0 0 C3.63 0 7.26 0 11 0 C10.67 3.3 10.34 6.6 10 10 C6.7 10 3.4 10 0 10 C0 6.7 0 3.4 0 0 Z " fill="#0C4590" transform="translate(2140,0)"/>
<path d="M0 0 C3.3 0 6.6 0 10 0 C10 3.3 10 6.6 10 10 C6.7 10 3.4 10 0 10 C0 6.7 0 3.4 0 0 Z " fill="#093672" transform="translate(250,3518)"/>
<path d="M0 0 C3.3 0 6.6 0 10 0 C10 3.3 10 6.6 10 10 C6.7 10 3.4 10 0 10 C0 6.7 0 3.4 0 0 Z " fill="#093671" transform="translate(230,3498)"/>
<path d="M0 0 C3.3 0 6.6 0 10 0 C10 3.3 10 6.6 10 10 C6.7 10 3.4 10 0 10 C0 6.7 0 3.4 0 0 Z " fill="#07346C" transform="translate(99,3367)"/>
<path d="M0 0 C3.3 0 6.6 0 10 0 C10 3.3 10 6.6 10 10 C6.7 10 3.4 10 0 10 C0 6.7 0 3.4 0 0 Z " fill="#083370" transform="translate(49,3317)"/>
<path d="M0 0 C3.3 0 6.6 0 10 0 C10 3.3 10 6.6 10 10 C6.7 10 3.4 10 0 10 C0 6.7 0 3.4 0 0 Z " fill="#083071" transform="translate(944,241)"/>
<path d="M0 0 C3.3 0 6.6 0 10 0 C10 3.3 10 6.6 10 10 C6.7 10 3.4 10 0 10 C0 6.7 0 3.4 0 0 Z " fill="#0B4391" transform="translate(2371,231)"/>
<path d="M0 0 C3.3 0 6.6 0 10 0 C10 3.3 10 6.6 10 10 C6.7 10 3.4 10 0 10 C0 6.7 0 3.4 0 0 Z " fill="#083071" transform="translate(773,70)"/>
<path d="M0 0 C3.3 0 6.6 0 10 0 C10 3.3 10 6.6 10 10 C6.7 10 3.4 10 0 10 C0 6.7 0 3.4 0 0 Z " fill="#0B4492" transform="translate(2190,50)"/>
<path d="M0 0 C3.3 0 6.6 0 10 0 C10 3.3 10 6.6 10 10 C6.7 10 3.4 10 0 10 C0 6.7 0 3.4 0 0 Z " fill="#0B4593" transform="translate(2180,40)"/>
<path d="M0 0 C4.875 2.75 4.875 2.75 6 5 C-7.2 5 -20.4 5 -34 5 C-34 4.67 -34 4.34 -34 4 C-22.12 4 -10.24 4 2 4 C2 3.34 2 2.68 2 2 C1.34 2 0.68 2 0 2 C0 1.34 0 0.68 0 0 Z " fill="#E9DCB4" transform="translate(1269,2133)"/>
</svg>
