<?xml version="1.0" encoding="UTF-8"?>
<svg version="1.1" xmlns="http://www.w3.org/2000/svg" width="3979" height="3979">
<path d="M0 0 C1.76749051 0.96357255 3.53491953 1.92725789 5.30232239 2.89099121 C6.28656598 3.42763145 7.27080957 3.9642717 8.28487873 4.51717377 C23.6419444 12.9042245 38.82186441 21.59514067 53.91796875 30.44140625 C69.84365408 39.77235975 85.86887655 48.93170651 101.90216064 58.07608032 C110.98795878 63.25985125 120.03821041 68.50194021 129.06738281 73.78369141 C139.58374555 79.93362132 150.13930184 86.01500913 160.69580078 92.09570312 C164.02614252 94.01506662 167.35509148 95.93682353 170.68359375 97.859375 C180.75651973 103.67690561 190.8339362 109.48581145 200.9375 115.25 C213.60261089 122.47680206 226.21758888 129.78784216 238.80737305 137.14501953 C248.20449608 142.63596082 257.62281218 148.08495285 267.08129883 153.46948242 C273.60065867 157.18635546 280.08587982 160.95922231 286.5625 164.75 C295.34385527 169.88863442 304.16014202 174.96297967 313 180 C322.71754256 185.5377331 332.40141257 191.12971941 342.0559082 196.77685547 C357.19371457 205.62850642 372.38994374 214.37939017 387.625 223.0625 C396.0178526 227.84684306 404.36785908 232.70199371 412.70751953 237.57836914 C421.21284636 242.5489882 429.74415899 247.47358976 438.28125 252.3894043 C445.59986148 256.60667765 452.89795827 260.85771938 460.1875 265.125 C468.85817595 270.19802638 477.58026187 275.17123006 486.33642578 280.0949707 C494.48974989 284.6889934 502.5758321 289.39362865 510.65234375 294.12109375 C515.75384053 297.10700919 520.86123595 300.0786905 526 303 C532.21608437 306.53478431 538.38939687 310.14075137 544.5625 313.75 C555.66724408 320.23966192 566.82176225 326.63798583 578 333 C589.93995721 339.79554136 601.84648696 346.64302776 613.70629883 353.57763672 C622.21570001 358.55068987 630.75133183 363.47729648 639.29223633 368.39599609 C646.50168269 372.55081072 653.69303788 376.73538971 660.875 380.9375 C669.51276678 385.98847023 678.18319729 390.98024404 686.875 395.9375 C704.36358186 405.91222192 721.81050835 415.95689032 739.1875 426.125 C746.92174871 430.64992765 754.69015354 435.10687811 762.5 439.5 C771.31503254 444.45854977 780.06910857 449.5131408 788.79760742 454.62231445 C796.28669378 459.00514926 803.79419674 463.35498365 811.3125 467.6875 C812.40908936 468.31954346 813.50567871 468.95158691 814.63549805 469.6027832 C816.77047106 470.83323435 818.90547969 472.06362369 821.04052734 473.29394531 C830.21349862 478.58191127 839.38039835 483.88028804 848.51953125 489.2265625 C859.41954943 495.60213073 870.34362037 501.93134066 881.3125 508.1875 C881.90944672 508.5279837 882.50639343 508.86846741 883.12142944 509.2192688 C883.71452911 509.55755707 884.30762878 509.89584534 884.91870117 510.24438477 C896.54507607 516.8762134 908.13659485 523.56567919 919.6875 530.328125 C930.6483327 536.74250584 941.64225189 543.08678445 952.70825195 549.31811523 C966.90934395 557.31939951 980.97244246 565.55842192 995.046875 573.77978516 C999.92991187 576.63111862 1004.81669102 579.47547982 1009.71484375 582.30078125 C1010.59849609 582.81060547 1011.48214844 583.32042969 1012.39257812 583.84570312 C1014.05322685 584.80283835 1015.71465061 585.7586305 1017.37695312 586.71289062 C1022.89073893 589.89073893 1022.89073893 589.89073893 1024 591 C1024.09894772 593.69912352 1024.13176043 596.37267523 1024.12304783 599.07228947 C1024.12420167 599.93282552 1024.12535552 600.79336157 1024.12654433 601.67997447 C1024.12921871 604.60128942 1024.12468212 607.52255069 1024.12025452 610.44386292 C1024.12069005 612.54424949 1024.12156463 614.64463601 1024.12284368 616.74502224 C1024.12509214 622.54617082 1024.12106259 628.34730114 1024.11606562 634.14844739 C1024.11176631 640.39320526 1024.11320717 646.63796202 1024.1139679 652.88272095 C1024.11449346 663.71196864 1024.11137799 674.54120894 1024.10573006 685.37045479 C1024.09981957 696.73214305 1024.09596543 708.09382893 1024.09487724 719.45551872 C1024.0948085 720.16110049 1024.09473976 720.86668227 1024.09466894 721.5936453 C1024.09433062 725.1767192 1024.09402923 728.7597931 1024.09374207 732.34286701 C1024.09163985 757.74314669 1024.08489745 783.14342325 1024.07543945 808.54370117 C1024.06625988 833.22469059 1024.05917389 857.90567914 1024.05493164 882.58666992 C1024.05480011 883.34701285 1024.05466859 884.10735579 1024.05453308 884.89073942 C1024.05321459 892.52619035 1024.05193877 900.16164129 1024.05069422 907.79709224 C1024.04815778 923.35235333 1024.04533653 938.90761436 1024.04234314 954.46287537 C1024.04220585 955.17813194 1024.04206856 955.89338851 1024.04192711 956.63031952 C1024.03272142 1004.42021435 1024.01685489 1052.21010733 1024 1100 C1020.70926709 1099.23999116 1018.18893891 1098.12636122 1015.24609375 1096.4453125 C1014.31933838 1095.91881104 1013.39258301 1095.39230957 1012.43774414 1094.84985352 C1010.95262329 1093.99605103 1010.95262329 1093.99605103 1009.4375 1093.125 C1008.40681396 1092.53710693 1007.37612793 1091.94921387 1006.31420898 1091.34350586 C1003.20612225 1089.56810689 1000.1023295 1087.78543677 997 1086 C995.73784668 1085.27466064 995.73784668 1085.27466064 994.45019531 1084.53466797 C987.02309823 1080.26215703 979.6205385 1075.94785156 972.22265625 1071.625 C970.19014009 1070.43743851 968.15758746 1069.24993944 966.125 1068.0625 C965.10801025 1067.46832275 964.09102051 1066.87414551 963.04321289 1066.26196289 C955.69341226 1061.97355521 948.3137111 1057.74035062 940.91870117 1053.53051758 C934.39934049 1049.81364406 927.91416011 1046.04071045 921.4375 1042.25 C912.10893098 1036.79231017 902.74150223 1031.40519418 893.35272217 1026.05200195 C884.74181562 1021.14232394 876.14510397 1016.20907868 867.5625 1011.25 C859.7402552 1006.73036325 851.90978221 1002.22603023 844.0625 997.75 C831.3973178 990.52332582 818.78240915 983.21215669 806.19262695 975.85498047 C796.8006041 970.36701932 787.38748832 964.92082232 777.93408203 959.53930664 C771.26371377 955.73637944 764.62775682 951.87664243 758 948 C747.04190714 941.59221992 736.0321638 935.27917624 725 929 C714.39806904 922.96496541 703.80754113 916.91675261 693.30273438 910.71386719 C681.42899412 903.70467433 669.47543305 896.8336693 657.5 890 C644.68917558 882.6895707 631.92746806 875.29692575 619.19262695 867.85498047 C610.65058029 862.86367871 602.09747676 857.89529632 593.5 853 C586.07772217 848.77376696 578.68604705 844.49818904 571.3125 840.1875 C555.05122616 830.68188218 538.7394864 821.26432035 522.375 811.9375 C513.98072465 807.1523459 505.62960465 802.29586873 497.28808594 797.41943359 C486.64151889 791.19845167 475.95843674 785.04137983 465.2734375 778.88671875 C462.0352484 777.0203162 458.79860562 775.15126237 455.5625 773.28125 C443.75882839 766.46178895 431.93720674 759.67532854 420.09527588 752.92263794 C411.06183724 747.76957279 402.06722152 742.55309781 393.09301758 737.29760742 C384.67718735 732.37666991 376.21453924 727.54044645 367.74435425 722.71398926 C360.15677381 718.38940687 352.59501527 714.0267102 345.08056641 709.57617188 C339.73011733 706.41316275 334.33889346 703.32507797 328.9375 700.25 C321.26338811 695.88095242 313.62220376 691.45897391 306 687 C298.52259346 682.62618596 291.02834604 678.28555339 283.5 674 C276.11759783 669.79744103 268.76886009 665.54095596 261.4375 661.25 C252.69595454 656.13574897 243.92268839 651.07940494 235.125 646.0625 C217.74181302 636.14828932 200.3993663 626.1653479 183.125 616.0625 C174.34234533 610.92644036 165.52513243 605.85312791 156.6875 600.8125 C156.08991882 600.47165375 155.49233765 600.1308075 154.87664795 599.77963257 C153.98710419 599.27226059 153.98710419 599.27226059 153.07958984 598.75463867 C138.18144409 590.25655768 123.36024843 581.62977744 108.54980469 572.97998047 C102.30558381 569.33601293 96.04238227 565.73012582 89.7578125 562.15625 C84.77482943 559.3088311 79.82860964 556.39808715 74.875 553.5 C65.84218093 548.21800616 56.77694243 542.99614327 47.6875 537.8125 C39.67884504 533.2441435 31.67038136 528.67581524 23.6875 524.0625 C23.01485107 523.67489502 22.34220215 523.28729004 21.64916992 522.88793945 C20.31116616 522.11318609 18.98517708 521.31728993 17.6723972 520.50052446 C14.89499384 518.87092456 14.89499384 518.87092456 11.3293609 517.48409516 C1.33660218 513.04534866 1.33660218 513.04534866 -0.86873429 508.02065353 C-2.28788779 501.96102119 -1.94573655 495.7352243 -1.80381775 489.55613708 C-1.81036146 487.44469185 -1.82350003 485.33325851 -1.84265524 483.22189003 C-1.87618257 477.42585773 -1.81623657 471.63398654 -1.74098432 465.83848464 C-1.67619622 459.58705311 -1.69812845 453.33585555 -1.70951843 447.08418274 C-1.71738344 436.25492902 -1.67085404 425.42734661 -1.58595085 414.59850883 C-1.4971497 403.24336761 -1.43945308 391.88876726 -1.42315865 380.53328133 C-1.42212755 379.82686313 -1.42109646 379.12044492 -1.42003412 378.39262011 C-1.41495901 374.80497832 -1.4104383 371.21733606 -1.40613098 367.62969328 C-1.37463688 342.22794 -1.27361169 316.82689276 -1.1315918 291.42553711 C-0.99379366 266.75077058 -0.88755552 242.07619735 -0.82397461 217.40112305 C-0.82200172 216.64033827 -0.82002882 215.87955349 -0.81799615 215.09571462 C-0.7982181 207.45549867 -0.77908092 199.81528122 -0.76041326 192.17506247 C-0.72237156 176.61149475 -0.68005278 161.04793963 -0.63514709 145.48439026 C-0.63308775 144.76882652 -0.6310284 144.05326278 -0.62890664 143.31601529 C-0.4909306 95.54371017 -0.25294425 47.77182023 0 0 Z " fill="#C4A44A" transform="translate(1477,921)"/>
<path d="M0 0 C0.15403435 48.72774934 0.2973239 97.45551608 0.38108826 146.18344116 C0.38295203 147.26487708 0.38295203 147.26487708 0.38485345 148.36816019 C0.41178836 164.03574725 0.43672018 179.7033369 0.45958797 195.37093041 C0.47081419 203.0540909 0.48248315 210.73725069 0.49438477 218.42041016 C0.49615001 219.56727251 0.49615001 219.56727251 0.49795092 220.73730381 C0.53631687 245.52839026 0.60392876 270.31929235 0.68667499 295.11026706 C0.77153907 320.58196355 0.82696213 346.05355798 0.84523491 371.52539346 C0.84782838 375.12144558 0.85075911 378.71749735 0.85389519 382.31354904 C0.85450199 383.02131755 0.8551088 383.72908606 0.855734 384.4583021 C0.86637785 395.86073861 0.90814246 407.26285991 0.96148831 418.66516777 C1.01443114 430.12285179 1.03399313 441.58010004 1.0215124 453.03792484 C1.01573038 459.24849871 1.02478028 465.45814587 1.07284927 471.66855621 C1.1165056 477.35016298 1.11895359 483.03021615 1.08809005 488.71189301 C1.08427329 490.77123667 1.09581343 492.83067555 1.12394864 494.88983054 C1.32256065 510.3182882 1.32256065 510.3182882 -1.96889699 514.50356555 C-4.28979391 516.08730937 -6.35854148 517.07498827 -9 518 C-10.00546875 518.59651367 -11.0109375 519.19302734 -12.046875 519.80761719 C-12.93890625 520.29907227 -13.8309375 520.79052734 -14.75 521.296875 C-15.76118896 521.85753662 -16.77237793 522.41819824 -17.81420898 522.99584961 C-18.86552002 523.57471924 -19.91683105 524.15358887 -21 524.75 C-28.18892621 528.74175824 -35.36636563 532.73998644 -42.4375 536.9375 C-49.40769907 541.07318011 -56.41504378 545.14115132 -63.4375 549.1875 C-64.54327393 549.82478027 -65.64904785 550.46206055 -66.78833008 551.11865234 C-70.1919253 553.0796138 -73.59591889 555.03988215 -77 557 C-89.68347618 564.30469788 -102.36249179 571.61598343 -115 579 C-126.54729516 585.74701194 -138.12902027 592.43339318 -149.71777344 599.10888672 C-155.14659942 602.23680148 -160.57319281 605.36858448 -166 608.5 C-168.16665583 609.75001879 -170.3333225 611.00001878 -172.5 612.25 C-174.10875 613.178125 -174.10875 613.178125 -175.75 614.125 C-263.49999999 664.74999999 -263.49999999 664.74999999 -266.75048828 666.62524414 C-268.91557071 667.87435518 -271.08060982 669.12354129 -273.24560547 670.37280273 C-278.68615706 673.51202309 -284.12747216 676.64990563 -289.5703125 679.78515625 C-300.02206199 685.80747329 -310.46299548 691.84669337 -320.875 697.9375 C-330.14563931 703.35958699 -339.45936699 708.70324012 -348.79046631 714.02023315 C-356.88707929 718.63484077 -364.95783749 723.29093425 -373 728 C-381.59517466 733.03189893 -390.22320217 738.00374921 -398.875 742.9375 C-416.25817722 752.85172571 -433.6006814 762.83457154 -450.875 772.9375 C-460.1456967 778.35949017 -469.45936595 783.70323953 -478.79046631 789.02023315 C-487.85894455 794.18874854 -496.88820902 799.42104651 -505.89550781 804.69555664 C-514.96403392 809.99760949 -524.08244798 815.21032167 -533.2109375 820.40820312 C-534.31179688 821.03533203 -535.41265625 821.66246094 -536.546875 822.30859375 C-537.61744141 822.91300293 -538.68800781 823.51741211 -539.79101562 824.14013672 C-541.99252112 825.41608535 -544.1676657 826.73829598 -546.31835938 828.09814453 C-547.37345703 828.7579834 -548.42855469 829.41782227 -549.515625 830.09765625 C-550.45180664 830.70230713 -551.38798828 831.30695801 -552.35253906 831.92993164 C-555 833 -555 833 -557.52319336 832.35424805 C-558.34053955 831.90734619 -559.15788574 831.46044434 -560 831 C-560.81895752 830.57428711 -561.63791504 830.14857422 -562.48168945 829.70996094 C-563.35011475 829.22301758 -564.21854004 828.73607422 -565.11328125 828.234375 C-566.59526001 827.40498413 -566.59526001 827.40498413 -568.10717773 826.55883789 C-569.16493408 825.96192139 -570.22269043 825.36500488 -571.3125 824.75 C-572.42117432 824.12665771 -573.52984863 823.50331543 -574.67211914 822.86108398 C-584.13688203 817.5226921 -593.52809018 812.06189535 -602.90234375 806.56640625 C-609.25046576 802.84665111 -615.62359649 799.17100419 -622 795.5 C-630.45368565 790.63154347 -638.89111419 785.73660994 -647.3125 780.8125 C-657.32097255 774.96300042 -667.37120329 769.19017216 -677.4453125 763.45458984 C-699.29875897 751.01165846 -721.09187016 738.46592387 -742.80395508 725.77783203 C-748.92066027 722.20554982 -755.05734437 718.67334488 -761.21484375 715.171875 C-766.35275014 712.23592849 -771.45404904 709.23677492 -776.5625 706.25 C-787.66724694 699.76033641 -798.82189179 693.36224341 -810 687 C-820.3896744 681.08579016 -830.76853613 675.16095313 -841.05566406 669.06982422 C-848.60623401 664.61481276 -856.23000174 660.28798844 -863.84677124 655.94763184 C-871.73407195 651.45199238 -879.59657062 646.9192218 -887.40991211 642.29589844 C-891.44118718 639.91169726 -895.49108786 637.56540284 -899.5625 635.25 C-905.92421819 631.631408 -912.2445776 627.94445853 -918.5625 624.25 C-926.18600899 619.79341654 -933.82569232 615.36853116 -941.5 611 C-950.03924701 606.13901027 -958.5338199 601.20478637 -967.01025391 596.23510742 C-972.02413574 593.300202 -977.05157225 590.39561907 -982.1171875 587.55078125 C-983.0865625 587.00486328 -984.0559375 586.45894531 -985.0546875 585.89648438 C-986.89242388 584.8643485 -988.7334301 583.83800648 -990.578125 582.81835938 C-991.39539062 582.35880859 -992.21265625 581.89925781 -993.0546875 581.42578125 C-994.12952393 580.82890503 -994.12952393 580.82890503 -995.22607422 580.2199707 C-997 579 -997 579 -999 576 C-987.1064289 568.90662405 -975.15910497 561.91476488 -963.125 555.0625 C-954.34890023 550.06498629 -945.5923702 545.03710369 -936.875 539.9375 C-925.37128208 533.2079014 -913.83076629 526.5434426 -902.28222656 519.89111328 C-896.85340062 516.76319854 -891.42677993 513.63146269 -886 510.5 C-879.47766725 506.73636081 -872.95486238 502.97355378 -866.4296875 499.21484375 C-855.97793801 493.19252671 -845.53700452 487.15330663 -835.125 481.0625 C-825.85500223 475.64078822 -816.54168248 470.29795085 -807.21154785 464.98077393 C-798.0871716 459.77954871 -788.99867226 454.51972122 -779.93310547 449.21655273 C-769.40915375 443.06233258 -758.84619863 436.97630004 -748.28222656 430.89111328 C-742.85340058 427.76319852 -737.42680719 424.63141552 -732 421.5 C-729.83334417 420.24998121 -727.6666775 418.99998122 -725.5 417.75 C-724.4275 417.13125 -723.355 416.5125 -722.25 415.875 C-719 414 -715.75 412.125 -712.5 410.25 C-711.42766113 409.63133057 -710.35532227 409.01266113 -709.25048828 408.37524414 C-707.08223736 407.1243552 -704.91394303 405.87354148 -702.74560547 404.62280273 C-697.35282085 401.51201665 -691.96077907 398.39995762 -686.5703125 395.28515625 C-675.94613997 389.14801669 -665.31179363 383.0298093 -654.65368652 376.95184326 C-644.38152763 371.09387165 -634.13970887 365.18710152 -623.93261719 359.21630859 C-613.40888681 353.06207011 -602.8460408 346.97620913 -592.28222656 340.89111328 C-586.85340058 337.76319852 -581.42680719 334.63141552 -576 331.5 C-573.83334417 330.24998121 -571.6666775 328.99998122 -569.5 327.75 C-568.4275 327.13125 -567.355 326.5125 -566.25 325.875 C-504.5 290.25 -504.5 290.25 -501.24951172 288.37475586 C-499.08442929 287.12564482 -496.91939018 285.87645871 -494.75439453 284.62719727 C-489.31384294 281.48797691 -483.87252784 278.35009437 -478.4296875 275.21484375 C-467.93767906 269.16944841 -457.45518324 263.10889781 -447 257 C-435.45270484 250.25298806 -423.87097973 243.56660682 -412.28222656 236.89111328 C-406.85340058 233.76319852 -401.42680719 230.63141552 -396 227.5 C-393.83334417 226.24998121 -391.6666775 224.99998122 -389.5 223.75 C-388.4275 223.13125 -387.355 222.5125 -386.25 221.875 C-350.50000001 201.25 -350.50000001 201.25 -347.24951172 199.37475586 C-345.08442929 198.12564482 -342.91939018 196.87645871 -340.75439453 195.62719727 C-335.31384294 192.48797691 -329.87252784 189.35009437 -324.4296875 186.21484375 C-313.97793801 180.19252671 -303.53700452 174.15330663 -293.125 168.0625 C-283.85436069 162.64041301 -274.54063301 157.29675988 -265.20953369 151.97976685 C-257.11292157 147.36515971 -249.04211199 142.70915114 -241 138 C-231.77199471 132.5964354 -222.5000533 127.27347639 -213.20898438 121.97949219 C-205.11255867 117.36497196 -197.04193491 112.70904745 -189 108 C-179.77199471 102.5964354 -170.5000533 97.27347639 -161.20898438 91.97949219 C-153.11255867 87.36497196 -145.04193491 82.70904745 -137 78 C-128.36502443 72.94369077 -119.69393681 67.95392878 -111 63 C-102.26597512 58.02272919 -93.55267397 53.01265934 -84.875 47.9375 C-69.87185721 39.16287439 -54.82662517 30.46136024 -39.73046875 21.84765625 C-39.1251532 21.50224792 -38.51983765 21.1568396 -37.8961792 20.80096436 C-35.48124242 19.42319905 -33.06620136 18.04561994 -30.65032959 16.66949463 C-22.64785574 12.11077298 -14.67422308 7.50975161 -6.79467773 2.7409668 C-2.21400712 0 -2.21400712 0 0 0 Z " fill="#C7A74D" transform="translate(2501,317)"/>
<path d="M0 0 C2.54858398 1.27172852 2.54858398 1.27172852 5.24609375 2.87890625 C6.24084717 3.46623535 7.23560059 4.05356445 8.26049805 4.65869141 C9.30890869 5.28694824 10.35731934 5.91520508 11.4375 6.5625 C13.61955059 7.85327221 15.80184065 9.14363968 17.984375 10.43359375 C19.03044922 11.05476074 20.07652344 11.67592773 21.15429688 12.31591797 C24.48122871 14.28479029 27.82726975 16.21356468 31.1875 18.125 C32.25613281 18.7334375 33.32476563 19.341875 34.42578125 19.96875 C34.98604004 20.28714844 35.54629883 20.60554688 36.12353516 20.93359375 C48.68525075 28.07249223 61.20916195 35.2713653 73.68261719 42.56347656 C87.78640723 50.8046568 101.92839096 58.9821485 116.125 67.0625 C122.19134185 70.52046391 128.22095066 74.03997967 134.25 77.5625 C151.50167717 87.64083211 168.81013065 97.61920465 186.16870117 107.51220703 C193.82921749 111.88609351 201.4447888 116.33558317 209.05908203 120.78930664 C215.51846369 124.56360181 221.99841116 128.29893393 228.5 132 C235.88240166 136.20255867 243.23116554 140.45900068 250.5625 144.75 C259.44895274 149.94965132 268.36885974 155.08714712 277.3125 160.1875 C290.16407458 167.51744703 302.98384541 174.89882305 315.7578125 182.36328125 C328.79724859 189.9828182 341.87467547 197.52945955 355 205 C365.3896744 210.91420984 375.76853613 216.83904687 386.05566406 222.93017578 C393.60220957 227.38281272 401.22168243 231.70778436 408.83468628 236.0453186 C417.62170143 241.05286158 426.37136077 246.11802823 435.0703125 251.27734375 C436.68849559 252.22883541 438.3209877 253.16049385 440 254 C440 254.66 440 255.32 440 256 C407.3984375 274.80859375 407.3984375 274.80859375 404.19238281 276.65820312 C402.04845933 277.89510728 399.90457974 279.13208754 397.76074219 280.36914062 C392.31807441 283.50958117 386.87464455 286.64868634 381.4296875 289.78515625 C370.93767906 295.83055159 360.45518324 301.89110219 350 308 C338.45270484 314.74701194 326.87097973 321.43339318 315.28222656 328.10888672 C309.85340058 331.23680148 304.42680719 334.36858448 299 337.5 C296.83334417 338.75001879 294.6666775 340.00001878 292.5 341.25 C291.4275 341.86875 290.355 342.4875 289.25 343.125 C227.49999999 378.75 227.49999999 378.75 224.24951172 380.62524414 C222.08442929 381.87435518 219.91939018 383.12354129 217.75439453 384.37280273 C212.31384294 387.51202309 206.87252784 390.64990563 201.4296875 393.78515625 C190.97793801 399.80747329 180.53700452 405.84669337 170.125 411.9375 C160.85436069 417.35958699 151.54063301 422.70324012 142.20953369 428.02023315 C134.11292157 432.63484029 126.04211199 437.29084886 118 442 C108.77199471 447.4035646 99.5000533 452.72652361 90.20898438 458.02050781 C82.11255867 462.63502804 74.04193491 467.29095255 66 472 C56.77199471 477.4035646 47.5000533 482.72652361 38.20898438 488.02050781 C30.11255867 492.63502804 22.04193491 497.29095255 14 502 C5.36502443 507.05630923 -3.30606319 512.04607122 -12 517 C-21.72124506 522.53985933 -31.40894868 528.13374932 -41.06689453 533.78344727 C-51.59367451 539.93932133 -62.15964934 546.02663887 -72.7265625 552.11328125 C-75.9647516 553.9796838 -79.20139438 555.84873763 -82.4375 557.71875 C-93.05877862 563.85509454 -103.69072963 569.97162963 -114.34631348 576.04815674 C-124.61847237 581.90612835 -134.86029113 587.81289848 -145.06738281 593.78369141 C-155.59111319 599.93792989 -166.1539592 606.02379087 -176.71777344 612.10888672 C-182.14659938 615.23680146 -187.57322007 618.36853731 -193 621.5 C-199.52233275 625.26363919 -206.04513762 629.02644622 -212.5703125 632.78515625 C-223.06232094 638.83055159 -233.54481676 644.89110219 -244 651 C-255.54729516 657.74701194 -267.12902027 664.43339318 -278.71777344 671.10888672 C-284.14659942 674.23680148 -289.57319281 677.36858448 -295 680.5 C-297.16665583 681.75001879 -299.3333225 683.00001878 -301.5 684.25 C-303.10875 685.178125 -303.10875 685.178125 -304.75 686.125 C-368.66666667 723 -432.58333333 759.875 -496.5 796.75 C-497.57419189 797.36979736 -498.64838379 797.98959473 -499.75512695 798.62817383 C-501.90445415 799.86802723 -504.05402781 801.1074535 -506.20385742 802.34643555 C-511.27834489 805.27163763 -516.35021617 808.20111723 -521.4133606 811.14590454 C-523.80315668 812.5354863 -526.19436836 813.92262172 -528.58569336 815.30957031 C-530.27140589 816.28863253 -531.95506587 817.27122606 -533.63867188 818.25390625 C-534.66154297 818.846875 -535.68441406 819.43984375 -536.73828125 820.05078125 C-537.63587158 820.57325439 -538.53346191 821.09572754 -539.45825195 821.6340332 C-542 823 -542 823 -547 825 C-547 655.71 -547 486.42 -547 312 C-538.75 307.38 -530.5 302.76 -522 298 C-515.75850592 294.34802223 -515.75850592 294.34802223 -509.53125 290.671875 C-503.90132145 287.33998092 -498.2308083 284.07852327 -492.5625 280.8125 C-491.45527588 280.17449463 -490.34805176 279.53648926 -489.20727539 278.87915039 C-486.93662932 277.57110523 -484.66587642 276.26324552 -482.39501953 274.95556641 C-476.9283002 271.80667946 -471.46425113 268.65316736 -466 265.5 C-463.83334689 264.2499765 -461.66668021 262.99997653 -459.5 261.75 C-458.4275 261.13125 -457.355 260.5125 -456.25 259.875 C-446.5 254.25 -446.5 254.25 -443.24951172 252.37475586 C-441.08442929 251.12564482 -438.91939018 249.87645871 -436.75439453 248.62719727 C-431.31384294 245.48797691 -425.87252784 242.35009437 -420.4296875 239.21484375 C-409.93767906 233.16944841 -399.45518324 227.10889781 -389 221 C-377.45270484 214.25298806 -365.87097973 207.56660682 -354.28222656 200.89111328 C-348.85340058 197.76319852 -343.42680719 194.63141552 -338 191.5 C-335.83334417 190.24998121 -333.6666775 188.99998122 -331.5 187.75 C-330.4275 187.13125 -329.355 186.5125 -328.25 185.875 C-110.5 60.25 -110.5 60.25 -107.24951172 58.37475586 C-105.08442929 57.12564482 -102.91939018 55.87645871 -100.75439453 54.62719727 C-95.31384294 51.48797691 -89.87252784 48.35009437 -84.4296875 45.21484375 C-73.00386852 38.63126611 -61.59593015 32.0191523 -50.21435547 25.359375 C-44.67691225 22.1256179 -39.124755 18.91931176 -33.5546875 15.7421875 C-32.92499054 15.38299728 -32.29529358 15.02380707 -31.64651489 14.6537323 C-28.57872881 12.90485931 -25.50935917 11.15882898 -22.43798828 9.41625977 C-21.32407715 8.78260498 -20.21016602 8.1489502 -19.0625 7.49609375 C-18.01191406 6.90038574 -16.96132812 6.30467773 -15.87890625 5.69091797 C-12.74040031 3.84752481 -9.73417551 1.8616483 -6.78125 -0.26538086 C-4.17576513 -1.3399291 -2.66733177 -0.82113985 0 0 Z " fill="#C2A249" transform="translate(2024,1787)"/>
<path d="M0 0 C2.39836173 -0.00299737 4.79672299 -0.00640122 7.19508362 -0.01017761 C13.00204919 -0.01805424 18.80900241 -0.02122976 24.61597306 -0.02178999 C29.34558668 -0.02226808 34.075197 -0.02433728 38.80480957 -0.02749062 C52.26804829 -0.03628169 65.7312791 -0.04091253 79.19452071 -0.04016014 C79.91778493 -0.04012019 80.64104915 -0.04008023 81.38623047 -0.04003906 C82.47247975 -0.03997774 82.47247975 -0.03997774 83.58067346 -0.03991518 C95.29770793 -0.03950935 107.01471018 -0.04906707 118.73173535 -0.06317743 C130.81554616 -0.0776125 142.89934134 -0.08444369 154.98316097 -0.08358365 C161.74598132 -0.08325409 168.50876283 -0.08609456 175.27157593 -0.0967617 C181.64108955 -0.10653523 188.01053245 -0.10645931 194.38004875 -0.09924507 C196.69893435 -0.09821055 199.01782457 -0.10049346 201.33670235 -0.10660553 C269.53939517 -0.27452538 269.53939517 -0.27452538 292.67578125 21.27026367 C311.81480118 41.52319482 312.69298283 70.8875077 311.98828125 97.14526367 C301.99867117 99.85343534 291.98489693 102.41000309 281.91796875 104.81713867 C280.53890837 105.14771898 279.15984956 105.47830587 277.78079224 105.80889893 C274.92583269 106.49267147 272.07045925 107.17468537 269.21484375 107.85571289 C265.56338121 108.72694805 261.91367157 109.60531302 258.26429558 110.48524094 C255.43245869 111.16675134 252.59943342 111.84321335 249.76605606 112.51828766 C248.41885059 112.84016761 247.07208779 113.16390655 245.72579575 113.48958588 C243.85216862 113.94231696 241.97665542 114.38722082 240.10107422 114.83178711 C239.03823212 115.08619568 237.97539001 115.34060425 236.88034058 115.60272217 C233.98828125 116.14526367 233.98828125 116.14526367 228.98828125 116.14526367 C228.98828125 101.29526367 228.98828125 86.44526367 228.98828125 71.14526367 C143.18828125 71.14526367 57.38828125 71.14526367 -31.01171875 71.14526367 C-31.01171875 98.86526367 -31.01171875 126.58526367 -31.01171875 155.14526367 C-19.27154175 155.12955322 -19.27154175 155.12955322 -7.29418945 155.11352539 C17.81975686 155.08134705 42.93370263 155.05914524 68.04766415 155.04313301 C71.95617394 155.04063194 75.86468366 155.03804327 79.77319336 155.03540039 C80.94024219 155.03461346 80.94024219 155.03461346 82.13086776 155.03381063 C94.68761814 155.02513536 107.24434999 155.00938144 119.80108943 154.99095808 C132.70932133 154.97217859 145.61754361 154.96113003 158.52578861 154.95708668 C166.47489557 154.95435822 174.42395014 154.94577742 182.37304095 154.92943074 C188.4939842 154.91749355 194.61488846 154.91637244 200.73584175 154.91904831 C203.22810054 154.91850292 205.7203615 154.91459015 208.21260834 154.90685272 C274.89349288 154.71017771 274.89349288 154.71017771 296.98828125 175.14526367 C313.07099126 192.4513811 317.11748275 217.61335923 317.14941406 240.484375 C317.15437897 241.35918518 317.15934387 242.23399536 317.16445923 243.13531494 C317.17893427 245.99931663 317.18586073 248.86326282 317.19140625 251.72729492 C317.19423363 252.71794134 317.197061 253.70858776 317.19997406 254.72925377 C317.21491254 259.97949865 317.2241738 265.22971647 317.22851562 270.47998047 C317.2339702 275.84061416 317.25794972 281.20099001 317.28648758 286.56154346 C317.30533066 290.73746914 317.31033108 294.91333561 317.3118515 299.08930016 C317.31483364 301.06200241 317.32270683 303.0347048 317.33603668 305.00736427 C317.49570992 330.4688231 315.5413355 359.6258943 297.55078125 379.45776367 C275.71807313 399.71220373 242.38469932 399.4580058 214.58343232 399.42137206 C211.02975657 399.41887834 207.47610581 399.42795147 203.92243958 399.43540955 C196.98061292 399.44808662 190.03882506 399.44995898 183.09698877 399.44760928 C177.44680294 399.44581784 171.79662877 399.44759337 166.14644432 399.45183372 C164.93485654 399.45272651 164.93485654 399.45272651 163.69879225 399.45363733 C162.05725915 399.45484923 160.41572605 399.45606336 158.77419295 399.4572797 C143.41752428 399.46812863 128.06087763 399.46600552 112.70420774 399.45989486 C98.69995465 399.45472988 84.6957712 399.46597481 70.69153187 399.48499308 C56.26404906 399.50443378 41.83659908 399.51261648 27.4091031 399.50886983 C19.32843525 399.50696697 11.24782663 399.5093551 3.16716957 399.52358437 C-3.7133582 399.53557907 -10.59379032 399.53681359 -17.4743196 399.5247942 C-20.97473013 399.51896119 -24.47496642 399.51764811 -27.97536469 399.5297966 C-55.5329042 399.60627409 -88.45687989 399.19336289 -109.6953125 378.73901367 C-127.11594886 359.23260129 -129.25762318 330.33826615 -129.07421875 305.39526367 C-129.06970703 304.20932617 -129.06519531 303.02338867 -129.06054688 301.80151367 C-129.04891191 298.91604139 -129.03256715 296.03068154 -129.01171875 293.14526367 C-118.48685337 290.90349871 -107.96047351 288.6690051 -97.43207741 286.44387722 C-92.54378917 285.4105194 -87.65606589 284.37462921 -82.76953125 283.33300781 C-78.05699964 282.32857347 -73.34311954 281.33071802 -68.62821579 280.33748055 C-66.82631815 279.95667376 -65.02492605 279.57346693 -63.22404861 279.1878643 C-60.70875251 278.64971209 -58.1918218 278.11999009 -55.67431641 277.59228516 C-54.92409714 277.42972733 -54.17387787 277.26716949 -53.40092468 277.09968567 C-48.23982307 276.03121151 -48.23982307 276.03121151 -46.01171875 277.14526367 C-46.01171875 292.32526367 -46.01171875 307.50526367 -46.01171875 323.14526367 C92.58828125 322.65026367 92.58828125 322.65026367 233.98828125 322.14526367 C233.98828125 293.43526367 233.98828125 264.72526367 233.98828125 235.14526367 C226.29314209 235.12544434 218.59800293 235.105625 210.66967773 235.08520508 C185.96634341 235.02021238 161.2630466 234.94566811 136.55975809 234.86521206 C132.71391123 234.85269521 128.8680641 234.84026212 125.0222168 234.82788086 C123.87389859 234.82418187 123.87389859 234.82418187 122.70238204 234.82040815 C110.35393311 234.78083015 98.00547519 234.74801713 85.6570003 234.71776386 C72.95891318 234.68650121 60.26086372 234.64783028 47.56281906 234.60247362 C39.74579425 234.5747794 31.92879654 234.55266521 24.11173625 234.53800116 C18.08822658 234.52607804 12.06479786 234.50378082 6.04133034 234.47788048 C3.59185139 234.46890658 1.14235796 234.46313873 -1.30713654 234.46105003 C-70.55277648 234.39150857 -70.55277648 234.39150857 -93.65625 212.64916992 C-115.62198006 189.29919817 -113.37212266 150.43404734 -113.27246094 120.70214844 C-113.26105591 117.26821558 -113.26785951 113.83459243 -113.27933788 110.40067005 C-113.46903774 43.55253622 -113.46903774 43.55253622 -92.8671875 20.77416992 C-69.53033338 -2.17567169 -30.17910145 -0.00757075 0 0 Z " fill="#FBFBFC" transform="translate(737.01171875,2978.854736328125)"/>
<path d="M0 0 C0.8676596 0.00359811 1.73531919 0.00719622 2.62927151 0.01090336 C3.55122531 0.01078282 4.47317911 0.01066229 5.42307091 0.0105381 C8.42208573 0.01128743 11.42103922 0.01891659 14.42004299 0.0267725 C16.26570512 0.02824185 18.11136767 0.0292626 19.9570303 0.02982426 C26.81840545 0.03507788 33.67977169 0.04903895 40.54113674 0.06192875 C63.52769924 0.09286625 63.52769924 0.09286625 86.97863674 0.12442875 C86.97863674 51.27442875 86.97863674 102.42442875 86.97863674 155.12442875 C182.34863674 155.12442875 277.71863674 155.12442875 375.97863674 155.12442875 C375.97863674 103.97442875 375.97863674 52.82442875 375.97863674 0.12442875 C391.30301174 0.10380375 406.62738674 0.08317875 422.41613674 0.06192875 C427.26228664 0.05282475 432.10843655 0.04372074 437.10143948 0.03434086 C443.00024319 0.02982426 443.00024319 0.02982426 445.75807095 0.02898502 C447.692196 0.02744524 449.62632008 0.02391962 451.56043911 0.01885319 C454.48297714 0.01157755 457.4054563 0.01052127 460.32800198 0.01090336 C461.19566157 0.00730525 462.06332117 0.00370714 462.95727348 0 C468.86461041 0.01040241 468.86461041 0.01040241 469.97863674 1.12442875 C470.0766078 3.23547512 470.10234851 5.34987168 470.10168457 7.46319008 C470.10283841 8.13631665 470.10399226 8.80944322 470.10518107 9.50296757 C470.10785425 11.78676993 470.10331986 14.07050354 470.09889126 16.35430241 C470.09932682 17.99683618 470.10020144 19.63936988 470.10148042 21.28190321 C470.1037284 25.81747902 470.0997 30.35303145 470.09470236 34.88860428 C470.09040236 39.77138625 470.09184396 44.65416679 470.09260464 49.53695011 C470.09313016 58.00401531 470.08998042 66.47107283 470.0843668 74.9381361 C470.07625561 87.18023831 470.07363697 99.42233679 470.07237881 111.6644414 C470.07018769 131.52423421 470.06352598 151.38402293 470.05407619 171.24381351 C470.04490363 190.54101383 470.03782204 209.83821303 470.03356838 229.13541508 C470.0331743 230.91825735 470.0331743 230.91825735 470.03277225 232.73711664 C470.03146726 238.69950636 470.03020354 244.66189609 470.02896035 250.62428582 C470.01858587 300.1243371 470.00014656 349.62438081 469.97863674 399.12442875 C438.95863674 399.12442875 407.93863674 399.12442875 375.97863674 399.12442875 C375.97863674 342.69442875 375.97863674 286.26442875 375.97863674 228.12442875 C280.60863674 228.12442875 185.23863674 228.12442875 86.97863674 228.12442875 C86.97863674 284.55442875 86.97863674 340.98442875 86.97863674 399.12442875 C55.95863674 399.12442875 24.93863674 399.12442875 -7.02136326 399.12442875 C-7.04338835 348.43860231 -7.06186031 297.75278036 -7.07242859 247.0669505 C-7.07367937 241.08977202 -7.07497368 235.11259355 -7.0762949 229.13541508 C-7.07655721 227.94541271 -7.07681952 226.75541034 -7.07708978 225.52934729 C-7.08144698 206.23390634 -7.0893348 186.93846835 -7.09851605 167.64302916 C-7.1078512 147.85989743 -7.11341857 128.07676725 -7.11545175 108.2936334 C-7.11682727 96.07587187 -7.12117941 83.85811871 -7.12927973 71.64035975 C-7.13454547 63.27435663 -7.13616795 54.90835788 -7.13486464 46.54235322 C-7.13422099 41.70791246 -7.13524179 36.87348638 -7.14056873 32.03904819 C-7.14540184 27.62079495 -7.1457025 23.2025664 -7.14226215 18.78431206 C-7.14183637 17.17865163 -7.14313285 15.57298972 -7.14624644 13.96733225 C-7.15020908 11.79925385 -7.14812751 9.63126681 -7.14441109 7.46319008 C-7.14479081 6.25454027 -7.14517053 5.04589046 -7.14556175 3.80061489 C-6.91486903 -1.17027203 -4.35745894 0.00767318 0 0 Z " fill="#FCFDFD" transform="translate(1252.0213632583618,2978.8755712509155)"/>
<path d="M0 0 C1.28786407 -0.02190399 1.28786407 -0.02190399 2.60174561 -0.04425049 C10.53239475 -0.17034911 18.46406078 -0.2390076 26.39550304 -0.29209328 C31.72746467 -0.32786807 37.05791916 -0.3811901 42.38916016 -0.47753906 C47.53870332 -0.57033345 52.68691215 -0.61901001 57.83724403 -0.63648605 C59.80017621 -0.65058784 61.76306093 -0.68024499 63.72551537 -0.72578812 C79.07781195 -1.06463374 79.07781195 -1.06463374 83.26931763 2.12858582 C84.86108219 4.46267785 85.86178471 6.60401549 86.81176758 9.25634766 C87.38733398 10.22515869 87.96290039 11.19396973 88.5559082 12.19213867 C89.25490234 13.46335571 89.25490234 13.46335571 89.96801758 14.76025391 C90.50821533 15.73559082 91.04841309 16.71092773 91.60498047 17.71582031 C92.16822021 18.73981934 92.73145996 19.76381836 93.31176758 20.81884766 C98.07096782 29.39747278 102.90757011 37.92113747 107.87426758 46.38134766 C112.97748318 55.07852697 117.97844541 63.82661755 122.91967773 72.61669922 C126.79502654 79.49553124 130.75397269 86.32158947 134.74926758 93.13134766 C139.53286337 101.28785579 144.21289985 109.49431256 148.81176758 117.75634766 C153.91013871 126.9135473 159.12484726 135.99327788 164.42553711 145.03466797 C168.89455687 152.66433907 173.30512889 160.32626595 177.68676758 168.00634766 C178.01946655 168.58933624 178.35216553 169.17232483 178.69494629 169.77297974 C181.40940448 174.53016857 184.12103283 179.28896867 186.83251953 184.04785156 C189.19928193 188.20143745 191.56728966 192.35431026 193.93676758 196.50634766 C194.26914429 197.08893341 194.601521 197.67151917 194.94396973 198.27175903 C199.55927197 206.35808183 204.22777825 214.41172152 208.93676758 222.44384766 C214.26539572 231.53430347 219.44089918 240.70210294 224.56665039 249.90820312 C229.08479306 258.00436239 233.72724487 266.02145394 238.41674805 274.01928711 C242.97401962 281.7988655 247.46896304 289.61270074 251.93676758 297.44384766 C252.2762442 298.03878021 252.61572083 298.63371277 252.96548462 299.24667358 C255.24894778 303.24911849 257.53042617 307.25269299 259.81176758 311.25634766 C261.83152621 314.79862851 263.85229817 318.34032828 265.87426758 321.88134766 C266.34912598 322.7129541 266.82398437 323.54456055 267.31323242 324.40136719 C271.83332086 332.30886843 276.39033095 340.19495449 280.94677734 348.08154297 C286.41858882 357.55921516 291.85119622 367.05895106 297.26977539 376.56713867 C300.97987184 383.07229612 304.73086001 389.5498303 308.54418945 395.99511719 C309.81176758 398.25634766 309.81176758 398.25634766 309.81176758 399.25634766 C296.29524702 399.65090185 282.78010309 399.95261349 269.25898933 400.13715458 C262.97958631 400.22574872 256.70413175 400.34579393 250.42700195 400.53881836 C244.36416052 400.72407819 238.30510458 400.82527703 232.23965073 400.86926079 C229.93070718 400.90058296 227.62196276 400.96176256 225.31464005 401.05375862 C207.71843674 401.72718814 207.71843674 401.72718814 202.8856678 397.61904907 C199.61265602 393.60458808 197.53436214 389.18968207 195.670228 384.38613892 C194.38129705 381.18837488 192.7064195 378.27999715 191.01098633 375.27978516 C189.83757496 373.06514092 188.66702871 370.8489764 187.49926758 368.63134766 C181.86768256 358.01126887 176.06517131 347.50060167 170.10473633 337.06103516 C165.62035848 329.1561888 161.22541068 321.20090524 156.81176758 313.25634766 C32.07176758 312.76134766 32.07176758 312.76134766 -95.18823242 312.25634766 C-95.84823242 314.23634766 -96.50823242 316.21634766 -97.18823242 318.25634766 C-97.92103907 319.76125309 -98.69720706 321.24586142 -99.51635742 322.70556641 C-99.97913086 323.53958984 -100.4419043 324.37361328 -100.91870117 325.23291016 C-101.67086914 326.57482422 -101.67086914 326.57482422 -102.43823242 327.94384766 C-107.16191644 336.47881707 -111.72577118 345.08205571 -116.18823242 353.75634766 C-122.33869578 365.69258207 -128.69191418 377.5052621 -135.18823242 389.25634766 C-135.88795166 390.53203613 -135.88795166 390.53203613 -136.60180664 391.83349609 C-137.05185059 392.65108398 -137.50189453 393.46867187 -137.96557617 394.31103516 C-138.57067017 395.41294189 -138.57067017 395.41294189 -139.18798828 396.53710938 C-140.18823242 398.25634766 -140.18823242 398.25634766 -141.18823242 399.25634766 C-144.07966393 399.35158671 -146.94715307 399.38187793 -149.83886719 399.36987305 C-151.19970932 399.37009209 -151.19970932 399.37009209 -152.58804321 399.37031555 C-155.60193227 399.36961606 -158.61576035 399.361822 -161.62963867 399.35400391 C-163.7132921 399.35213985 -165.79694596 399.35071589 -167.88059998 399.34971619 C-173.37646689 399.34589 -178.87230755 399.33605885 -184.36816406 399.32501221 C-189.9715947 399.31480025 -195.57502955 399.31021903 -201.1784668 399.30517578 C-212.18173356 399.29443668 -223.18498081 399.27735905 -234.18823242 399.25634766 C-233.08236699 397.0296529 -231.97487593 394.80379146 -230.86645508 392.57836914 C-230.55648087 391.95380577 -230.24650665 391.3292424 -229.92713928 390.68575287 C-227.31792143 385.45221331 -224.50619307 380.36983935 -221.56323242 375.31884766 C-220.51319368 373.49885789 -219.46373476 371.67853349 -218.41479492 369.85791016 C-217.88144531 368.93397461 -217.3480957 368.01003906 -216.79858398 367.05810547 C-214.15119868 362.45207246 -211.54598445 357.82239658 -208.93823242 353.19384766 C-204.41129235 345.1677904 -199.85143423 337.16107575 -195.27209473 329.16482544 C-189.28225209 318.70550928 -183.35049051 308.21597903 -177.47753906 297.69042969 C-172.76312079 289.25340064 -167.9731407 280.86092205 -163.16772461 272.47558594 C-158.46166649 264.26141642 -153.80093734 256.02341012 -149.18823242 247.75634766 C-144.24212039 238.89174047 -139.2353082 230.06369352 -134.18823242 221.25634766 C-127.9064888 210.29339465 -121.70640959 199.28670259 -115.54370117 188.25634766 C-107.19586032 173.31734621 -98.7327144 158.4444705 -90.22741699 143.59469604 C-85.45501493 135.26008352 -80.73768695 126.89637734 -76.06323242 118.50634766 C-71.49232882 110.30231127 -66.82228464 102.16511987 -62.06323242 94.06884766 C-57.07196042 85.57413985 -52.26793116 76.99904773 -47.58398438 68.33154297 C-43.26810145 60.35780412 -38.78507418 52.48751984 -34.26635742 44.62744141 C-31.54205315 39.8862053 -28.85569891 35.12431301 -26.17529297 30.3581543 C-21.84048355 22.65231799 -17.48582642 14.96408579 -12.93823242 7.38134766 C-12.56738525 6.76275879 -12.19653809 6.14416992 -11.81445312 5.50683594 C-8.3333229 -0.24517804 -6.54293461 0.08421635 0 0 Z M32.81176758 79.25634766 C26.85446941 89.95370758 20.91882165 100.66305714 14.99926758 111.38134766 C14.65624603 112.00240387 14.31322449 112.62346008 13.95980835 113.26333618 C8.76690063 122.66972152 3.63873705 132.10935549 -1.45825195 141.56811523 C-5.70779389 149.42838338 -10.10332564 157.20041105 -14.52490234 164.96484375 C-17.85838115 170.84044713 -21.07579299 176.76098663 -24.18823242 182.75634766 C-27.83462113 189.77979377 -31.6503729 196.6903554 -35.56323242 203.56884766 C-40.09527857 211.54025452 -44.58771829 219.53081037 -49.00073242 227.56884766 C-49.78359619 228.98387573 -49.78359619 228.98387573 -50.58227539 230.42749023 C-51.05681152 231.295271 -51.53134766 232.16305176 -52.02026367 233.05712891 C-52.44025635 233.8219458 -52.86024902 234.5867627 -53.29296875 235.37475586 C-54.3314481 237.21006013 -54.3314481 237.21006013 -54.18823242 239.25634766 C2.57176758 239.25634766 59.33176758 239.25634766 117.81176758 239.25634766 C112.6105473 228.8539071 107.39505952 218.46572478 102.06176758 208.13134766 C101.71760803 207.4638147 101.37344849 206.79628174 101.01885986 206.10852051 C96.21767861 196.80414522 91.30789749 187.57041489 86.25024414 178.40234375 C82.31658918 171.24819139 78.55053367 164.01398237 74.81176758 156.75634766 C70.55419373 148.49243228 66.23145531 140.27571101 61.74926758 132.13134766 C56.29972183 122.22862494 51.07591932 112.2169549 45.88208008 102.17822266 C41.913241 94.50860868 37.86957978 86.87916283 33.81176758 79.25634766 C33.48176758 79.25634766 33.15176758 79.25634766 32.81176758 79.25634766 Z " fill="#FCFCFC" transform="translate(2083.188232421875,2978.74365234375)"/>
<path d="M0 0 C1.28786407 -0.02190399 1.28786407 -0.02190399 2.60174561 -0.04425049 C10.53239475 -0.17034911 18.46406078 -0.2390076 26.39550304 -0.29209328 C31.72746467 -0.32786807 37.05791916 -0.3811901 42.38916016 -0.47753906 C47.53870332 -0.57033345 52.68691215 -0.61901001 57.83724403 -0.63648605 C59.80017621 -0.65058784 61.76306093 -0.68024499 63.72551537 -0.72578812 C79.07891981 -1.06465819 79.07891981 -1.06465819 83.26409912 2.12583923 C84.85287203 4.45935134 85.85503482 6.60862309 86.81176758 9.25634766 C87.70484619 10.72358276 87.70484619 10.72358276 88.6159668 12.22045898 C89.11112793 13.08437256 89.60628906 13.94828613 90.11645508 14.83837891 C90.69137695 15.83804688 91.26629883 16.83771484 91.85864258 17.86767578 C92.76356445 19.45225586 92.76356445 19.45225586 93.68676758 21.06884766 C94.33387695 22.19613281 94.98098633 23.32341797 95.64770508 24.48486328 C97.70687048 28.072803 99.7597118 31.66433839 101.81176758 35.25634766 C102.48263905 36.43002843 103.15353725 37.60369394 103.82446289 38.77734375 C106.49395454 43.44771014 109.16259268 48.11856203 111.82885742 52.79077148 C116.30095263 60.62550053 120.79816793 68.44544468 125.31176758 76.25634766 C130.84407384 85.83014924 136.3420732 95.42304084 141.82202148 105.02685547 C146.62894667 113.45002093 151.45949908 121.8591973 156.31176758 130.25634766 C161.4800776 139.20189149 166.6260812 148.15989646 171.74926758 157.13134766 C172.0807077 157.71172791 172.41214783 158.29210815 172.75363159 158.89007568 C175.44410865 163.60186176 178.1331541 168.31446447 180.82214355 173.02709961 C183.17218415 177.1455635 185.52278848 181.26370491 187.87426758 185.38134766 C188.37154861 186.25215973 188.37154861 186.25215973 188.87887573 187.14056396 C194.28124929 196.59870392 199.71782539 206.03680871 205.16748047 215.46777344 C210.07885087 223.97240565 214.95482564 232.49691243 219.82202148 241.02685547 C224.62894667 249.45002093 229.45949908 257.8591973 234.31176758 266.25634766 C239.48007809 275.20189234 244.62593084 284.15998182 249.74926758 293.13134766 C250.08037537 293.71106323 250.41148315 294.29077881 250.75262451 294.88806152 C254.12697822 300.79651404 257.4986722 306.70647855 260.86759949 312.61802673 C262.55652969 315.58125264 264.24641879 318.54393078 265.93676758 321.50634766 C266.26923492 322.08911469 266.60170227 322.67188171 266.94424438 323.27230835 C272.11927694 332.33927763 277.36894997 341.36076946 282.65063477 350.3659668 C287.53509551 358.72107567 292.25428948 367.16409024 296.95336914 375.62451172 C300.6403343 382.2390499 304.45698988 388.72789613 308.55395508 395.09619141 C309.81176758 397.25634766 309.81176758 397.25634766 309.81176758 399.25634766 C275.16176758 399.25634766 240.51176758 399.25634766 204.81176758 399.25634766 C190.14250463 373.30303628 190.14250463 373.30303628 184.31176758 362.25634766 C178.61119595 351.53361338 172.73575923 340.92324846 166.71411133 330.37744141 C164.60687948 326.670181 162.51098871 322.95702483 160.44067383 319.22900391 C159.93737549 318.32545166 159.43407715 317.42189941 158.91552734 316.4909668 C157.81176758 314.25634766 157.81176758 314.25634766 157.81176758 312.25634766 C74.32176758 312.25634766 -9.16823242 312.25634766 -95.18823242 312.25634766 C-95.84823242 314.23634766 -96.50823242 316.21634766 -97.18823242 318.25634766 C-98.0213483 320.03569002 -98.89539038 321.79633732 -99.80541992 323.53759766 C-100.32362305 324.53275391 -100.84182617 325.52791016 -101.37573242 326.55322266 C-101.93260742 327.61025391 -102.48948242 328.66728516 -103.06323242 329.75634766 C-103.64331055 330.86494141 -104.22338867 331.97353516 -104.82104492 333.11572266 C-109.01190942 341.09658634 -113.30630572 349.01731182 -117.65087891 356.9152832 C-122.14373018 365.10804238 -126.45712724 373.39013627 -130.73706055 381.69580078 C-131.49986328 383.1740332 -131.49986328 383.1740332 -132.27807617 384.68212891 C-132.72014404 385.54233643 -133.16221191 386.40254395 -133.61767578 387.28881836 C-135.74645622 391.31109821 -137.97813332 395.27816927 -140.18823242 399.25634766 C-171.20823242 399.25634766 -202.22823242 399.25634766 -234.18823242 399.25634766 C-223.97705743 380.53586018 -213.73560224 361.83921285 -203.11010742 343.35009766 C-199.96402883 337.8753249 -196.85510587 332.37985013 -193.75073242 326.88134766 C-193.20819824 325.92075439 -192.66566406 324.96016113 -192.10668945 323.97045898 C-189.93922947 320.13188671 -187.7727759 316.29274794 -185.60717773 312.453125 C-178.8527167 300.47815998 -172.06100872 288.52536941 -165.22769165 276.59524536 C-160.45520385 268.26044699 -155.73778608 259.89655527 -151.06323242 251.50634766 C-146.49232882 243.30231127 -141.82228464 235.16511987 -137.06323242 227.06884766 C-132.07196042 218.57413985 -127.26793116 209.99904773 -122.58398438 201.33154297 C-118.26258361 193.34760972 -113.77291064 185.46764225 -109.25073242 177.59619141 C-106.05825267 172.03910181 -102.90140783 166.46222077 -99.75073242 160.88134766 C-98.93741455 159.44130371 -98.93741455 159.44130371 -98.10766602 157.97216797 C-95.93987187 154.13303091 -93.77309822 150.29331942 -91.60717773 146.453125 C-84.85197652 134.4768477 -78.05826892 122.52348596 -71.22567749 110.59121704 C-65.92000962 101.32213454 -60.68150718 92.01702189 -55.47753906 82.69042969 C-50.76481002 74.25642371 -45.97702169 65.86666053 -41.17276001 57.48464966 C-36.35767505 49.08172345 -31.59432408 40.65144222 -26.87573242 32.19384766 C-22.59178906 24.51908202 -18.27398336 16.86627365 -13.87573242 9.25634766 C-13.18193481 8.05353149 -13.18193481 8.05353149 -12.47412109 6.82641602 C-8.6025581 0.1567048 -7.48797021 0.09638022 0 0 Z M32.81176758 79.25634766 C32.32317261 80.16622437 32.32317261 80.16622437 31.82470703 81.09448242 C25.82508172 92.25338782 19.78115745 103.37846283 13.49926758 114.38134766 C8.07716862 123.88969013 2.90848776 133.51798988 -2.21212769 143.19039917 C-7.21699622 152.63858667 -12.37277539 161.98331392 -17.67651367 171.26806641 C-21.39172221 177.79052728 -24.9225833 184.38903837 -28.37890625 191.05151367 C-31.69647292 197.40923614 -35.20198567 203.6501764 -38.75073242 209.88134766 C-42.75758498 216.91848909 -46.70999043 223.97508 -50.50073242 231.13134766 C-50.87979736 231.84500488 -51.2588623 232.55866211 -51.64941406 233.29394531 C-53.41439122 236.13207573 -53.41439122 236.13207573 -54.18823242 239.25634766 C2.57176758 239.25634766 59.33176758 239.25634766 117.81176758 239.25634766 C116.33023937 234.81176304 114.95198137 231.38756767 112.75708008 227.35400391 C111.84406128 225.66525146 111.84406128 225.66525146 110.91259766 223.94238281 C110.59062408 223.35193176 110.26865051 222.76148071 109.93692017 222.15313721 C108.22547608 219.01433215 106.52933965 215.86726123 104.83129883 212.72119141 C104.48848373 212.08701294 104.14566864 211.45283447 103.79246521 210.79943848 C100.67530304 205.0249191 97.64064612 199.20909832 94.62426758 193.38134766 C90.31973612 185.08011005 85.88517755 176.85957895 81.38134766 168.66503906 C77.01732575 160.69681846 72.83452267 152.64025787 68.6652832 144.56884766 C64.6918734 136.89670953 60.58613954 129.30685336 56.41918945 121.73852539 C51.63994101 113.02050069 47.07405717 104.19499401 42.53076172 95.35253906 C39.73349205 89.91661822 36.90701931 84.52889657 33.81176758 79.25634766 C33.48176758 79.25634766 33.15176758 79.25634766 32.81176758 79.25634766 Z " fill="#FCFCFC" transform="translate(3125.188232421875,2978.74365234375)"/>
<path d="M0 0 C1.0193707 -0.00218016 1.0193707 -0.00218016 2.05933475 -0.00440437 C4.36509914 -0.00809013 6.67079847 -0.00456612 8.9765625 -0.0011425 C10.63488296 -0.00229331 12.29320316 -0.00388055 13.95152283 -0.00586975 C18.53077239 -0.01006868 23.11000128 -0.00796985 27.68925095 -0.00488353 C32.61908869 -0.00263193 37.54892274 -0.00610784 42.47875977 -0.00886345 C52.14512214 -0.01332273 61.81147678 -0.01234398 71.47783947 -0.00945081 C79.33011629 -0.00719739 87.18239092 -0.00688398 95.03466797 -0.00797462 C96.14993897 -0.00812786 97.26520998 -0.00828109 98.41427708 -0.00843897 C100.67954381 -0.00875867 102.94481055 -0.00908289 105.21007729 -0.00941156 C126.47858787 -0.01226681 147.74709414 -0.00897862 169.01560402 -0.00361119 C187.2864465 0.00085689 205.55728263 0.00008097 223.828125 -0.00452995 C245.01771652 -0.00987492 266.20730426 -0.01199212 287.39689636 -0.00891769 C289.65408325 -0.00859912 291.91127014 -0.00828475 294.16845703 -0.00797462 C295.27919366 -0.00782035 296.38993029 -0.00766607 297.5343256 -0.00750712 C305.38209689 -0.00664173 313.2298658 -0.00810531 321.07763672 -0.01045418 C330.634371 -0.01325152 340.19109706 -0.01251533 349.74783039 -0.00717343 C354.62885808 -0.00453552 359.50987205 -0.00353287 364.39089966 -0.00682259 C368.85167453 -0.00978371 373.31242283 -0.00819584 377.77319527 -0.00284503 C379.39430273 -0.00172005 381.01541241 -0.00231379 382.63651848 -0.00472082 C384.82542008 -0.00772374 387.01422843 -0.00468146 389.203125 0 C390.42338379 0.00016235 391.64364258 0.0003247 392.90087891 0.00049198 C395.6015625 0.12584114 395.6015625 0.12584114 396.6015625 1.12584114 C396.6015625 24.22584114 396.6015625 47.32584114 396.6015625 71.12584114 C294.3015625 71.12584114 192.0015625 71.12584114 86.6015625 71.12584114 C86.6015625 105.44584114 86.6015625 139.76584114 86.6015625 175.12584114 C98.64527344 175.11423958 110.68898438 175.10263802 123.09765625 175.09068489 C130.70377625 175.08557853 138.30989502 175.08072353 145.91601562 175.07701302 C158.00268984 175.07106955 170.08935711 175.06406657 182.17602539 175.05040169 C190.97700714 175.04045624 199.77798328 175.03398805 208.57897049 175.03175265 C213.24202517 175.0304453 217.90506378 175.02735796 222.56811333 175.02011108 C226.95188616 175.01335306 231.33563621 175.01122373 235.71941376 175.01273346 C237.33316484 175.01245703 238.94691663 175.01045062 240.56066322 175.00663567 C242.7542514 175.0017018 244.9477522 175.0028417 247.14134216 175.00558662 C248.3719358 175.00466483 249.60252943 175.00374304 250.87041378 175.00279331 C253.6015625 175.12584114 253.6015625 175.12584114 254.6015625 176.12584114 C254.6015625 199.88584114 254.6015625 223.64584114 254.6015625 248.12584114 C199.1615625 248.12584114 143.7215625 248.12584114 86.6015625 248.12584114 C86.6015625 297.95584114 86.6015625 347.78584114 86.6015625 399.12584114 C55.5815625 399.12584114 24.5615625 399.12584114 -7.3984375 399.12584114 C-7.42046259 348.4400147 -7.43893456 297.75419275 -7.44950283 247.0683629 C-7.45075361 241.09118441 -7.45204793 235.11400594 -7.45336914 229.13682747 C-7.45363145 227.9468251 -7.45389376 226.75682273 -7.45416402 225.53075968 C-7.45852122 206.23531873 -7.46640905 186.93988074 -7.4755903 167.64444155 C-7.48492544 147.86130982 -7.49049281 128.07817964 -7.49252599 108.29504579 C-7.49390151 96.07728426 -7.49825365 83.8595311 -7.50635397 71.64177214 C-7.51161971 63.27576903 -7.51324219 54.90977027 -7.51193888 46.54376561 C-7.51129523 41.70932485 -7.51231603 36.87489877 -7.51764297 32.04046059 C-7.52247609 27.62220734 -7.52277674 23.20397879 -7.51933639 18.78572445 C-7.51891061 17.18006402 -7.52020709 15.57440211 -7.52332068 13.96874464 C-7.52728332 11.80066624 -7.52520175 9.6326792 -7.52148533 7.46460247 C-7.52186505 6.25595266 -7.52224477 5.04730285 -7.522636 3.80202729 C-7.28794591 -1.2549933 -4.43983789 0.00059071 0 0 Z " fill="#FBFCFC" transform="translate(2527.3984375,2978.874158859253)"/>
<path d="M0 0 C1.82804672 -0.00744736 1.82804672 -0.00744736 3.69302368 -0.01504517 C7.0260956 -0.02712004 10.35910506 -0.03460363 13.69219136 -0.03905582 C15.7805039 -0.04199698 17.86881108 -0.04610381 19.9571209 -0.05056 C26.5079874 -0.06422306 33.05884149 -0.0738943 39.60972124 -0.07776189 C47.13948775 -0.08223327 54.66907188 -0.09974318 62.19878298 -0.12876248 C68.0394022 -0.1504804 73.87997052 -0.1604716 79.72062963 -0.16180301 C83.19914531 -0.16284427 86.67748929 -0.16860496 90.15596199 -0.18662262 C94.04674084 -0.20638457 97.93729751 -0.20177435 101.828125 -0.1953125 C102.95950394 -0.20452728 104.09088287 -0.21374207 105.25654602 -0.22323608 C116.57067328 -0.16477416 128.25045623 1.19223135 136.86694336 9.16113281 C143.07174542 16.52457113 143.98399537 24.11307227 143.90991211 33.44238281 C143.9068103 34.18520508 143.9037085 34.92802734 143.9005127 35.69335938 C143.89245454 37.51596706 143.88012536 39.33855499 143.86694336 41.16113281 C139.38542555 42.18786179 134.9014483 43.20273694 130.41479492 44.20678711 C128.88932373 44.54990467 127.36457101 44.89623303 125.84057617 45.24584961 C123.64805828 45.74824207 121.45320385 46.23897675 119.25756836 46.72753906 C118.57825256 46.8858168 117.89893677 47.04409454 117.19903564 47.20716858 C113.50471684 48.01611784 111.63984945 48.10435934 107.86694336 47.16113281 C107.86694336 41.55113281 107.86694336 35.94113281 107.86694336 30.16113281 C70.90694336 30.16113281 33.94694336 30.16113281 -4.13305664 30.16113281 C-4.13305664 41.71113281 -4.13305664 53.26113281 -4.13305664 65.16113281 C-0.50015625 65.14542236 3.13274414 65.12971191 6.87573242 65.11352539 C18.90568983 65.06372018 30.93564011 65.03048701 42.96567154 65.0056963 C50.25638357 64.99027062 57.54699747 64.96926408 64.83764648 64.93481445 C71.19705201 64.90477962 77.5563864 64.88552662 83.91586089 64.87886733 C87.27880028 64.87497868 90.64137618 64.86432297 94.00428009 64.84394264 C97.7714472 64.8220292 101.5381989 64.81917176 105.30541992 64.82055664 C106.40306671 64.80977081 107.5007135 64.79898499 108.63162231 64.78787231 C119.78584431 64.83197483 131.09924211 66.55288003 139.35913086 74.61816406 C147.8233783 84.91048862 146.33314296 100.09476023 146.25805664 112.54272461 C146.24196176 115.71999942 146.25797293 118.89600577 146.27709961 122.07324219 C146.27511721 124.12467724 146.2712736 126.17611152 146.26538086 128.22753906 C146.27145355 129.1611879 146.27752625 130.09483673 146.28378296 131.05677795 C146.17730953 141.20605436 144.09914988 151.60985835 136.86694336 159.16113281 C126.99805745 166.02571502 115.97946426 166.45900553 104.36767578 166.43579102 C103.026227 166.44014661 101.68478069 166.44533256 100.34333801 166.45127869 C96.72331759 166.46459048 93.10340207 166.46525603 89.48336196 166.46271539 C86.44944727 166.46164011 83.41555333 166.46654332 80.38164312 166.47132081 C73.21681508 166.48238946 66.05203947 166.48286865 58.88720703 166.47680664 C51.52371672 166.4707718 44.16041774 166.48307143 36.79696006 166.50437671 C30.45013445 166.52205756 24.10336938 166.5279838 17.75652009 166.52473897 C13.97684508 166.5229359 10.19730649 166.52546353 6.41765404 166.53945351 C2.85933428 166.55213303 -0.69868988 166.5499935 -4.25700569 166.53704262 C-6.16545526 166.53359218 -8.0739143 166.54478041 -9.98233032 166.55661011 C-22.18371616 166.48312463 -33.28529097 164.62846706 -42.38305664 156.03613281 C-47.81099688 147.11880242 -49.17645699 138.12161191 -49.14868164 127.90722656 C-49.14642578 126.83013428 -49.14416992 125.75304199 -49.1418457 124.64331055 C-49.13894531 123.82419189 -49.13604492 123.00507324 -49.13305664 122.16113281 C-45.07055664 121.34863281 -41.00805664 120.53613281 -36.94555664 119.72363281 C-35.79506836 119.49353516 -34.64458008 119.2634375 -33.45922852 119.02636719 C-31.3046875 118.59545898 -29.15014648 118.16455078 -26.99560547 117.73364258 C-25.22398674 117.37931883 -23.4566662 117.00154726 -21.69824219 116.58666992 C-19.13305664 116.16113281 -19.13305664 116.16113281 -12.13305664 116.16113281 C-12.13305664 122.43113281 -12.13305664 128.70113281 -12.13305664 135.16113281 C27.79694336 135.16113281 67.72694336 135.16113281 108.86694336 135.16113281 C108.86694336 122.95113281 108.86694336 110.74113281 108.86694336 98.16113281 C103.72165039 98.18469849 103.72165039 98.18469849 98.47241211 98.20874023 C87.08909723 98.25863837 75.70576685 98.29181572 64.32237244 98.31656933 C57.42636496 98.331967 50.53046189 98.35291863 43.63452148 98.38745117 C36.96903056 98.42081347 30.30367004 98.4380288 23.63809204 98.44576454 C21.10582786 98.45127145 18.57356903 98.46202418 16.04135132 98.47832298 C-22.31652033 98.71520735 -22.31652033 98.71520735 -32.79711914 89.73535156 C-42.81676142 79.3948833 -42.31997086 64.37532782 -42.31835938 50.95166016 C-42.3205376 48.92881951 -42.33873199 46.90653323 -42.35766602 44.88378906 C-42.39767968 17.64781857 -42.39767968 17.64781857 -33.34399414 8.31738281 C-23.62317626 0.41679776 -12.00447478 0.01171431 0 0 Z " fill="#E4C666" transform="translate(1322.133056640625,3493.8388671875)"/>
<path d="M0 0 C26.3175 -0.061875 52.635 -0.12375 79.75 -0.1875 C92.19412598 -0.22846802 92.19412598 -0.22846802 104.88964844 -0.27026367 C115.05517578 -0.28381348 115.05517578 -0.28381348 119.82086182 -0.28633118 C123.134563 -0.28911524 126.44811859 -0.30031405 129.76177979 -0.31672668 C134.00025162 -0.33743896 138.23851444 -0.34344872 142.47703218 -0.33921683 C144.02525013 -0.34010059 145.57347605 -0.34596922 147.12165022 -0.35764539 C159.66431617 -0.44777864 171.47733394 -0.0154054 181 9 C187.51953277 15.51953277 188.34309057 23.76472108 188.44248962 32.60618591 C188.43955399 33.797043 188.43661835 34.98790009 188.43359375 36.21484375 C188.4388356 37.46576309 188.44407745 38.71668243 188.44947815 40.00550842 C188.45750572 43.31105176 188.45048023 46.61617474 188.43914795 49.92169189 C188.43750239 51.93458076 188.44948619 53.94690494 188.46655273 55.9597168 C188.49736827 59.85752405 188.50062484 63.75443361 188.49609375 67.65234375 C188.50732773 68.84117661 188.51856171 70.03000946 188.53013611 71.25486755 C188.45866047 79.87525982 186.95436131 87.32572188 181.75 94.375 C168.63536072 106.89351931 146.74901485 104.67197883 130 105 C139.20112737 112.63515659 148.44369399 120.20033565 157.87109375 127.5546875 C160.59641119 129.68458602 163.30340578 131.83395521 166 134 C169.272494 136.62758883 172.56369203 139.22899096 175.86962891 141.81420898 C181.8266037 146.47456827 187.74470327 151.18068553 193.625 155.9375 C194.63747803 156.75287231 194.63747803 156.75287231 195.67041016 157.5847168 C196.30769043 158.10203369 196.9449707 158.61935059 197.6015625 159.15234375 C198.16182129 159.60601318 198.72208008 160.05968262 199.29931641 160.52709961 C201.29899021 162.25894458 203.13696765 164.1229618 205 166 C197.56803179 166.32733595 190.13682619 166.57457471 182.69924831 166.72537041 C179.24324431 166.79783682 175.79223724 166.89568112 172.33911133 167.05615234 C146.98909168 168.20385048 146.98909168 168.20385048 138.76210022 161.10928345 C136.41570469 158.72493448 134.27936838 156.2583682 132.25431824 153.59663391 C130.65342116 151.55883642 128.82085234 149.94113865 126.8125 148.3125 C123.52395198 145.48049661 120.31873394 142.56295547 117.125 139.625 C111.7836962 134.71200435 106.40204487 129.84620746 101 125 C98.50989869 122.75968942 96.02057144 120.51852081 93.53125 118.27734375 C91.76143939 116.68506044 89.99051451 115.09401513 88.21875 113.50390625 C87.3215625 112.69824219 86.424375 111.89257812 85.5 111.0625 C84.6853125 110.33160156 83.870625 109.60070313 83.03125 108.84765625 C81.65711081 107.5977181 80.3135075 106.3135075 79 105 C76.06423322 104.75412906 73.21364017 104.62608942 70.2734375 104.5859375 C69.50878174 104.56829346 68.74412598 104.55064941 67.95629883 104.5324707 C65.09608098 104.46933811 62.23550851 104.4231967 59.375 104.375 C49.784375 104.189375 49.784375 104.189375 40 104 C40 124.46 40 144.92 40 166 C26.8 166 13.6 166 0 166 C0 111.22 0 56.44 0 0 Z M40 29 C39.97472938 35.39037231 39.95716683 41.78073183 39.94506836 48.17114258 C39.94002692 50.34692873 39.93319393 52.52271147 39.92456055 54.69848633 C39.91248662 57.81853067 39.90676995 60.93853038 39.90234375 64.05859375 C39.89718246 65.03775253 39.89202118 66.01691132 39.88670349 67.02574158 C39.88662796 67.92659988 39.88655243 68.82745819 39.88647461 69.75561523 C39.884254 70.55281479 39.88203339 71.35001434 39.87974548 72.17137146 C39.79949544 74.01922281 39.79949544 74.01922281 41 75 C43.76691402 75.10588116 46.50899495 75.1467776 49.27661133 75.14526367 C50.14505676 75.14862228 51.0135022 75.1519809 51.90826416 75.15544128 C54.79953418 75.16499178 57.69074641 75.16689726 60.58203125 75.16796875 C62.59209721 75.17118143 64.60216293 75.17454552 66.61222839 75.17805481 C70.84004253 75.18405836 75.0678362 75.18589375 79.2956543 75.18530273 C84.68764304 75.18520171 90.07949831 75.19878601 95.47145557 75.21607494 C99.6315927 75.22725733 103.79169837 75.22921994 107.95184898 75.22869301 C109.93756248 75.22986635 111.92327697 75.23425152 113.9089756 75.24202538 C131.41009933 76.21784841 131.41009933 76.21784841 147.1875 70.625 C151.11106761 64.94259174 150.21950104 58.35533419 150.25 51.6875 C150.270625 50.57181641 150.29125 49.45613281 150.3125 48.30664062 C150.42874226 39.66822496 150.42874226 39.66822496 147 32 C140.86380243 29.08974252 135.72747732 28.57857384 129.00390625 28.65942383 C128.03713455 28.65898575 127.07036285 28.65854767 126.07429504 28.65809631 C122.90348568 28.66017338 119.73321612 28.6834534 116.5625 28.70703125 C114.35433236 28.71263105 112.14616099 28.71689933 109.93798828 28.71989441 C104.14456779 28.7313129 98.35137527 28.76075438 92.55804443 28.79400635 C86.63898807 28.82477183 80.71989464 28.83841358 74.80078125 28.85351562 C63.20042103 28.88562688 51.60022952 28.93678701 40 29 Z " fill="#E5C767" transform="translate(629,3494)"/>
<path d="M0 0 C20.99625 -0.0825 41.9925 -0.165 63.625 -0.25 C70.21162598 -0.28641602 76.79825195 -0.32283203 83.58447266 -0.36035156 C91.73706055 -0.37841797 91.73706055 -0.37841797 95.57479858 -0.3817749 C98.20915737 -0.38784751 100.84269949 -0.40020125 103.47689819 -0.42230225 C133.57631724 -0.66361086 164.60795723 1.85326675 188 23 C189.06154297 23.93972656 189.06154297 23.93972656 190.14453125 24.8984375 C205.10100458 38.91119454 211.03796411 58.83092172 211.9921875 78.828125 C212.24404846 98.02552696 209.01410443 117.49313532 197 133 C196.01580078 134.27230469 196.01580078 134.27230469 195.01171875 135.5703125 C177.68332862 156.28835115 149.90391581 163.62877675 124 166 C114.31655925 166.4963043 104.61430234 166.35226957 94.921875 166.29296875 C92.47998257 166.2885454 90.03808727 166.28549259 87.59619141 166.28381348 C78.64741692 166.26822964 69.69870374 166.22634662 60.75 166.1875 C40.7025 166.125625 20.655 166.06375 0 166 C0 111.22 0 56.44 0 0 Z M41 30 C40.9768794 43.54264178 40.95908636 57.0852789 40.94818783 70.62793636 C40.94295838 76.91562024 40.93585961 83.20329066 40.92456055 89.4909668 C40.91373386 95.55337723 40.90772363 101.61577469 40.90512276 107.67819405 C40.90326811 109.99676277 40.89964675 112.31533074 40.89426994 114.63389397 C40.88706242 117.86914508 40.88600894 121.10434183 40.88647461 124.33959961 C40.88287933 125.30848114 40.87928406 126.27736267 40.87557983 127.27560425 C40.8769545 128.15205093 40.87832916 129.02849762 40.87974548 129.9315033 C40.87882369 130.69751327 40.8779019 131.46352324 40.87695217 132.25274563 C40.81013209 134.02869406 40.81013209 134.02869406 42 135 C43.44872187 135.09835505 44.90219199 135.12798512 46.35424805 135.12939453 C47.2842009 135.13254669 48.21415375 135.13569885 49.17228699 135.13894653 C50.19179947 135.1369223 51.21131195 135.13489807 52.26171875 135.1328125 C53.31792923 135.13376923 54.37413971 135.13472595 55.46235657 135.13571167 C57.71798766 135.13639491 59.97362069 135.1345307 62.22924805 135.13037109 C65.600146 135.12513567 68.97090374 135.13025205 72.34179688 135.13671875 C82.91252411 135.14057198 93.46582443 135.03023397 104.02734375 134.56640625 C104.89227951 134.52923492 105.75721527 134.4920636 106.64836121 134.45376587 C124.29801893 133.58221241 143.98367881 131.38260924 157.01953125 118.28125 C168.79698742 104.71510719 169.93227748 88.20915165 169 71 C167.6643423 59.95252617 163.44321157 49.20715764 155.09765625 41.55859375 C143.1813798 32.70460063 128.34239752 29.81492377 113.76977539 29.88647461 C112.97871399 29.88632858 112.18765259 29.88618256 111.37261963 29.8860321 C108.78093641 29.88672384 106.18932678 29.89448137 103.59765625 29.90234375 C101.79162129 29.90421056 99.98558582 29.90563322 98.17955017 29.90663147 C93.4432941 29.91043596 88.70706907 29.92024846 83.9708252 29.93133545 C79.13094502 29.94159417 74.2910598 29.94613862 69.45117188 29.95117188 C59.96743434 29.96187269 50.48371976 29.97892411 41 30 Z " fill="#E5C767" transform="translate(1808,3494)"/>
<path d="M0 0 C32.00770246 0 32.00770246 0 40.61328125 8.515625 C41.15678223 9.09248047 41.7002832 9.66933594 42.26025391 10.26367188 C45.35963354 13.35696235 48.91846537 15.84635432 52.4375 18.4375 C58.82616241 23.27106566 65.06769795 28.2634523 71.26586914 33.33789062 C76.82259336 37.87937147 82.48562111 42.25937111 88.19091797 46.61328125 C98.96903611 54.87505062 109.64456334 63.27251355 120.31445312 71.67333984 C123.20808827 73.95086206 126.10419323 76.22524007 129 78.5 C130.16667796 79.4166523 131.33334464 80.33331895 132.5 81.25 C133.0775 81.70375 133.655 82.1575 134.25 82.625 C139.5 86.75 139.5 86.75 141.25268555 88.12719727 C142.41028727 89.03668371 143.5680007 89.946028 144.72583008 90.85522461 C147.78215842 93.25554791 150.8360641 95.6588749 153.88671875 98.06640625 C154.52287109 98.56785156 155.15902344 99.06929687 155.81445312 99.5859375 C157.03391969 100.54726881 158.25270561 101.50946435 159.47070312 102.47265625 C161.93302648 104.41249364 164.38997091 106.25998061 167 108 C167.495 54.54 167.495 54.54 168 0 C180.21 0 192.42 0 205 0 C205 54.78 205 109.56 205 166 C172.9351733 166 172.9351733 166 165.10546875 158.26953125 C164.60966309 157.73408691 164.11385742 157.19864258 163.60302734 156.64697266 C160.66337672 153.62673459 157.30054516 151.11057647 154 148.5 C152.64700612 147.40019606 151.29542948 146.29864621 149.9453125 145.1953125 C144.02492524 140.38554014 138.01274234 135.69337488 132 131 C123.91946795 124.69256755 115.9035386 118.3175703 107.96142578 111.83642578 C103.6758874 108.34492684 99.35688616 104.9019522 95 101.5 C89.25989332 97.0179989 83.60306754 92.44043443 77.9609375 87.8359375 C73.12153554 83.89341312 68.23141138 80.0223506 63.31103516 76.18164062 C57.92586209 71.9670236 52.62172735 67.6550051 47.328125 63.32617188 C46.69132812 62.80603516 46.05453125 62.28589844 45.3984375 61.75 C44.83817871 61.29109375 44.27791992 60.8321875 43.70068359 60.359375 C41.83209112 58.86578859 39.91372946 57.4352971 38 56 C37.67 92.3 37.34 128.6 37 166 C24.79 166 12.58 166 0 166 C0 111.22 0 56.44 0 0 Z " fill="#E5C867" transform="translate(2474,3494)"/>
<path d="M0 0 C1.27970169 -0.00525696 2.55940338 -0.01051392 3.87788391 -0.01593018 C7.35109768 -0.02946983 10.82404059 -0.02436121 14.29725838 -0.01479292 C17.95513696 -0.00712626 21.6129944 -0.01426117 25.27087402 -0.01895142 C31.4102794 -0.02438878 37.54957603 -0.01727072 43.68896484 -0.00292969 C50.75772045 0.01339298 57.82621633 0.00810303 64.89496565 -0.0084089 C70.99557938 -0.02208169 77.09611555 -0.02391531 83.19673967 -0.0160929 C86.82657144 -0.01144802 90.45628169 -0.01070264 94.08610535 -0.02070236 C98.13698369 -0.03108524 102.18742373 -0.01664074 106.23828125 0 C108.01075981 -0.00910904 108.01075981 -0.00910904 109.81904602 -0.0184021 C120.58615759 0.06305123 131.99307658 1.37448091 140.26757812 8.88427734 C147.26715609 16.27651456 148.76387531 25.9938996 148.71679688 35.88037109 C148.71357422 37.07919922 148.71035156 38.27802734 148.70703125 39.51318359 C148.69865234 40.75068359 148.69027344 41.98818359 148.68164062 43.26318359 C148.67712891 44.52388672 148.67261719 45.78458984 148.66796875 47.08349609 C148.65622022 50.18510745 148.63979229 53.28662084 148.61914062 56.38818359 C142.7994651 57.26809154 136.9787678 58.14075307 131.15698242 59.0065918 C129.17491015 59.30243076 127.19313681 59.60027961 125.21166992 59.90014648 C122.37038359 60.32978363 119.52811525 60.75227986 116.68554688 61.17333984 C115.79388321 61.3097438 114.90221954 61.44614777 113.98353577 61.58668518 C111.86788072 61.89651642 109.74389312 62.14856193 107.61914062 62.38818359 C107.28914063 62.05818359 106.95914063 61.72818359 106.61914062 61.38818359 C106.61914062 51.48818359 106.61914062 41.58818359 106.61914062 31.38818359 C71.30914063 31.38818359 35.99914063 31.38818359 -0.38085938 31.38818359 C-0.38085938 65.37818359 -0.38085938 99.36818359 -0.38085938 134.38818359 C34.92914062 134.38818359 70.23914062 134.38818359 106.61914062 134.38818359 C106.61914062 122.83818359 106.61914062 111.28818359 106.61914062 99.38818359 C119.00809768 100.51445242 119.00809768 100.51445242 125.22070312 101.76318359 C125.86864838 101.89257324 126.51659363 102.02196289 127.18417358 102.15527344 C128.52715189 102.4247916 129.86957647 102.69708397 131.21142578 102.97216797 C133.27428107 103.39435214 135.3390719 103.8058895 137.40429688 104.21630859 C147.47934124 106.2483842 147.47934124 106.2483842 148.61914062 107.38818359 C148.86472968 111.44412406 148.84782764 115.50414772 148.859375 119.56689453 C148.86890484 121.58817446 148.89999985 123.60931636 148.93164062 125.63037109 C148.97747506 137.24939982 148.46904658 149.16269533 140.12304688 157.96630859 C133.27101416 164.48602563 124.23518793 166.50039562 114.96676636 166.52862549 C113.839879 166.53433563 112.71299164 166.54004578 111.55195618 166.54592896 C110.32486435 166.54704681 109.09777252 166.54816467 107.83349609 166.54931641 C106.53370316 166.55428131 105.23391022 166.55924622 103.89472961 166.56436157 C100.33448379 166.57745001 96.7742568 166.58392398 93.21399069 166.58837223 C90.98549366 166.59130969 88.7570017 166.59541584 86.52850723 166.5998764 C79.5440854 166.61354415 72.55967524 166.62321342 65.57524097 166.62707829 C57.53549494 166.6315525 49.49591947 166.6490737 41.45622528 166.67807889 C35.22755049 166.69976349 28.99892344 166.70978623 22.77021134 166.71111941 C19.05700556 166.71216293 15.34396027 166.71797284 11.63079453 166.73593903 C7.48081025 166.75562844 3.33117835 166.75110388 -0.81884766 166.74462891 C-2.0337941 166.75384369 -3.24874054 166.76305847 -4.50050354 166.77255249 C-15.09052944 166.72099003 -24.90575908 165.13613074 -33.38085938 158.38818359 C-45.09788104 146.35448567 -42.69319313 126.26199898 -42.68164062 110.80615234 C-42.68553681 108.62103699 -42.68987335 106.43592238 -42.69462585 104.25080872 C-42.70205259 99.68776995 -42.70182277 95.1248086 -42.6965332 90.56176758 C-42.69074509 84.75567769 -42.70767135 78.94990748 -42.73087788 73.14387035 C-42.74571214 68.63530163 -42.74647378 64.12680818 -42.74336815 59.61821938 C-42.74387656 57.47950928 -42.74902242 55.34079442 -42.75918007 53.20210838 C-42.90515821 18.17282773 -42.90515821 18.17282773 -33.38085938 8.38818359 C-24.29272958 0.3572859 -11.52371195 -0.05922212 0 0 Z " fill="#E3C666" transform="translate(2868.380859375,3493.61181640625)"/>
<path d="M0 0 C59.07 0 118.14 0 179 0 C179 9.9 179 19.8 179 30 C133.79 30 88.58 30 42 30 C42 41.55 42 53.1 42 65 C47.69121094 64.98839844 53.38242188 64.97679688 59.24609375 64.96484375 C62.84179801 64.95973697 66.43749782 64.9549232 70.03320312 64.95117188 C75.74618452 64.94518351 81.45914996 64.93808338 87.17211914 64.92456055 C91.77566262 64.9137314 96.37918899 64.90772311 100.98274422 64.90512276 C102.74309623 64.90326856 104.50344726 64.89964804 106.26379204 64.89426994 C108.72072277 64.88705914 111.17758195 64.88600907 113.63452148 64.88647461 C114.73719109 64.8810817 114.73719109 64.8810817 115.86213684 64.87557983 C120.88594784 64.88594784 120.88594784 64.88594784 122 66 C122 75.24 122 84.48 122 94 C95.6 94 69.2 94 42 94 C42 107.53 42 121.06 42 135 C87.87 135 133.74 135 181 135 C181 145.23 181 155.46 181 166 C121.27 166 61.54 166 0 166 C0 111.22 0 56.44 0 0 Z " fill="#E4C767" transform="translate(2157,3494)"/>
<path d="M0 0 C59.07 0 118.14 0 179 0 C179 9.9 179 19.8 179 30 C133.79 30 88.58 30 42 30 C42 41.55 42 53.1 42 65 C47.69121094 64.98839844 53.38242187 64.97679688 59.24609375 64.96484375 C62.84179801 64.95973697 66.43749782 64.9549232 70.03320312 64.95117188 C75.74618452 64.94518351 81.45914996 64.93808338 87.17211914 64.92456055 C91.77566262 64.9137314 96.37918899 64.90772311 100.98274422 64.90512276 C102.74309623 64.90326856 104.50344726 64.89964804 106.26379204 64.89426994 C108.72072277 64.88705914 111.17758195 64.88600907 113.63452148 64.88647461 C114.73719109 64.8810817 114.73719109 64.8810817 115.86213684 64.87557983 C120.88594784 64.88594784 120.88594784 64.88594784 122 66 C122 75.24 122 84.48 122 94 C95.6 94 69.2 94 42 94 C42 107.53 42 121.06 42 135 C87.87 135 133.74 135 181 135 C181 145.23 181 155.46 181 166 C121.27 166 61.54 166 0 166 C0 111.22 0 56.44 0 0 Z " fill="#E4C767" transform="translate(961,3494)"/>
<path d="M0 0 C58.74 0 117.48 0 178 0 C178 9.9 178 19.8 178 30 C133.12 30 88.24 30 42 30 C42 41.55 42 53.1 42 65 C68.07 65 94.14 65 121 65 C121 74.57 121 84.14 121 94 C94.93 94 68.86 94 42 94 C42 107.53 42 121.06 42 135 C87.54 135 133.08 135 180 135 C180 145.23 180 155.46 180 166 C120.6 166 61.2 166 0 166 C0 111.22 0 56.44 0 0 Z " fill="#E5C767" transform="translate(3161,3494)"/>
<path d="M0 0 C0.66209473 -0.00095673 1.32418945 -0.00191345 2.00634766 -0.00289917 C3.40852961 -0.00358076 4.8107147 -0.00172792 6.21289062 0.00244141 C8.36595713 0.00779004 10.51881502 0.0024958 12.671875 -0.00390625 C14.03125046 -0.00324546 15.3906258 -0.00196429 16.75 0 C18.61785156 0.00169189 18.61785156 0.00169189 20.5234375 0.00341797 C23.375 0.1328125 23.375 0.1328125 24.375 1.1328125 C24.375 16.3128125 24.375 31.4928125 24.375 47.1328125 C55.065 47.1328125 85.755 47.1328125 117.375 47.1328125 C117.375 31.9528125 117.375 16.7728125 117.375 1.1328125 C117.705 0.8028125 118.035 0.4728125 118.375 0.1328125 C128.275 0.1328125 138.175 0.1328125 148.375 0.1328125 C148.375 41.3828125 148.375 82.6328125 148.375 125.1328125 C138.145 125.1328125 127.915 125.1328125 117.375 125.1328125 C117.375 107.9728125 117.375 90.8128125 117.375 73.1328125 C86.685 73.1328125 55.995 73.1328125 24.375 73.1328125 C24.375 90.2928125 24.375 107.4528125 24.375 125.1328125 C19.280625 125.1534375 14.18625 125.1740625 8.9375 125.1953125 C7.32818604 125.2044165 5.71887207 125.21352051 4.06079102 125.22290039 C2.80451904 125.22539795 1.54824707 125.22789551 0.25390625 125.23046875 C-1.68633423 125.23832397 -1.68633423 125.23832397 -3.66577148 125.24633789 C-6.625 125.1328125 -6.625 125.1328125 -7.625 124.1328125 C-7.72314195 122.54091277 -7.75131906 120.94465343 -7.75198364 119.34973145 C-7.75480347 118.31486099 -7.75762329 117.27999054 -7.76052856 116.21376038 C-7.75850433 115.06878586 -7.7564801 113.92381134 -7.75439453 112.74414062 C-7.75614685 111.54591171 -7.75789917 110.3476828 -7.75970459 109.11314392 C-7.76336275 105.81776458 -7.7624897 102.52244766 -7.7593255 99.22707176 C-7.75680149 95.78553557 -7.75913956 92.34400212 -7.76071167 88.90246582 C-7.76253325 83.12198403 -7.76012737 77.34151501 -7.75537109 71.56103516 C-7.74992849 64.86897716 -7.75169116 58.17694963 -7.7571975 51.48489237 C-7.76172897 45.7490203 -7.76237901 40.01315742 -7.75975883 34.27728415 C-7.75819624 30.84720962 -7.75800179 27.41714943 -7.76129532 23.98707581 C-7.76470843 20.16519986 -7.75998373 16.3433583 -7.75439453 12.52148438 C-7.75641876 11.37650986 -7.75844299 10.23153534 -7.76052856 9.05186462 C-7.75770874 8.01699417 -7.75488892 6.98212372 -7.75198364 5.91589355 C-7.75160662 5.01106987 -7.75122959 4.10624619 -7.75084114 3.1740036 C-7.47289142 -1.33444649 -3.7140761 0.0033642 0 0 Z " fill="#F5F5F6" transform="translate(1871.625,2750.8671875)"/>
<path d="M0 0 C1.11059784 -0.00281982 2.22119568 -0.00563965 3.365448 -0.00854492 C5.20914474 -0.00550858 5.20914474 -0.00550858 7.09008789 -0.00241089 C8.37609894 -0.00416321 9.66210999 -0.00591553 10.98709106 -0.00772095 C14.52418578 -0.01229489 18.06125146 -0.01050589 21.59834671 -0.00734186 C25.2921278 -0.00481806 28.98590632 -0.00715586 32.6796875 -0.00872803 C38.88387501 -0.01054966 45.08805063 -0.00814357 51.29223633 -0.00338745 C58.47507778 0.00205516 65.65789086 0.0002925 72.84073162 -0.00521386 C78.99698219 -0.00974516 85.1532242 -0.01039545 91.3094759 -0.00777519 C94.99106118 -0.00621251 98.6726331 -0.0060184 102.35421753 -0.00931168 C106.45629571 -0.01272448 110.55832461 -0.00800038 114.66040039 -0.00241089 C115.88953156 -0.00443512 117.11866272 -0.00645935 118.38504028 -0.00854492 C120.05093704 -0.00431519 120.05093704 -0.00431519 121.75048828 0 C123.20727745 0.00056554 123.20727745 0.00056554 124.6934967 0.0011425 C126.87524414 0.12698364 126.87524414 0.12698364 127.87524414 1.12698364 C127.87524414 8.38698364 127.87524414 15.64698364 127.87524414 23.12698364 C94.21524414 23.12698364 60.55524414 23.12698364 25.87524414 23.12698364 C25.87524414 32.03698364 25.87524414 40.94698364 25.87524414 50.12698364 C45.34524414 50.12698364 64.81524414 50.12698364 84.87524414 50.12698364 C84.87524414 57.38698364 84.87524414 64.64698364 84.87524414 72.12698364 C65.40524414 72.12698364 45.93524414 72.12698364 25.87524414 72.12698364 C25.87524414 81.69698364 25.87524414 91.26698364 25.87524414 101.12698364 C59.86524414 101.12698364 93.85524414 101.12698364 128.87524414 101.12698364 C130.09382522 103.56414579 130.00449989 105.15972421 130.00805664 107.88088989 C130.0093457 108.8173938 130.01063477 109.75389771 130.01196289 110.71878052 C130.0080957 111.69911255 130.00422852 112.67944458 130.00024414 113.68948364 C130.00411133 114.67368286 130.00797852 115.65788208 130.01196289 116.67190552 C130.0100293 118.07472778 130.0100293 118.07472778 130.00805664 119.50588989 C130.00692871 120.36770874 130.00580078 121.22952759 130.00463867 122.11746216 C129.87524414 124.12698364 129.87524414 124.12698364 128.87524414 125.12698364 C127.1289789 125.22327962 125.37878509 125.24885903 123.62986755 125.24723816 C122.49258209 125.24861282 121.35529663 125.24998749 120.18354797 125.25140381 C118.29541634 125.24601089 118.29541634 125.24601089 116.36914062 125.24050903 C115.05226257 125.24065506 113.73538452 125.24080109 112.37860107 125.24095154 C108.75686146 125.24123951 105.13515468 125.23534288 101.51342273 125.22837758 C97.7324253 125.22214394 93.95142719 125.22154024 90.17042542 125.22035217 C83.00580124 125.21723889 75.84119224 125.20902554 68.67657477 125.19900268 C60.52193252 125.18784146 52.36728957 125.18233107 44.2126416 125.17730725 C27.43350021 125.16684292 10.65437411 125.14924353 -6.12475586 125.12698364 C-6.14808495 108.97666444 -6.16573508 92.82635068 -6.17656803 76.67601871 C-6.18173097 69.177653 -6.18877362 61.67929773 -6.20019531 54.18093872 C-6.21014223 47.64767861 -6.2166093 41.11442606 -6.21884435 34.58115858 C-6.22015145 31.11976557 -6.22323722 27.65839422 -6.23048592 24.19700813 C-6.23849993 20.33910838 -6.23874699 16.48123007 -6.23828125 12.62332153 C-6.24187653 11.46742523 -6.2454718 10.31152893 -6.24917603 9.12060547 C-6.24780136 8.0758757 -6.2464267 7.03114594 -6.24501038 5.95475769 C-6.24593217 5.04126084 -6.24685396 4.127764 -6.24780369 3.18658543 C-6.00417175 -0.89137991 -3.50951959 0.00136243 0 0 Z " fill="#F6F6F7" transform="translate(2081.124755859375,2750.873016357422)"/>
<path d="M0 0 C13.53 0 27.06 0 41 0 C41 54.78 41 109.56 41 166 C27.47 166 13.94 166 0 166 C0 111.22 0 56.44 0 0 Z " fill="#E4C666" transform="translate(1615,3494)"/>
<path d="M0 0 C1.25363846 -0.00281982 2.50727692 -0.00563965 3.79890442 -0.00854492 C5.20101943 -0.00660033 6.6031343 -0.00455214 8.00524902 -0.00241089 C9.47173608 -0.00376488 10.9382228 -0.0055448 12.40470886 -0.00772095 C16.3983995 -0.01229551 20.39206443 -0.01050563 24.38575554 -0.00734186 C28.55599921 -0.00481838 32.72624062 -0.00715577 36.89648438 -0.00872803 C43.90100502 -0.01054976 50.90551513 -0.00814332 57.91003418 -0.00338745 C66.01991129 0.00205518 74.12976326 0.00029252 82.23963976 -0.00521386 C89.18993868 -0.00974489 96.14023 -0.01039558 103.09052992 -0.00777519 C107.24719117 -0.00621236 111.40384059 -0.00601881 115.5605011 -0.00931168 C119.46742244 -0.01219025 123.37431122 -0.01021496 127.28122902 -0.00441742 C128.71921039 -0.00308974 130.15719448 -0.00348406 131.59517479 -0.00568008 C133.55002116 -0.00839127 135.50487349 -0.00439705 137.4597168 0 C139.10455173 0.00056554 139.10455173 0.00056554 140.78261566 0.0011425 C143.2298584 0.12698364 143.2298584 0.12698364 144.2298584 1.12698364 C144.3290241 2.74955909 144.36065617 4.37638195 144.3626709 6.00198364 C144.36395996 6.98682739 144.36524902 7.97167114 144.36657715 8.98635864 C144.36270996 10.02276489 144.35884277 11.05917114 144.3548584 12.12698364 C144.35872559 13.16338989 144.36259277 14.19979614 144.36657715 15.26760864 C144.36464355 16.74487427 144.36464355 16.74487427 144.3626709 18.25198364 C144.36154297 19.16206177 144.36041504 20.07213989 144.35925293 21.00979614 C144.2298584 23.12698364 144.2298584 23.12698364 143.2298584 24.12698364 C141.3886781 24.22079667 139.54388198 24.24442318 137.70031738 24.24050903 C135.90370667 24.24032776 135.90370667 24.24032776 134.07080078 24.24014282 C132.80200073 24.23502686 131.53320068 24.22991089 130.22595215 24.22463989 C129.06712524 24.22363281 127.90829834 24.22262573 126.71435547 24.22158813 C122.36534645 24.21633691 118.01635148 24.2023758 113.6673584 24.18948364 C99.0957959 24.15854614 99.0957959 24.15854614 84.2298584 24.12698364 C84.2298584 57.45698364 84.2298584 90.78698364 84.2298584 125.12698364 C73.9998584 125.12698364 63.7698584 125.12698364 53.2298584 125.12698364 C53.2298584 91.79698364 53.2298584 58.46698364 53.2298584 24.12698364 C33.4298584 24.12698364 13.6298584 24.12698364 -6.7701416 24.12698364 C-6.7701416 0.00232776 -6.7701416 0.00232776 0 0 Z " fill="#F3F4F5" transform="translate(1682.7701416015625,2750.873016357422)"/>
<path d="M0 0 C0 168.96 0 337.92 0 512 C-0.66 512.33 -1.32 512.66 -2 513 C-2 344.37 -2 175.74 -2 2 C-2.66 1.67 -3.32 1.34 -4 1 C-2 0 -2 0 0 0 Z " fill="#997B30" transform="translate(2501,317)"/>
<path d="M0 0 C4.875 1.75 4.875 1.75 6 4 C-13.47 4 -32.94 4 -53 4 C-53 3.67 -53 3.34 -53 3 C-35.84 2.67 -18.68 2.34 -1 2 C-0.67 1.34 -0.34 0.68 0 0 Z " fill="#D9BE64" transform="translate(828,3656)"/>
<path d="M0 0 C3.88529692 0.58720619 6.69534474 1.74882055 10.08203125 3.72265625 C11.01337891 4.26083984 11.94472656 4.79902344 12.90429688 5.35351562 C14.34385742 6.19946289 14.34385742 6.19946289 15.8125 7.0625 C16.79154297 7.63033203 17.77058594 8.19816406 18.77929688 8.78320312 C21.18993348 10.18254827 23.5965851 11.58829929 26 13 C23 14 23 14 21.23046875 13.28515625 C20.55628906 12.88167969 19.88210937 12.47820312 19.1875 12.0625 C18.40890625 11.60617187 17.6303125 11.14984375 16.828125 10.6796875 C15.89484375 10.12539062 14.9615625 9.57109375 14 9 C12.12503913 7.92317821 10.24592768 6.8538369 8.36645508 5.78491211 C5.57401363 4.19624937 2.78722328 2.59779656 0 1 C0 0.67 0 0.34 0 0 Z " fill="#BDA85C" transform="translate(2190,1885)"/>
<path d="M0 0 C0.33 0 0.66 0 1 0 C1.33 9.24 1.66 18.48 2 28 C3.98 28.33 5.96 28.66 8 29 C8 29.33 8 29.66 8 30 C4.04 30.495 4.04 30.495 0 31 C0 20.77 0 10.54 0 0 Z " fill="#CFB660" transform="translate(2976,3525)"/>
<path d="M0 0 C-1.00546685 2.58160408 -1.68462642 3.8007222 -4.05859375 5.30078125 C-4.84363281 5.63464844 -5.62867188 5.96851563 -6.4375 6.3125 C-7.21996094 6.65925781 -8.00242187 7.00601562 -8.80859375 7.36328125 C-11 8 -11 8 -14 7 C-12.04480616 5.82807953 -10.0857461 4.6626071 -8.125 3.5 C-7.03445313 2.8503125 -5.94390625 2.200625 -4.8203125 1.53125 C-2 0 -2 0 0 0 Z " fill="#8F7532" transform="translate(1914,1848)"/>
<path d="M0 0 C0 0.66 0 1.32 0 2 C-2.75 4 -2.75 4 -6 6 C-6.70125 6.433125 -7.4025 6.86625 -8.125 7.3125 C-10.46866552 8.17184402 -11.64861599 7.67809622 -14 7 C-12.04480616 5.82807953 -10.0857461 4.6626071 -8.125 3.5 C-7.03445313 2.8503125 -5.94390625 2.200625 -4.8203125 1.53125 C-2 0 -2 0 0 0 Z " fill="#8C7230" transform="translate(1557,2054)"/>
<path d="M0 0 C3.96 1.98 3.96 1.98 8 4 C8 4.66 8 5.32 8 6 C6.02 6.99 6.02 6.99 4 8 C0 2.25 0 2.25 0 0 Z " fill="#927937" transform="translate(2456,2037)"/>
<path d="M0 0 C4.875 1.75 4.875 1.75 6 4 C2.7 4 -0.6 4 -4 4 C-2.68 2.68 -1.36 1.36 0 0 Z " fill="#CEB661" transform="translate(828,3656)"/>
<path d="M0 0 C0.66 0.33 1.32 0.66 2 1 C-2.455 4.465 -2.455 4.465 -7 8 C-7.99 7.34 -8.98 6.68 -10 6 C-8.3811004 4.96951963 -6.75467511 3.95085322 -5.125 2.9375 C-4.22007813 2.36902344 -3.31515625 1.80054688 -2.3828125 1.21484375 C-1.20332031 0.61349609 -1.20332031 0.61349609 0 0 Z " fill="#8A7131" transform="translate(1560,859)"/>
<path d="M0 0 C-1.26239712 0.86658615 -2.53527501 1.71792059 -3.8125 2.5625 C-4.87404297 3.27599609 -4.87404297 3.27599609 -5.95703125 4.00390625 C-8 5 -8 5 -11 4 C-9.73760288 3.13341385 -8.46472499 2.28207941 -7.1875 1.4375 C-6.47980469 0.96183594 -5.77210938 0.48617187 -5.04296875 -0.00390625 C-3 -1 -3 -1 0 0 Z " fill="#C7B15F" transform="translate(2238,2173)"/>
<path d="M0 0 C0.66 0.33 1.32 0.66 2 1 C1.2884375 1.6496875 1.2884375 1.6496875 0.5625 2.3125 C-1.23686957 4.02309613 -1.23686957 4.02309613 -2 7 C-3.32 6.34 -4.64 5.68 -6 5 C-4.06745228 2.9754262 -2.36841312 1.57894208 0 0 Z " fill="#89702F" transform="translate(1508,889)"/>
<path d="M0 0 C0.556875 0.144375 1.11375 0.28875 1.6875 0.4375 C4.11384195 1.02769128 6.54906345 1.523429 9 2 C9.33 3.32 9.66 4.64 10 6 C6.00499382 4.6302836 3.19990508 2.74277578 0 0 Z " fill="#897030" transform="translate(1506,896)"/>
<path d="M0 0 C0.66 0.33 1.32 0.66 2 1 C-1.32307692 4.93846154 -1.32307692 4.93846154 -4.75 5.25 C-5.4925 5.1675 -6.235 5.085 -7 5 C-2.25 1.125 -2.25 1.125 0 0 Z " fill="#998241" transform="translate(1801,1912)"/>
<path d="M0 0 C0.66 0.33 1.32 0.66 2 1 C-0.25 3.0625 -0.25 3.0625 -3 5 C-5.3125 4.75 -5.3125 4.75 -7 4 C-1.7265625 0.77734375 -1.7265625 0.77734375 0 0 Z " fill="#927833" transform="translate(1926,648)"/>
</svg>
