<?xml version="1.0" encoding="UTF-8"?>
<svg version="1.1" xmlns="http://www.w3.org/2000/svg" width="3514" height="744">
<path d="M0 0 C22.77 0 45.54 0 69 0 C70.29526831 3.88580492 71.34580195 7.24227676 72.11317444 11.18528748 C72.31008944 12.18671185 72.50700443 13.18813623 72.70988655 14.21990681 C73.02376981 15.84826607 73.02376981 15.84826607 73.34399414 17.50952148 C73.68432836 19.24944382 73.68432836 19.24944382 74.03153801 21.02451611 C74.65540619 24.21812584 75.27571475 27.41240266 75.89449763 30.60700083 C76.55611502 34.01805804 77.22235832 37.42821172 77.88807678 40.83847046 C79.02634747 46.67271252 80.16178661 52.50749958 81.29522705 58.34268188 C82.91325325 66.6725236 84.53565264 75.00150855 86.15933847 83.33024871 C88.52237704 95.45172346 90.88315387 107.57363672 93.24196196 119.69593537 C96.32215478 135.52524616 99.4097006 151.35310904 102.50390625 167.1796875 C102.70802439 168.22375574 102.91214252 169.26782398 103.12244606 170.34353065 C104.09156792 175.30034779 105.06085565 180.25713247 106.03024292 185.21389771 C107.60033748 193.24268555 109.16890981 201.27177078 110.73745537 209.30086136 C111.31643308 212.26452084 111.89546258 215.2281702 112.47449398 218.19181919 C112.98300764 220.79454385 113.49150453 223.39727179 114 226 C116.02434088 222.45746444 116.90869716 218.75673281 117.81811523 214.81787109 C117.99017675 214.09096006 118.16223827 213.36404903 118.33951378 212.6151104 C118.91726804 210.16897363 119.48786674 207.72122261 120.05859375 205.2734375 C120.47478272 203.50524424 120.89143672 201.73716037 121.30851746 199.96917725 C122.21277533 196.13198964 123.11393263 192.29409154 124.01275635 188.45562744 C125.44977942 182.31929386 126.89392813 176.18465158 128.33935547 170.05029297 C130.15847922 162.32818149 131.97615527 154.60573221 133.79201508 146.88285255 C139.14712342 124.10918943 144.52800831 101.34162447 149.91590786 78.57570076 C151.71046303 70.99269035 153.50271507 63.40914087 155.29302311 55.82512665 C156.41990144 51.05333625 157.54858557 46.28197425 158.67772865 41.5107193 C159.20143833 39.29618808 159.72443217 37.08148742 160.24663353 34.86660004 C160.96791775 31.80788657 161.69190919 28.7498252 162.41650391 25.69189453 C162.62007728 24.82574713 162.82365065 23.95959972 163.03339291 23.06720543 C164.87202989 15.32930235 166.9478474 7.69557225 169 0 C188.47 0 207.94 0 228 0 C234.53688615 25.91432237 240.82512401 51.87547741 246.96662521 77.88579178 C248.19816207 83.09930627 249.43236407 88.31218986 250.66625977 93.52514648 C252.72748398 102.23485587 254.78717299 110.94492694 256.84570312 119.65527344 C259.76234778 131.99645193 262.68196429 144.33692595 265.60240746 156.67720604 C271.07087946 179.7841875 276.53646121 202.89185164 282 226 C282.33 226 282.66 226 283 226 C283.17208449 225.11473066 283.34416899 224.22946133 283.52146816 223.31736565 C287.75532231 201.5368825 291.98949173 179.75646067 296.22399044 157.97610283 C298.27195253 147.44226796 300.31981704 136.90841414 302.36743164 126.37451172 C304.15709497 117.16763464 305.9469619 107.96079717 307.73705012 98.75400269 C308.68036352 93.90231178 309.62359085 89.05060419 310.56657219 84.19884872 C316.022433 56.12824674 321.5052901 28.06302938 327 0 C349.77 0 372.54 0 396 0 C395.38912951 5.49783441 394.8111957 10.41180085 393.62985229 15.72242737 C393.35044265 16.98944016 393.071033 18.25645296 392.78315639 19.56186008 C392.47385003 20.94173126 392.16445501 22.32158255 391.85498047 23.70141602 C391.5267601 25.18126748 391.19896047 26.66121231 390.87154484 28.14124203 C389.97947935 32.16807991 389.08156678 36.19359402 388.18264651 40.2189064 C387.22493808 44.51239309 386.27275719 48.80710551 385.31996155 53.10168457 C383.69082807 60.44135403 382.05836876 67.78027694 380.42355347 75.11868286 C377.86957854 86.58321281 375.32210677 98.04918241 372.77563477 109.51538086 C371.92560473 113.34249515 371.07551442 117.16959605 370.22538757 120.99668884 C369.91061107 122.41375617 369.91061107 122.41375617 369.58947545 123.85945112 C368.10719854 130.53189306 366.62395623 137.20411994 365.14021301 143.87623596 C358.85173328 172.15484187 352.58537512 200.43824775 346.33724976 228.72579956 C344.09869179 238.8604918 341.85805569 248.99472461 339.6171875 259.12890625 C339.41462278 260.04504763 339.21205807 260.961189 339.00335503 261.90509224 C333.68857362 285.94111404 328.34784906 309.97130833 323 334 C299.57 334 276.14 334 252 334 C249.53248889 324.74683334 247.08855408 315.50105052 244.77050781 306.21142578 C244.47375656 305.0261731 244.17700531 303.84092041 243.8712616 302.61975098 C243.06585047 299.40172022 242.26148041 296.18343306 241.45766926 292.96500254 C240.59438455 289.50927491 239.72992062 286.05384222 238.86566162 282.59835815 C237.40227081 276.74661015 235.93986498 270.89461665 234.47802734 265.04248047 C233.01527446 259.18673264 231.55145053 253.33125407 230.08642578 247.47607422 C227.93634362 238.88285713 225.78776072 230.28926628 223.640625 221.6953125 C223.37517411 220.63295993 223.37517411 220.63295993 223.10436058 219.5491457 C218.834243 202.45812266 214.58878776 185.36129985 210.38867188 168.25292969 C210.20148763 167.49075976 210.01430339 166.72858984 209.8214469 165.94332385 C208.01316595 158.58031049 206.20651766 151.2169093 204.40777779 143.85155869 C203.91273512 141.8257767 203.41668003 139.80024577 202.92020416 137.77481461 C202.31563602 135.30776298 201.71293217 132.84025349 201.11238861 130.37221909 C200.84711617 129.29136158 200.58184372 128.21050407 200.30853271 127.09689331 C200.07854458 126.15511168 199.84855644 125.21333004 199.61159897 124.24300957 C199.07524904 121.98702358 199.07524904 121.98702358 198 120 C193.70835799 137.30326196 189.41759536 154.60674192 185.12756968 171.91040468 C184.79329356 173.25869443 184.45901515 174.6069836 184.1247344 175.9552722 C175.04981443 212.55815029 165.98209722 249.16275979 156.9703474 285.78125381 C156.46402905 287.83854056 155.95756279 289.89579085 155.45106506 291.95303345 C154.86147935 294.34817256 154.27225242 296.74340005 153.68357849 299.13876343 C150.82143688 310.76745673 147.90462079 322.38151684 145 334 C121.57 334 98.14 334 74 334 C68.61284429 310.9230645 63.37899995 287.81809162 58.28125 264.67578125 C58.12995699 263.9890391 57.97866398 263.30229696 57.82278633 262.59474444 C56.05532334 254.57120678 54.29004896 246.54718833 52.52563477 238.52297974 C49.02265563 222.59221875 45.512482 206.66304317 42 190.734375 C41.72824227 189.50185214 41.72824227 189.50185214 41.45099449 188.24442983 C35.52481875 161.36829453 29.55785861 134.50140878 23.5625 107.640625 C23.37043032 106.77999946 23.17836063 105.91937393 22.98047066 105.03266883 C19.23422832 88.24654638 15.48493272 71.46110837 11.72876358 54.67720425 C10.33577006 48.45254442 8.94409244 42.22759132 7.5533638 36.00242507 C6.5941508 31.70935533 5.63303824 27.41671697 4.6704011 23.12441379 C3.9524332 19.92063495 3.23716875 16.71625248 2.52148438 13.51196289 C2.26311043 12.36271489 2.00473648 11.21346689 1.73853302 10.0293932 C1.50718407 8.99122802 1.27583511 7.95306284 1.03747559 6.88343811 C0.83568443 5.9822075 0.63389328 5.08097689 0.42598724 4.15243626 C0 2 0 2 0 0 Z " fill="#FFFFFF" transform="translate(1816,406)"/>
<path d="M0 0 C23.1 0 46.2 0 70 0 C70.0093457 7.06535156 70.01869141 14.13070313 70.02832031 21.41015625 C70.06108968 44.06614169 70.11341804 66.72205584 70.17792095 89.37797052 C70.18793734 92.90237056 70.19778165 96.42677106 70.20751953 99.95117188 C70.2094609 100.65275999 70.21140228 101.35434811 70.21340248 102.07719648 C70.24434843 113.40867015 70.26138238 124.74012362 70.27319422 136.07163155 C70.28564431 147.71541558 70.31352608 159.3590883 70.35461307 171.00280666 C70.37718441 177.53593406 70.39291326 184.06891145 70.39188385 190.6020813 C70.3911347 196.76137194 70.4091882 202.92033151 70.44116783 209.07953644 C70.44963058 211.33038064 70.45144165 213.58126213 70.44580269 215.83211517 C70.40521288 234.53704753 71.58497094 254.92409243 85.19140625 269.4140625 C98.97708435 281.50258369 116.80716442 284.6399542 134.625 283.875 C148.87877463 282.55716961 161.11068977 278.49992455 172 269 C185.53320925 251.13391294 186.44954272 232.38320506 186.43237305 210.81665039 C186.44140502 208.50904317 186.45173572 206.20144074 186.46325684 203.8938446 C186.49068432 197.6717779 186.50009192 191.44980259 186.50611091 185.22768331 C186.51553184 178.70940528 186.54173812 172.19119453 186.56611633 165.67295837 C186.60474263 154.74625655 186.63313782 143.81957271 186.65356445 132.89282227 C186.67461831 121.64572537 186.70193156 110.39867194 186.73754883 99.15161133 C186.73974765 98.45659522 186.74194648 97.7615791 186.74421193 97.0455019 C186.75528268 93.55828841 186.76647529 90.07107533 186.77772844 86.58386242 C186.87070579 57.72260775 186.93996135 28.86134378 187 0 C210.1 0 233.2 0 257 0 C257.04419203 28.7224389 257.08108125 57.44485184 257.10213066 86.16731637 C257.10463171 89.56768037 257.10722039 92.96804431 257.10986328 96.3684082 C257.11065021 97.38372261 257.11065021 97.38372261 257.11145304 98.41954841 C257.1201267 109.34162021 257.1358797 120.26367069 257.15430559 131.1857299 C257.17308962 142.41475289 257.18398514 153.64376533 257.18817699 164.87280482 C257.19077298 171.1707106 257.19682843 177.46856824 257.21146011 183.76645851 C257.22515087 189.70813172 257.22919967 195.64973746 257.22621536 201.59142494 C257.22676043 203.75878772 257.23066877 205.92615303 257.23841095 208.09350204 C257.2937238 224.39312936 257.25489151 241.15147582 252.6875 256.9375 C252.4694873 257.7219751 252.25147461 258.5064502 252.02685547 259.31469727 C247.61143555 274.74009849 240.3118882 287.74497227 230 300 C229.236875 301.010625 228.47375 302.02125 227.6875 303.0625 C211.32867153 320.94307996 188.16285124 330.66211286 165 336 C164.18740723 336.19577637 163.37481445 336.39155273 162.53759766 336.59326172 C152.57250114 338.6328588 142.38474104 338.37212893 132.25830078 338.37060547 C129.03493354 338.37495288 125.81296759 338.41128806 122.58984375 338.44921875 C87.3182609 338.64143077 54.58561613 327.81676623 29 303 C16.87925901 290.92390263 8.93643368 275.46550955 4.25 259.125 C4.05124268 258.44284424 3.85248535 257.76068848 3.64770508 257.05786133 C-0.37898219 242.12304567 -0.27979833 227.06525979 -0.22705078 211.72485352 C-0.22648565 209.40739955 -0.22680522 207.08994522 -0.22793579 204.77249146 C-0.22850631 198.52354711 -0.21680097 192.27468058 -0.20278788 186.02575421 C-0.19023009 179.47948943 -0.18910605 172.9332226 -0.18673706 166.38694763 C-0.18157312 155.41314354 -0.16877349 144.43936649 -0.15087891 133.46557617 C-0.13247893 122.17000468 -0.11834266 110.87444091 -0.10986328 99.57885742 C-0.10933783 98.88085431 -0.10881239 98.18285121 -0.10827102 97.46369649 C-0.10566066 93.96149931 -0.10313331 90.45930207 -0.10064721 86.9571048 C-0.07996404 57.97138165 -0.04312114 28.9856995 0 0 Z " fill="#FFFFFF" transform="translate(827,406)"/>
<path d="M0 0 C22.20531017 20.12682016 30.53486278 44.00751158 32.3828125 73.57470703 C9.2828125 73.57470703 -13.8171875 73.57470703 -37.6171875 73.57470703 C-38.2771875 68.62470703 -38.9371875 63.67470703 -39.6171875 58.57470703 C-44.08480099 45.79236843 -50.20629156 36.43443199 -62.4765625 30.09814453 C-79.3770098 22.61115881 -101.05285437 21.75330544 -118.48925781 28.27490234 C-128.63431039 32.45165884 -136.47142901 37.86852031 -141.5546875 47.76220703 C-145.07049566 56.36699853 -145.85062749 65.47727501 -142.69140625 74.29736328 C-133.9092525 92.91552924 -111.02760124 100.95760402 -92.93951416 107.55072021 C-85.57069055 110.13572483 -78.14943768 112.56629133 -70.73022461 115.00195312 C-54.90739714 120.21363034 -39.50571783 126.1086781 -24.8046875 134.01220703 C-24.11221924 134.38361816 -23.41975098 134.7550293 -22.70629883 135.13769531 C1.89054028 148.59019799 20.62551153 167.71337039 29.3828125 194.57470703 C30.24587243 197.56520968 30.91478068 200.49906935 31.3828125 203.57470703 C31.54716797 204.55310547 31.54716797 204.55310547 31.71484375 205.55126953 C34.89817162 228.21656399 31.00101226 252.39135185 17.50390625 271.19189453 C1.71740488 291.51971822 -20.58734453 304.07851176 -45.6171875 309.57470703 C-46.74866211 309.83219727 -47.88013672 310.0896875 -49.04589844 310.35498047 C-60.76616353 312.82722245 -72.36850738 313.10045974 -84.31591797 313.07568359 C-87.58522196 313.07471649 -90.85212913 313.11638294 -94.12109375 313.16064453 C-131.34685798 313.36982811 -169.47218285 301.91012383 -196.6171875 275.57470703 C-197.29007813 274.97529297 -197.96296875 274.37587891 -198.65625 273.75830078 C-218.68480411 255.28574988 -224.16067165 229.79199238 -225.6171875 203.57470703 C-202.5171875 203.57470703 -179.4171875 203.57470703 -155.6171875 203.57470703 C-154.6271875 209.84470703 -153.6371875 216.11470703 -152.6171875 222.57470703 C-149.16777677 234.64764457 -142.20323307 244.76547602 -131.05078125 251.01220703 C-117.78355107 257.3533014 -105.00291692 258.76560019 -90.4921875 258.82470703 C-89.24953125 258.84533203 -88.006875 258.86595703 -86.7265625 258.88720703 C-72.59678848 258.946204 -59.93135659 256.41080162 -48.8046875 247.26220703 C-39.96519077 236.4022539 -37.62248307 227.57951384 -38.6171875 213.57470703 C-40.2080822 203.96249454 -44.79236279 196.44315309 -52.4921875 190.51220703 C-69.75469032 178.81899896 -89.88667771 172.5070694 -109.47680664 165.89038086 C-148.00381615 152.85160326 -189.38288581 135.81935633 -208.77587891 97.42431641 C-216.74167009 79.91159614 -217.45761369 56.60765424 -212.0078125 38.28173828 C-201.56379588 10.44080634 -181.12395979 -7.07542081 -154.6171875 -19.42529297 C-106.64406976 -39.8834026 -39.94721078 -35.20709791 0 0 Z " fill="#FFFFFF" transform="translate(2597.6171875,431.42529296875)"/>
<path d="M0 0 C22.20531017 20.12682016 30.53486278 44.00751158 32.3828125 73.57470703 C9.2828125 73.57470703 -13.8171875 73.57470703 -37.6171875 73.57470703 C-38.2771875 68.62470703 -38.9371875 63.67470703 -39.6171875 58.57470703 C-44.08480099 45.79236843 -50.20629156 36.43443199 -62.4765625 30.09814453 C-79.3770098 22.61115881 -101.05285437 21.75330544 -118.48925781 28.27490234 C-128.63431039 32.45165884 -136.47142901 37.86852031 -141.5546875 47.76220703 C-145.07049566 56.36699853 -145.85062749 65.47727501 -142.69140625 74.29736328 C-133.9092525 92.91552924 -111.02760124 100.95760402 -92.93951416 107.55072021 C-85.57069055 110.13572483 -78.14943768 112.56629133 -70.73022461 115.00195312 C-54.90739714 120.21363034 -39.50571783 126.1086781 -24.8046875 134.01220703 C-24.11221924 134.38361816 -23.41975098 134.7550293 -22.70629883 135.13769531 C1.8957612 148.59305342 20.61630656 167.7132337 29.3828125 194.57470703 C36.0860153 217.49966062 33.02428597 243.70214349 21.75390625 264.59423828 C17.72574228 271.27669128 12.84321252 277.02160073 7.3828125 282.57470703 C6.69574219 283.27466797 6.00867188 283.97462891 5.30078125 284.69580078 C-14.8062102 303.8328817 -46.96909859 312.7967907 -74.06640625 312.94580078 C-75.12213333 312.95482925 -76.17786041 312.96385773 -77.26557922 312.97315979 C-79.48993138 312.98756766 -81.714325 312.99652523 -83.9387207 313.00024414 C-87.25224439 313.01202064 -90.56382731 313.06120229 -93.87695312 313.11181641 C-131.20554247 313.39341394 -169.38780405 301.99198606 -196.6171875 275.57470703 C-197.29007813 274.97529297 -197.96296875 274.37587891 -198.65625 273.75830078 C-218.68480411 255.28574988 -224.16067165 229.79199238 -225.6171875 203.57470703 C-202.5171875 203.57470703 -179.4171875 203.57470703 -155.6171875 203.57470703 C-154.6271875 209.84470703 -153.6371875 216.11470703 -152.6171875 222.57470703 C-149.16777677 234.64764457 -142.20323307 244.76547602 -131.05078125 251.01220703 C-117.78355107 257.3533014 -105.00291692 258.76560019 -90.4921875 258.82470703 C-89.24953125 258.84533203 -88.006875 258.86595703 -86.7265625 258.88720703 C-72.59678848 258.946204 -59.93135659 256.41080162 -48.8046875 247.26220703 C-39.96519077 236.4022539 -37.62248307 227.57951384 -38.6171875 213.57470703 C-40.2080822 203.96249454 -44.79236279 196.44315309 -52.4921875 190.51220703 C-69.75469032 178.81899896 -89.88667771 172.5070694 -109.47680664 165.89038086 C-148.00257954 152.85202177 -189.37954942 135.82006654 -208.77587891 97.42871094 C-216.75072992 79.85441651 -217.50914454 56.61018335 -212.0078125 38.24658203 C-201.47387816 10.43226102 -181.15364143 -7.06159173 -154.6171875 -19.42529297 C-106.64406976 -39.8834026 -39.94721078 -35.20709791 0 0 Z " fill="#FFFFFF" transform="translate(225.6171875,431.42529296875)"/>
<path d="M0 0 C21.45 0 42.9 0 65 0 C69.50067152 10.12651092 69.50067152 10.12651092 71.42822266 15.24487305 C71.86554718 16.40240082 72.3028717 17.55992859 72.75344849 18.75253296 C73.22373356 20.00556471 73.69393552 21.25862767 74.1640625 22.51171875 C74.66963519 23.85355865 75.17540868 25.1953229 75.68136597 26.53701782 C77.04738331 30.16186355 78.40978685 33.78805748 79.77133179 37.41458511 C80.63051461 39.7021828 81.49074312 41.98938453 82.35131836 44.27645874 C92.2427828 70.56520815 102.03945767 96.88884388 111.80493164 123.22460938 C112.87901042 126.12111548 113.95314254 129.01760179 115.02734375 131.9140625 C115.28790873 132.61665947 115.5484737 133.31925644 115.81693459 134.04314423 C120.88569792 147.70880134 125.99386169 161.35946783 131.12060547 175.003479 C135.67780641 187.13202865 140.22166574 199.26543903 144.74609375 211.40625 C145.25708866 212.77729348 145.76808517 214.14833636 146.27908325 215.51937866 C148.37645348 221.14702596 150.47369754 226.7747202 152.5703125 232.40264893 C158.80390976 249.13364316 165.06730683 265.85294961 171.37890625 282.5546875 C171.98906082 284.16996137 172.59919887 285.78524148 173.20932007 287.40052795 C175.86227392 294.42300971 178.5170866 301.44476651 181.17974949 308.46357346 C182.26470187 311.32531479 183.34706946 314.18802888 184.42881584 317.05098343 C184.93324888 318.3841314 185.43887211 319.71682969 185.94574165 321.04905319 C186.63680669 322.86563867 187.32353315 324.68387289 188.01000977 326.50219727 C188.39649185 327.52144791 188.78297394 328.54069855 189.1811676 329.59083557 C190 332 190 332 190 334 C165.25 334 140.5 334 115 334 C107.375 310.625 107.375 310.625 105.00927734 303.36962891 C104.36821112 301.40525808 103.72709955 299.44090205 103.0859375 297.4765625 C102.74243256 296.42264313 102.39892761 295.36872375 102.04501343 294.28286743 C100.43209797 289.34304133 98.80700848 284.40838709 97.13769531 279.48730469 C96.85527985 278.65266693 96.57286438 277.81802917 96.28189087 276.95809937 C95.76102906 275.42385747 95.23636009 273.89090053 94.7071228 272.35952759 C93.7159429 269.43954383 93 267.10787831 93 264 C53.4 264 13.8 264 -27 264 C-27.66 266.97 -28.32 269.94 -29 273 C-29.65251006 275.21775942 -30.3388247 277.42593056 -31.06298828 279.62133789 C-31.46880127 280.85871704 -31.87461426 282.09609619 -32.29272461 283.37097168 C-32.71847134 284.65490498 -33.14433289 285.9388002 -33.5703125 287.22265625 C-33.9614624 288.41274292 -34.3526123 289.60282959 -34.75561523 290.82897949 C-36.20735762 295.24170836 -37.66661674 299.65196145 -39.125 304.0625 C-42.38375 313.941875 -45.6425 323.82125 -49 334 C-73.42 334 -97.84 334 -123 334 C-121.87504268 327.25025606 -121.87504268 327.25025606 -120.67163086 324.05395508 C-120.40232254 323.33043854 -120.13301422 322.606922 -119.85554504 321.86148071 C-119.56161362 321.08863739 -119.26768219 320.31579407 -118.96484375 319.51953125 C-118.65532272 318.69238617 -118.3458017 317.86524109 -118.02690125 317.01303101 C-117.0020641 314.27762953 -115.96969597 311.54513219 -114.9375 308.8125 C-114.20498424 306.86065133 -113.47306144 304.90858003 -112.74169922 302.95629883 C-111.22938012 298.92083307 -109.71454632 294.88632552 -108.19775391 290.85253906 C-105.29997468 283.14182242 -102.42832049 275.42144981 -99.55892944 267.70013428 C-98.60148965 265.12424799 -97.64326012 262.54865671 -96.68481445 259.97314453 C-90.32433567 242.88060811 -83.97471774 225.78403611 -77.625 208.6875 C-77.35045486 207.94829063 -77.07590973 207.20908127 -76.79304504 206.44747162 C-72.52846516 194.96506707 -68.26421077 183.48254164 -64 172 C-42.70332592 114.65294091 -21.37703199 57.31716703 0 0 Z M32 84 C28.40769097 94.88618931 24.81648123 105.77274064 21.22654247 116.65971184 C19.55818979 121.71910864 17.88950732 126.77839609 16.2199707 131.83740234 C12.10069755 144.32021493 7.98817115 156.8052193 3.88829803 169.29441833 C3.30018583 171.08569281 2.71181566 172.87688261 2.12317657 174.66798401 C0.50322585 179.5974379 -1.11240787 184.52825662 -2.72025108 189.46167374 C-3.20156027 190.9364591 -3.68435107 192.41076186 -4.16871071 193.88454819 C-4.82590248 195.88539629 -5.4775597 197.88796013 -6.12768555 199.89111328 C-6.49186081 201.00624298 -6.85603607 202.12137268 -7.23124695 203.27029419 C-8.13553997 206.00863 -8.13553997 206.00863 -8 209 C19.06 209 46.12 209 74 209 C72.72352543 203.25586441 71.42970399 197.84694656 69.57666016 192.31347656 C69.34205078 191.60106308 69.10744141 190.8886496 68.86572266 190.15464783 C68.094239 187.81527327 67.31664622 185.47797827 66.5390625 183.140625 C65.9873317 181.47106249 65.43602041 179.8013613 64.88510132 178.13153076 C63.43035862 173.72552741 61.97058144 169.3212093 60.50952148 164.91729736 C58.21472925 157.99729216 55.92786443 151.07465939 53.64000702 144.15235901 C53.07345594 142.43845755 52.50670942 140.72462069 51.93976593 139.010849 C45.88221799 120.69902447 39.92663097 102.35455813 34 84 C33.34 84 32.68 84 32 84 Z " fill="#FFFFFF" transform="translate(2771,406)"/>
<path d="M0 0 C21.78 0 43.56 0 66 0 C70.8571875 13.1175 70.8571875 13.1175 75.8125 26.5 C84.5922147 50.18693862 93.43053544 73.85123483 102.3125 97.5 C111.50732536 121.98193935 120.65386915 146.48121671 129.75 171 C131.92299059 176.85684004 134.09609926 182.71363625 136.26953125 188.5703125 C136.65401806 189.60639585 136.65401806 189.60639585 137.04627228 190.66341019 C142.56738415 205.53983581 148.12926784 220.40069788 153.71363831 235.253479 C157.04581603 244.11764931 160.37054297 252.98461161 163.6953125 261.8515625 C163.99540537 262.65188778 164.29549824 263.45221306 164.60468483 264.27679062 C166.14243166 268.37789163 167.68012865 272.47901133 169.21780396 276.58013916 C171.88272369 283.68766825 174.54806525 290.79503915 177.21339035 297.90241623 C178.00446059 300.01189647 178.79552184 302.12138009 179.58657837 304.23086548 C179.83501747 304.89321009 180.08345657 305.5555547 180.33942413 306.23797035 C180.82642012 307.53695187 181.31299739 308.83609046 181.79912567 310.13539696 C183.09085712 313.5861497 184.39204896 317.03301461 185.70480347 320.47583008 C186.12321455 321.57805782 186.12321455 321.57805782 186.55007839 322.7025528 C187.08747685 324.11775458 187.62744879 325.53198254 188.17032719 326.94509125 C190 331.7750551 190 331.7750551 190 334 C165.58 334 141.16 334 116 334 C111.49820789 322.74551971 111.49820789 322.74551971 110.12475586 318.64892578 C109.81440903 317.7274173 109.50406219 316.80590881 109.18431091 315.85647583 C108.86438675 314.89579193 108.54446259 313.93510803 108.21484375 312.9453125 C107.87248184 311.9225119 107.53011993 310.8997113 107.17738342 309.84591675 C106.45910143 307.69677637 105.74236072 305.54712031 105.02709961 303.39697266 C103.94218947 300.13908206 102.8493052 296.88394044 101.75585938 293.62890625 C101.05420077 291.52620402 100.35301338 289.42334448 99.65234375 287.3203125 C99.33039536 286.36367706 99.00844696 285.40704163 98.67674255 284.42141724 C96.43115305 277.63911633 94.74457853 270.97831413 93 264 C53.4 264 13.8 264 -27 264 C-27.66 266.97 -28.32 269.94 -29 273 C-29.65251006 275.21775942 -30.3388247 277.42593056 -31.06298828 279.62133789 C-31.46880127 280.85871704 -31.87461426 282.09609619 -32.29272461 283.37097168 C-32.71847134 284.65490498 -33.14433289 285.9388002 -33.5703125 287.22265625 C-33.9614624 288.41274292 -34.3526123 289.60282959 -34.75561523 290.82897949 C-36.20735762 295.24170836 -37.66661674 299.65196145 -39.125 304.0625 C-42.38375 313.941875 -45.6425 323.82125 -49 334 C-73.42 334 -97.84 334 -123 334 C-122.34591776 330.72958881 -121.76755096 328.07973928 -120.65576172 325.02807617 C-120.24704079 323.89838158 -120.24704079 323.89838158 -119.83006287 322.74586487 C-119.532939 321.93640915 -119.23581512 321.12695343 -118.9296875 320.29296875 C-118.46110069 319.00391884 -118.46110069 319.00391884 -117.98304749 317.68882751 C-116.95092314 314.85361554 -115.91318663 312.02049723 -114.875 309.1875 C-114.14257262 307.18150959 -113.41023343 305.17548697 -112.67797852 303.16943359 C-107.57146461 289.20040427 -102.37933295 275.26458705 -97.13793945 261.34570312 C-91.4828805 246.32333067 -85.89601154 231.27590592 -80.31764221 216.22493744 C-79.05662167 212.82259756 -77.79538496 209.42033781 -76.53417969 206.01806641 C-76.28635994 205.34953644 -76.03854019 204.68100647 -75.78321075 203.99221802 C-75.28664891 202.65267093 -74.7900847 201.31312472 -74.29351807 199.97357941 C-73.80147914 198.64622769 -73.30945437 197.31887073 -72.81744385 195.99150848 C-68.61630476 184.65770818 -64.4055912 173.32750116 -60.1875 162 C-53.32396608 143.56597743 -46.47330972 125.12718231 -39.625 106.6875 C-39.3523444 105.95335625 -39.0796888 105.21921249 -38.7987709 104.46282196 C-36.28225911 97.68692965 -33.76580821 90.91101473 -31.24943542 84.1350708 C-24.62534048 66.29811427 -18.00012215 48.46157502 -11.375 30.625 C-7.62125 20.51875 -3.8675 10.4125 0 0 Z M32 84 C31.79385071 84.62875534 31.58770142 85.25751068 31.37530518 85.90531921 C31.08033142 86.80498917 30.78535767 87.70465912 30.48144531 88.6315918 C30.14487915 89.6581337 29.80831299 90.6846756 29.46154785 91.74232483 C28.68969252 94.09645242 27.91779976 96.45056774 27.14587402 98.80467224 C25.17614388 104.81184202 23.20671116 110.81910842 21.23868179 116.82683563 C20.08641572 120.34426172 18.93389494 123.8616043 17.78125 127.37890625 C17.54663811 128.09483696 17.31202621 128.81076767 17.07030487 129.54839325 C13.7014987 139.82688475 10.31991645 150.10109896 6.92969513 160.37254524 C5.53864006 164.58868411 4.14992669 168.80559489 2.76131821 173.02254009 C1.42674257 177.07447209 0.08828261 181.1250953 -1.25286865 185.17485523 C-2.28146955 188.28468331 -3.30433674 191.39639735 -4.328125 194.5078125 C-4.70215454 195.63311874 -5.07618408 196.75842499 -5.46154785 197.91783142 C-5.79811401 198.94413162 -6.13468018 199.97043182 -6.48144531 201.02783203 C-6.77641907 201.92084015 -7.07139282 202.81384827 -7.37530518 203.73391724 C-8.13287921 206.09025123 -8.13287921 206.09025123 -8 209 C19.06 209 46.12 209 74 209 C72.78205597 202.91027983 71.72824093 197.68581247 69.79199219 191.93774414 C69.57985329 191.30232697 69.36771439 190.66690979 69.14914703 190.01223755 C68.45402105 187.93460523 67.75047136 185.85993363 67.046875 183.78515625 C66.54864063 182.30084666 66.05099395 180.81633969 65.55389404 179.33164978 C64.50207008 176.1935198 63.44673152 173.0566049 62.38842773 169.9206543 C59.9200963 162.60587826 57.46963308 155.28510956 55.01733398 147.96494675 C54.20444438 145.53909358 53.39083766 143.11348178 52.57714844 140.68789673 C48.14890077 127.48097013 43.79498401 114.25092477 39.5 101 C39.20750366 100.09823029 38.91500732 99.19646057 38.61364746 98.2673645 C37.07198206 93.51279293 35.53380457 88.75711309 34 84 C33.34 84 32.68 84 32 84 Z " fill="#FFFFFF" transform="translate(1501,406)"/>
<path d="M0 0 C1.15249741 0.00222061 2.30499481 0.00444122 3.49241638 0.00672913 C5.4443264 0.00684242 5.4443264 0.00684242 7.43566895 0.00695801 C8.86661313 0.01206543 10.29755694 0.01728144 11.72850037 0.02259827 C13.18438672 0.02446249 14.64027369 0.02588637 16.09616089 0.02688599 C19.93488791 0.03071086 23.77357731 0.04054088 27.61228943 0.05158997 C31.52667227 0.06180474 35.44106117 0.06638375 39.35545349 0.07142639 C47.04101755 0.08216318 54.72655057 0.09923923 62.41209412 0.12025452 C63.24962982 2.35368305 64.08716494 4.58711181 64.92469788 6.82054138 C65.69802479 8.88273953 66.47136098 10.9449342 67.2447052 13.00712585 C69.27603156 18.42388133 71.30727405 23.8406682 73.33818913 29.2575779 C74.5737075 32.55296956 75.80929157 35.8483366 77.04490662 39.14369202 C77.4276666 40.16450678 77.4276666 40.16450678 77.8181591 41.20594406 C81.57022581 51.21227836 85.32559338 61.21736919 89.08278847 71.22177887 C100.82936864 102.50151902 112.53920268 133.7943198 124.16209412 165.12025452 C124.43859299 165.86545853 124.71509186 166.61066254 124.99996948 167.37844849 C125.55489249 168.8740506 126.10981334 170.36965353 126.66473198 171.86525726 C128.00360958 175.47372608 129.34256072 179.0821676 130.68162537 182.69056702 C131.06612917 183.72670135 131.06612917 183.72670135 131.45840073 184.7837677 C135.56967945 195.86144535 139.69566391 206.93349166 143.84959412 217.99525452 C144.1188974 218.71243652 144.38820068 219.42961853 144.66566467 220.16853333 C146.1481348 224.11559975 147.63156973 228.06230311 149.11521912 232.00892639 C153.61341064 243.97575527 158.10661134 255.94445884 162.59803867 267.9138279 C164.10787288 271.93730071 165.61815362 275.96060456 167.1295929 279.98347473 C178.20501378 309.46300632 178.20501378 309.46300632 183.22850037 323.17494202 C183.56002609 324.07383148 183.89155182 324.97272095 184.23312378 325.89884949 C186.41209412 331.88395233 186.41209412 331.88395233 186.41209412 334.12025452 C161.99209412 334.12025452 137.57209412 334.12025452 112.41209412 334.12025452 C110.6140657 329.32551208 108.8572525 324.58326285 107.23558044 319.73597717 C106.63529778 317.94469894 106.63529778 317.94469894 106.02288818 316.11723328 C105.59651285 314.83963492 105.17026144 313.5619952 104.74412537 312.28431702 C104.30005121 310.95531296 103.85593323 309.62632354 103.41177368 308.29734802 C102.48707258 305.52919708 101.56359078 302.76064282 100.64085388 299.99183655 C99.45690347 296.43988295 98.26880482 292.88933177 97.07968616 289.33910561 C96.16403176 286.60323162 95.25108792 283.86645896 94.33891869 281.12942123 C93.90169672 279.81893654 93.46350021 278.50877656 93.02431679 277.19894791 C92.41351672 275.37630139 91.80686621 273.55226586 91.20042419 271.72816467 C90.85417496 270.69084198 90.50792572 269.65351929 90.15118408 268.58476257 C89.41209412 266.12025452 89.41209412 266.12025452 89.41209412 264.12025452 C50.14209412 264.45025452 10.87209412 264.78025452 -29.58790588 265.12025452 C-36.78478398 287.07941845 -36.78478398 287.07941845 -43.97828674 309.03968811 C-45.37025452 313.28358459 -45.37025452 313.28358459 -46.02200317 315.26933289 C-46.47752959 316.65822472 -46.93244152 318.04731819 -47.38687134 319.43656921 C-48.07475781 321.5391257 -48.76458288 323.64103694 -49.45484924 325.74281311 C-50.03775978 327.52152298 -50.03775978 327.52152298 -50.63244629 329.33616638 C-51.58790588 332.12025452 -51.58790588 332.12025452 -52.58790588 334.12025452 C-77.00790588 334.12025452 -101.42790588 334.12025452 -126.58790588 334.12025452 C-123.21271421 322.8696156 -123.21271421 322.8696156 -121.62110901 318.56190491 C-121.26143539 317.58396973 -120.90176178 316.60603455 -120.53118896 315.59846497 C-120.14771805 314.56538208 -119.76424713 313.53229919 -119.36915588 312.46791077 C-118.9594606 311.35692017 -118.54976532 310.24592957 -118.12765503 309.10127258 C-116.7841173 305.46063343 -115.43611324 301.82166672 -114.08790588 298.18275452 C-113.37594903 296.25695443 -112.66445424 294.33098408 -111.95301151 292.40499401 C-104.64209627 272.61404601 -97.28381422 252.84071221 -89.90890503 233.0735321 C-83.87460768 216.89910948 -77.86125013 200.71694968 -71.85181046 184.53327942 C-71.02599062 182.30932922 -70.20012816 180.08539485 -69.37425232 177.86146545 C-66.58087568 170.33939461 -63.78768705 162.81725398 -60.99464417 155.2950592 C-26.72369992 62.99711358 -26.72369992 62.99711358 -17.30323792 37.72377014 C-16.12847389 34.57189448 -14.95511841 31.41949899 -13.7827301 28.26673889 C-12.34160216 24.39159872 -10.89779831 20.51746645 -9.45185852 16.64411926 C-8.92442599 15.22996062 -8.39791159 13.81545915 -7.87239075 12.40058899 C-7.16682993 10.5015078 -6.45756084 8.60380553 -5.74806213 6.70619202 C-5.35240051 5.64448792 -4.95673889 4.58278381 -4.54908752 3.48890686 C-3.19353317 0.14839674 -3.19353317 0.14839674 0 0 Z M29.41209412 83.12025452 C29.14284119 83.92801331 28.87358826 84.73577209 28.59617615 85.56800842 C27.98472443 87.40236359 27.37326979 89.23671778 26.76177979 91.07106018 C25.48940871 94.88797968 24.21729192 98.70498369 22.94554138 102.52210999 C20.01206511 111.32590012 17.07572602 120.12872059 14.13374329 128.92967224 C3.36815788 161.11947956 3.36815788 161.11947956 -7.21290588 193.37025452 C-7.4451889 194.08248169 -7.67747192 194.79470886 -7.91679382 195.52851868 C-8.55254552 197.47993477 -9.1836613 199.43285945 -9.81446838 201.38587952 C-10.1607428 202.45612366 -10.50701721 203.5263678 -10.86378479 204.62904358 C-11.68094527 207.00795386 -11.68094527 207.00795386 -11.58790588 209.12025452 C15.80209412 209.12025452 43.19209412 209.12025452 71.41209412 209.12025452 C63.05474374 182.43714789 54.39527873 155.87600616 45.50342655 129.36810398 C40.34565486 113.99136668 35.26645296 98.59591824 30.41209412 83.12025452 C30.08209412 83.12025452 29.75209412 83.12025452 29.41209412 83.12025452 Z " fill="#FFFFFF" transform="translate(3327.587905883789,405.87974548339844)"/>
<path d="M0 0 C73.92 0 147.84 0 224 0 C224 18.15 224 36.3 224 55 C172.85 55 121.7 55 69 55 C69 81.73 69 108.46 69 136 C112.56 136 156.12 136 201 136 C201 153.49 201 170.98 201 189 C157.44 189 113.88 189 69 189 C69 219.03 69 249.06 69 280 C120.15 280 171.3 280 224 280 C224 297.82 224 315.64 224 334 C150.08 334 76.16 334 0 334 C0 223.78 0 113.56 0 0 Z " fill="#FFFFFF" transform="translate(304,406)"/>
<path d="M0 0 C90.09 0 180.18 0 273 0 C273 18.15 273 36.3 273 55 C239.34 55 205.68 55 171 55 C171 147.07 171 239.14 171 334 C147.9 334 124.8 334 101 334 C101 241.93 101 149.86 101 55 C67.67 55 34.34 55 0 55 C0 36.85 0 18.7 0 0 Z " fill="#FFFFFF" transform="translate(2942,406)"/>
<path d="M0 0 C90.09 0 180.18 0 273 0 C273 18.15 273 36.3 273 55 C239.01 55 205.02 55 170 55 C170 147.07 170 239.14 170 334 C147.23 334 124.46 334 101 334 C101 241.93 101 149.86 101 55 C67.67 55 34.34 55 0 55 C0 36.85 0 18.7 0 0 Z " fill="#FFFFFF" transform="translate(1119,406)"/>
<path d="M0 0 C22.77 0 45.54 0 69 0 C69.06626177 30.90516682 69.12160579 61.81026451 69.15319599 92.71548029 C69.15694765 96.3724948 69.16083067 100.02950915 69.16479492 103.68652344 C69.16558185 104.41450247 69.16636878 105.1424815 69.16717956 105.8925205 C69.18019757 117.6462288 69.20383132 129.39989263 69.23145839 141.15357463 C69.25961333 153.23349134 69.27619747 165.31338491 69.28226548 177.39333308 C69.28599563 184.17021659 69.29489052 190.94700776 69.31719017 197.72385788 C69.33769236 204.11451172 69.34380623 210.50502448 69.33932304 216.89570808 C69.34014214 219.22958838 69.34602528 221.56347386 69.35761642 223.89732552 C69.43426596 240.13991626 69.11733953 256.56807835 63.1875 271.9375 C62.79848511 272.98393677 62.79848511 272.98393677 62.40161133 274.05151367 C52.45661007 300.05758678 32.15003172 318.89125836 7.0703125 330.13183594 C1.21931428 332.58539133 -4.83769534 334.49856172 -11 336 C-11.71728271 336.18546387 -12.43456543 336.37092773 -13.17358398 336.56201172 C-22.18101466 338.56049362 -31.35081122 338.37215144 -40.5300293 338.37060547 C-43.40019695 338.37494362 -46.26877853 338.41125263 -49.13867188 338.44921875 C-78.77913535 338.63015043 -108.48966434 330.2250527 -130 309 C-150.28800862 288.02035472 -155 263.53635128 -155 235 C-132.23 235 -109.46 235 -86 235 C-85.01 241.93 -84.02 248.86 -83 256 C-80.18314849 265.81041389 -76.35502784 273.82347681 -67.18359375 278.97265625 C-54.67924615 284.85573929 -40.64295945 285.36802514 -27.53125 281.21875 C-17.30690508 277.15702393 -10.37441285 269.28162773 -5.8125 259.4375 C-0.10991467 245.01331358 -0.69504235 229.91487594 -0.68115234 214.67651367 C-0.67184166 212.32979491 -0.66167131 209.98307943 -0.65071106 207.6363678 C-0.62352558 201.29850371 -0.60829572 194.96066171 -0.59528303 188.62275481 C-0.5811933 182.66034525 -0.55806696 176.69797342 -0.53501268 170.73559336 C-0.4896768 158.93531966 -0.4530078 147.13503589 -0.421875 135.3347168 C-0.39163511 123.87994623 -0.35726009 112.42520023 -0.31738281 100.97045898 C-0.31492126 100.26296944 -0.31245972 99.5554799 -0.30992357 98.82655128 C-0.29754792 95.27686033 -0.28509159 91.72716967 -0.27259517 88.17747915 C-0.16922535 58.78501882 -0.08156947 29.39253013 0 0 Z " fill="#FFFFFF" transform="translate(703,406)"/>
<path d="M0 0 C15.51 0 31.02 0 47 0 C58.43626338 13.38879615 58.43626338 13.38879615 60.65234375 19.71875 C63.74290554 27.88224196 67.96023004 35.04768634 72.54943848 42.44824219 C74.62729671 45.82358201 76.63254633 49.24138972 78.64453125 52.65625 C82.0747531 58.45054977 85.52747088 64.23094203 89 70 C92.47253753 75.76907193 95.92367198 81.55037359 99.35546875 87.34375 C99.93997299 88.33038887 99.93997299 88.33038887 100.5362854 89.33695984 C100.93294403 90.00653214 101.32960266 90.67610443 101.73828125 91.3659668 C110.85926134 106.76217937 120.07873362 122.09430774 129.40039062 137.36987305 C130.94356645 139.90721022 132.47207134 142.45345223 134 145 C134.495 73.225 134.495 73.225 135 0 C150.51 0 166.02 0 182 0 C182 73.59 182 147.18 182 223 C166.49 223 150.98 223 135 223 C128.92770361 213.28432577 122.91242251 203.58600358 117.09912109 193.72070312 C110.6424148 182.76682897 104.11989331 171.85596936 97.5 161 C91.42797078 151.04202174 85.44073954 141.03683564 79.5 131 C73.26407061 120.46577114 66.98239423 109.96142824 60.625 99.5 C60.27187744 98.91863281 59.91875488 98.33726563 59.55493164 97.73828125 C55.74313392 91.46572543 51.89044262 85.2247082 48 79 C47.67 126.52 47.34 174.04 47 223 C31.49 223 15.98 223 0 223 C0 149.41 0 75.82 0 0 Z " fill="#F6E5B3" transform="translate(1555,1)"/>
<path d="M0 0 C15.18 0 30.36 0 46 0 C49.52913494 5.29370241 52.93325295 10.4380779 56.14453125 15.89453125 C56.51128464 16.51551193 56.87803802 17.13649261 57.25590515 17.77629089 C58.03798516 19.10067275 58.81903876 20.4256612 59.59912109 21.7512207 C61.70191363 25.32342944 63.81355038 28.89039747 65.92578125 32.45703125 C66.35412262 33.18044708 66.78246399 33.90386292 67.2237854 34.64920044 C71.26467728 41.46422139 75.37425284 48.23611967 79.5 55 C85.98093497 65.62781961 92.35918954 76.31334278 98.69894409 87.02590942 C105.07099506 97.79002125 111.51949096 108.5047071 118.04296875 119.17773438 C123.46537092 128.06322943 128.71952234 137.02318798 134 146 C134.33 97.82 134.66 49.64 135 0 C150.51 0 166.02 0 182 0 C182 73.59 182 147.18 182 223 C166.16 223 150.32 223 134 223 C122.34609675 208.76409424 122.34609675 208.76409424 120.15234375 202.19140625 C117.48181147 194.79928843 113.95064929 188.47457111 109.70797729 181.88293457 C107.88454316 179.02829184 106.13690472 176.12804051 104.3828125 173.23046875 C104.02785202 172.64697662 103.67289154 172.0634845 103.30717468 171.46231079 C98.97964855 164.34305758 94.7430959 157.16975787 90.5 150 C81.77638015 135.2645914 72.90816659 120.62534814 64 106 C58.39 96.76 52.78 87.52 47 78 C46.67 125.85 46.34 173.7 46 223 C30.82 223 15.64 223 0 223 C0 149.41 0 75.82 0 0 Z " fill="#F7E5B3" transform="translate(673,1)"/>
<path d="M0 0 C15.51 0 31.02 0 47 0 C47 30.03 47 60.06 47 91 C76.37 91 105.74 91 136 91 C136 60.97 136 30.94 136 0 C151.18 0 166.36 0 182 0 C182 73.59 182 147.18 182 223 C166.82 223 151.64 223 136 223 C136 191.32 136 159.64 136 127 C106.63 127 77.26 127 47 127 C47 158.68 47 190.36 47 223 C31.49 223 15.98 223 0 223 C0 149.41 0 75.82 0 0 Z " fill="#F6E6B3" transform="translate(7,1)"/>
<path d="M0 0 C109.22863741 0 109.22863741 0 136 23 C136.6496875 23.50660156 137.299375 24.01320313 137.96875 24.53515625 C157.25984745 40.11348296 167.68513237 66.07021137 170.53125 90.12890625 C172.27187342 108.80434503 172.45192427 128.7234487 168 147 C167.83371094 147.68368652 167.66742187 148.36737305 167.49609375 149.07177734 C161.09366123 174.14204321 146.11726677 195.94354303 124.03515625 209.70703125 C86.70766083 231.68541654 41.35862373 223 0 223 C0 149.41 0 75.82 0 0 Z M46 37 C46 86.5 46 136 46 187 C79.48525505 187.9292122 79.48525505 187.9292122 106.6796875 172.50390625 C123.87919564 153.94349427 124.87498486 126.96593142 124 103 C123.04500982 83.11989958 119.22578443 62.22532221 104 48 C86.89228395 34.00868004 67.79405104 37 46 37 Z " fill="#F6E5B3" transform="translate(2092,1)"/>
<path d="M0 0 C15.51 0 31.02 0 47 0 C47.33 32.67 47.66 65.34 48 99 C52.29 93.06 56.58 87.12 61 81 C63.65049119 77.46361094 66.3058611 73.93955697 69 70.4375 C70.00317261 69.12700684 70.00317261 69.12700684 71.02661133 67.79003906 C72.37692116 66.02640836 73.7282097 64.26352649 75.08056641 62.50146484 C77.41987037 59.45281204 79.75304984 56.3995107 82.0859375 53.34594727 C84.19707301 50.58312739 86.31023642 47.82186172 88.42333984 45.06054688 C90.57277916 42.25143139 92.72135643 39.44165717 94.86987305 36.63183594 C95.95069271 35.21836922 97.03158384 33.80495715 98.11254883 32.39160156 C100.89650194 28.75153339 103.67948011 25.11072565 106.4609375 21.46875 C107.31848633 20.34629883 107.31848633 20.34629883 108.19335938 19.20117188 C109.27049894 17.79125748 110.34734886 16.38112173 111.42382812 14.97070312 C112.39822367 13.69552141 113.38287999 12.42808778 114.3795929 11.17027283 C116.04056689 9.02845144 116.04056689 9.02845144 117.36869812 6.67152405 C119.72066233 2.96366793 121.48435146 0.42302459 125.82635498 -0.78884888 C129.30172583 -1.04170976 132.67029381 -1.01250651 136.15234375 -0.87890625 C137.40761368 -0.86617172 138.66288361 -0.85343719 139.95619202 -0.84031677 C143.27444888 -0.79859174 146.587007 -0.71796776 149.90368652 -0.61798096 C153.29531913 -0.52545968 156.68754397 -0.48471404 160.08007812 -0.43945312 C166.72161221 -0.34040846 173.36047755 -0.18995498 180 0 C178.66190272 2.74793409 177.2997589 5.04208933 175.34765625 7.3984375 C174.82429688 8.03523437 174.3009375 8.67203125 173.76171875 9.328125 C173.20097656 10.00359375 172.64023438 10.6790625 172.0625 11.375 C170.87535508 12.81953475 169.68917258 14.26486093 168.50390625 15.7109375 C167.91109863 16.4337793 167.31829102 17.15662109 166.70751953 17.90136719 C164.265002 20.90335184 161.87890039 23.9475263 159.5 27 C152.90110992 35.44696456 146.111836 43.73755145 139.33398438 52.04101562 C133.21628204 59.53897512 127.12333475 67.04994679 121.18554688 74.69165039 C118.66363851 77.92573017 116.09161114 81.10742812 113.4609375 84.25390625 C112.86474609 84.97126953 112.26855469 85.68863281 111.65429688 86.42773438 C110.49412457 87.81968644 109.32647397 89.20544954 108.15039062 90.58398438 C104.07526424 95.20605376 104.07526424 95.20605376 103 101 C104.32921238 103.77445409 106.08258943 106.19481963 107.875 108.6875 C108.99786572 110.30866995 110.11885122 111.93114328 111.23828125 113.5546875 C111.84752441 114.43092773 112.45676758 115.30716797 113.08447266 116.20996094 C116.5001977 121.1850955 119.77289578 126.25348166 123.0625 131.3125 C124.52173234 133.54844177 125.98134777 135.7841293 127.44140625 138.01953125 C127.99770721 138.87175514 127.99770721 138.87175514 128.56524658 139.74119568 C133.26761472 146.94445609 137.98498081 154.13788984 142.7010498 161.33218384 C146.96885615 167.84294312 151.23415099 174.35529436 155.48828125 180.875 C156.20894775 181.97908203 156.92961426 183.08316406 157.67211914 184.22070312 C159.08186894 186.38059355 160.49122149 188.54074333 161.90014648 190.70117188 C165.29313739 195.89496174 168.70880041 201.07137666 172.171875 206.21875 C172.82824951 207.19521484 173.48462402 208.17167969 174.16088867 209.17773438 C175.39898279 211.01524471 176.64113142 212.85003177 177.88793945 214.68164062 C178.431521 215.48794922 178.97510254 216.29425781 179.53515625 217.125 C180.013479 217.82882813 180.49180176 218.53265625 180.98461914 219.2578125 C182 221 182 221 182 223 C174.29604704 223.25400875 166.59317626 223.42885392 158.88598633 223.54931641 C156.26578424 223.59953978 153.6458615 223.66773478 151.02661133 223.75439453 C147.25532169 223.87602596 143.48773981 223.93247506 139.71484375 223.9765625 C138.54791489 224.02817535 137.38098602 224.07978821 136.17869568 224.13296509 C128.19428037 224.1384445 128.19428037 224.1384445 124.75553894 220.86047363 C122.95211722 218.31145398 121.45474034 215.75999265 120 213 C119.07334899 211.53909633 118.13662783 210.0844559 117.18359375 208.640625 C116.26585595 207.17857033 115.35056902 205.71497491 114.4375 204.25 C113.3923148 202.58439206 112.34672533 200.91903775 111.30078125 199.25390625 C110.76146973 198.3942627 110.2221582 197.53461914 109.66650391 196.64892578 C106.83661722 192.15079063 103.98057019 187.66935807 101.125 183.1875 C99.94661197 181.33724125 98.76822657 179.48698082 97.58984375 177.63671875 C97.00058105 176.71165527 96.41131836 175.7865918 95.80419922 174.83349609 C93.36378521 171.00082425 90.92619822 167.16635799 88.48876953 163.33178711 C86.73291473 160.57139678 84.97401477 157.81296521 83.21484375 155.0546875 C81.19218446 151.88144234 79.18362816 148.70024588 77.19140625 145.5078125 C76.7735083 144.84330078 76.35561035 144.17878906 75.92504883 143.49414062 C74.83610578 141.76196776 73.75370606 140.02568605 72.671875 138.2890625 C72.12015625 137.53367188 71.5684375 136.77828125 71 136 C68.93175829 135.78495716 68.93175829 135.78495716 67.51953125 137.25 C63.88516121 140.97585304 60.36633917 144.77121347 56.96875 148.71484375 C55 151 55 151 53.30821228 152.45350647 C48.92047471 156.58527393 47.49910125 159.7510801 47.11352539 165.78320312 C47.07285582 168.45539651 47.06821361 171.11059009 47.09765625 173.78125 C47.08825855 175.20473504 47.07579299 176.62820281 47.06040955 178.05163574 C47.02833083 181.77391557 47.03757083 185.49495706 47.05578613 189.21728516 C47.06895955 193.69624595 47.03016337 198.17502954 47.00020599 202.65386963 C46.96059346 209.43660002 46.98647882 216.21623165 47 223 C31.49 223 15.98 223 0 223 C0 149.41 0 75.82 0 0 Z " fill="#F6E5B3" transform="translate(2709,1)"/>
<path d="M0 0 C23.1 0 46.2 0 70 0 C70 110.22 70 220.44 70 334 C46.9 334 23.8 334 0 334 C0 223.78 0 113.56 0 0 Z " fill="#FFFFFF" transform="translate(2253,406)"/>
<path d="M0 0 C15.51 0 31.02 0 47 0 C47.01458252 4.65762451 47.02916504 9.31524902 47.04418945 14.11401367 C47.09458829 29.52476373 47.16104426 44.93541391 47.23571491 60.34606457 C47.28058533 69.68699702 47.32001997 79.0278921 47.34643555 88.36889648 C47.36948676 96.51523845 47.4029637 104.66146125 47.44870156 112.80770856 C47.47253816 117.11680514 47.49132934 121.4257844 47.49761391 125.7349453 C47.50370838 129.80042563 47.52386334 133.86560614 47.55427551 137.93097496 C47.56298646 139.41388356 47.56679293 140.89683145 47.56500816 142.37976456 C47.55423712 155.47219576 48.52357192 168.41405361 57 179 C64.8680333 186.83483485 75.30783978 189.08733594 86.125 189.25 C96.62634484 189.13039471 105.96183069 187.0493469 114 180 C121.60714093 172.09257719 124.09845281 162.14970177 124.15821838 151.4004364 C124.16315636 150.750963 124.16809434 150.10148961 124.17318195 149.4323352 C124.18849331 147.26438153 124.19690021 145.09645734 124.20532227 142.9284668 C124.2149058 141.37109622 124.22491616 139.81372822 124.23532104 138.25636292 C124.26232468 134.03366967 124.2833588 129.81096531 124.30332303 125.58823371 C124.32521063 121.17328862 124.35258574 116.75837764 124.37937927 112.34346008 C124.42926866 103.98547699 124.47422141 95.62747493 124.51740164 87.26945478 C124.5668061 77.75317331 124.62171233 68.23692608 124.67708123 58.72067773 C124.79084366 39.14714887 124.89696891 19.57358849 125 0 C140.51 0 156.02 0 172 0 C172.04524667 19.9677015 172.08204712 39.93536112 172.10362434 59.90310097 C172.11391185 69.17565377 172.1279236 78.44817232 172.15087891 87.72070312 C172.17089043 95.80802001 172.18373476 103.89531207 172.18817699 111.98265302 C172.19077129 116.25993702 172.19681567 120.53715004 172.21146011 124.81441116 C172.22516705 128.85105644 172.22919653 132.88760238 172.22621536 136.92426872 C172.22675972 138.39549616 172.23065832 139.86672738 172.23841095 141.33793449 C172.35937614 165.5055088 167.52868567 187.45058235 150.0859375 205.171875 C141.94786554 212.93596436 131.63021429 218.52055561 121 222 C119.22302734 222.5878125 119.22302734 222.5878125 117.41015625 223.1875 C97.49217931 228.97527417 71.6415684 228.49324764 52 222 C51.02474365 221.68651611 51.02474365 221.68651611 50.02978516 221.36669922 C31.80911118 215.36507086 17.49618446 203.81615263 8.33203125 186.92578125 C0.7158235 171.33606217 -0.15829404 155.78482435 -0.11352539 138.72802734 C-0.11324281 137.20933026 -0.11340264 135.69063304 -0.1139679 134.17193604 C-0.1142531 130.0776053 -0.1084013 125.98330426 -0.10139394 121.88898039 C-0.09511414 117.59954195 -0.09455296 113.31010273 -0.09336853 109.0206604 C-0.0902688 100.9107304 -0.08207382 92.80081399 -0.07201904 84.69088995 C-0.0608156 75.45262529 -0.05533682 66.21435996 -0.05032361 56.97609019 C-0.03988999 37.98405088 -0.0215615 18.99203017 0 0 Z " fill="#F6E5B3" transform="translate(345,1)"/>
<path d="M0 0 C0.76166977 0.00222061 1.52333954 0.00444122 2.30809021 0.00672913 C3.16890701 0.00680466 4.02972382 0.00688019 4.91662598 0.00695801 C5.8520372 0.01211929 6.78744843 0.01728058 7.75120544 0.02259827 C8.70422043 0.02401321 9.65723541 0.02542816 10.63912964 0.02688599 C13.69605085 0.032503 16.75289996 0.04505836 19.80979919 0.05775452 C21.87685543 0.06276733 23.94391281 0.06733061 26.01097107 0.07142639 C31.08977507 0.08247795 36.16852489 0.09975397 41.24729919 0.12025452 C45.23246796 9.43744176 48.83819583 18.87632176 52.37229919 28.37025452 C53.35243631 30.99526331 54.33339192 33.6199655 55.31433105 36.24467468 C56.04761946 38.20695717 56.78063088 40.16934318 57.51339722 42.13182068 C60.5051687 50.1424114 63.50839357 58.14866106 66.5152874 66.15358353 C76.18453966 91.89520522 85.85205101 117.63733558 95.41917419 143.41712952 C95.71095236 144.20328014 96.00273052 144.98943077 96.30335045 145.79940414 C99.11009434 153.36246243 101.91474087 160.92629163 104.71407986 168.49209404 C105.73774291 171.2581827 106.76230818 174.02393622 107.78734398 176.78951645 C108.28018243 178.11927056 108.77280202 179.44910581 109.26519203 180.77902603 C111.86652057 187.80119518 114.49885615 194.80925219 117.21165466 201.78919983 C117.68050583 202.99681976 118.14935699 204.2044397 118.63241577 205.44865417 C119.51660335 207.71724915 120.40547207 209.98402721 121.29980469 212.24864197 C121.68909653 213.24541962 122.07838837 214.24219727 122.47947693 215.2691803 C122.82244308 216.13826019 123.16540924 217.00734009 123.51876831 217.90275574 C124.24729919 220.12025452 124.24729919 220.12025452 124.24729919 223.12025452 C107.74729919 223.12025452 91.24729919 223.12025452 74.24729919 223.12025452 C66.82229919 200.84525452 66.82229919 200.84525452 59.24729919 178.12025452 C33.17729919 178.12025452 7.10729919 178.12025452 -19.75270081 178.12025452 C-24.31680168 192.18097496 -24.31680168 192.18097496 -28.87745667 206.24281311 C-29.44902739 208.00148012 -30.02071527 209.76010906 -30.59254456 211.51869202 C-30.88971375 212.43690735 -31.18688293 213.35512268 -31.49305725 214.30116272 C-31.77717468 215.1739386 -32.06129211 216.04671448 -32.35401917 216.94593811 C-32.72375099 218.08511185 -32.72375099 218.08511185 -33.10095215 219.24729919 C-33.75270081 221.12025452 -33.75270081 221.12025452 -34.75270081 223.12025452 C-51.25270081 223.12025452 -67.75270081 223.12025452 -84.75270081 223.12025452 C-82.94897379 217.10783113 -81.19761573 211.398389 -78.98707581 205.57337952 C-78.72176559 204.87056854 -78.45645538 204.16775757 -78.18310547 203.44364929 C-77.60167687 201.90399342 -77.01881512 200.36487815 -76.43467712 198.82624817 C-74.7525726 194.39347671 -73.08342365 189.95582177 -71.41285706 185.51869202 C-70.86188103 184.05624557 -70.86188103 184.05624557 -70.29977417 182.56425476 C-65.7109664 170.3725222 -61.18745763 158.15653354 -56.66137695 145.94141388 C-55.44705978 142.66446866 -54.23218529 139.38773007 -53.01734924 136.11097717 C-51.50657157 132.03588507 -49.99583034 127.96077948 -48.48527527 123.88560486 C-38.48822422 96.91610967 -28.47856695 69.95128769 -18.44963837 42.99362946 C-17.77511042 41.18049177 -17.10066566 39.36732314 -16.42622375 37.55415344 C-14.1731226 31.49818689 -11.91715637 25.44330823 -9.65504456 19.39070129 C-9.01887416 17.68763353 -8.38359949 15.98423087 -7.74928284 14.2804718 C-6.90801161 12.02164028 -6.06335413 9.76410854 -5.21754456 7.50697327 C-4.7598468 6.28196106 -4.30214905 5.05694885 -3.83058167 3.79481506 C-2.36666526 0.16237922 -2.36666526 0.16237922 0 0 Z M19.24729919 56.12025452 C15.72345367 66.77603688 12.20278547 77.43286311 8.68621063 88.09104729 C7.05336121 93.03961825 5.41940451 97.98781792 3.78294373 102.93519592 C2.20477788 107.70647062 0.62948617 112.47868521 -0.94378662 117.25157547 C-1.54561319 119.07563939 -2.14848832 120.89935769 -2.75241089 122.72272873 C-3.59575089 125.26954201 -4.43541054 127.81754014 -5.27418518 130.36585999 C-5.52665512 131.12542999 -5.77912506 131.885 -6.03924561 132.66758728 C-7.30860316 136.31673398 -7.30860316 136.31673398 -7.75270081 140.12025452 C10.39729919 140.12025452 28.54729919 140.12025452 47.24729919 140.12025452 C45.50408139 133.72845589 43.786387 127.43973086 41.70359802 121.17030334 C41.46907425 120.4566864 41.23455048 119.74306946 40.99291992 119.00782776 C40.23269687 116.69676774 39.46856542 114.38702185 38.70433044 112.07728577 C38.17028758 110.45640993 37.63649361 108.83545207 37.10293579 107.2144165 C35.70970244 102.98376495 34.31312928 98.75422351 32.91581726 94.5249176 C31.48584991 90.19474196 30.05909975 85.86350662 28.63206482 81.53236389 C25.84026054 73.06063054 23.04492081 64.59006844 20.24729919 56.12025452 C19.91729919 56.12025452 19.58729919 56.12025452 19.24729919 56.12025452 Z " fill="#F6E5B3" transform="translate(1291.752700805664,0.8797454833984375)"/>
<path d="M0 0 C14.52 0 29.04 0 44 0 C45.66804688 4.49625 47.33609375 8.9925 49.0546875 13.625 C59.71296989 42.34699902 70.37499627 71.06722505 81.15087891 99.74536133 C85.50488911 111.3350969 89.84303204 122.93064005 94.16796875 134.53125 C94.43677479 135.25222303 94.70558083 135.97319607 94.9825325 136.71601677 C97.17764479 142.60373647 99.37247959 148.49155963 101.56698608 154.37950516 C108.75399695 173.66229853 115.95863214 192.93777597 123.29394531 212.16479492 C123.55414963 212.84840591 123.81435394 213.53201691 124.08244324 214.23634338 C124.75743066 216.00916592 125.43440648 217.78123105 126.11157227 219.55322266 C127 222 127 222 127 223 C110.5 223 94 223 77 223 C74.5899687 216.97492174 72.24660127 211.04905198 70.203125 204.91015625 C69.9646283 204.19895126 69.72613159 203.48774628 69.48040771 202.75498962 C68.98493896 201.27425767 68.4909853 199.7930179 67.99853516 198.3112793 C67.24281732 196.0409215 66.47905299 193.77337109 65.71484375 191.50585938 C65.23128542 190.05745363 64.74819506 188.60889155 64.265625 187.16015625 C64.03756165 186.48517593 63.80949829 185.81019562 63.57452393 185.11476135 C62.63760625 182.27585893 62 180.01259021 62 177 C35.6 177 9.2 177 -18 177 C-18.99 180.63 -19.98 184.26 -21 188 C-21.94533853 190.92467609 -22.90696823 193.82946032 -23.91796875 196.73046875 C-24.15084595 197.40742798 -24.38372314 198.08438721 -24.62365723 198.78186035 C-25.47443264 201.25173257 -26.33129441 203.71950495 -27.1875 206.1875 C-29.105625 211.735625 -31.02375 217.28375 -33 223 C-49.5 223 -66 223 -83 223 C-80.52417004 216.2445211 -78.04831094 209.48905783 -75.5703125 202.734375 C-73.71875668 197.68720396 -71.8678429 192.63979928 -70.01855469 187.59179688 C-60.97752707 162.91384577 -51.88371297 138.25656779 -42.6940918 113.63354492 C-37.88448163 100.74574331 -33.08651522 87.85371436 -28.30078125 74.95703125 C-27.71703603 73.38415844 -27.13328561 71.81128755 -26.54953003 70.23841858 C-24.24188749 64.0204165 -21.93427432 57.80240395 -19.62866211 51.58364868 C-9.19515236 23.44299056 -9.19515236 23.44299056 -4.29296875 10.5546875 C-3.96694168 9.69666534 -3.64091461 8.83864319 -3.30500793 7.95462036 C-1.12741603 2.25483207 -1.12741603 2.25483207 0 0 Z M21 57 C17.47789908 67.6736289 13.95738158 78.34777859 10.43891144 89.02260494 C8.80527509 93.97878991 7.17108401 98.93479056 5.53564453 103.89038086 C3.95877592 108.66856145 2.38333915 113.44721189 0.80891418 118.2261982 C0.20656312 120.05370625 -0.39631268 121.88104143 -0.99971008 123.70820427 C-1.84167171 126.25806394 -2.68180232 128.80851977 -3.52148438 131.35913086 C-3.90018929 132.50387878 -3.90018929 132.50387878 -4.2865448 133.67175293 C-5.48206812 136.77307098 -5.48206812 136.77307098 -6 140 C12.15 140 30.3 140 49 140 C47.72492947 134.26218259 46.42974314 128.83233545 44.6015625 123.29296875 C44.37039734 122.58125015 44.13923218 121.86953156 43.90106201 121.13624573 C43.14682856 118.81851593 42.38630078 116.50291718 41.625 114.1875 C41.09440569 112.56613246 40.5639721 110.94471232 40.03369141 109.32324219 C38.9271513 105.94350677 37.81720216 102.56491359 36.70507812 99.18701172 C35.27793031 94.85062287 33.86173005 90.51074357 32.44827271 86.1698761 C31.35882778 82.82943083 30.26253863 79.49126246 29.16424561 76.15371704 C28.63874402 74.55325565 28.11566539 72.95199663 27.59503174 71.34994507 C26.86995532 69.1215032 26.13547241 66.89638532 25.3984375 64.671875 C25.18435242 64.00700577 24.97026733 63.34213654 24.74969482 62.65711975 C23.75431078 59.13571422 23.75431078 59.13571422 21 57 Z " fill="#F6E5B3" transform="translate(3091,1)"/>
<path d="M0 0 C49.5 0 99 0 150 0 C150 12.21 150 24.42 150 37 C116.01 37 82.02 37 47 37 C47 54.82 47 72.64 47 91 C76.04 91 105.08 91 135 91 C135 102.55 135 114.1 135 126 C105.96 126 76.92 126 47 126 C47 146.13 47 166.26 47 187 C80.99 187 114.98 187 150 187 C150 198.88 150 210.76 150 223 C100.5 223 51 223 0 223 C0 149.41 0 75.82 0 0 Z " fill="#F6E5B4" transform="translate(2414,1)"/>
<path d="M0 0 C60.06 0 120.12 0 182 0 C182 12.21 182 24.42 182 37 C159.56 37 137.12 37 114 37 C114 98.38 114 159.76 114 223 C98.49 223 82.98 223 67 223 C67 161.62 67 100.24 67 37 C44.89 37 22.78 37 0 37 C0 24.79 0 12.58 0 0 Z " fill="#F6E5B3" transform="translate(3324,1)"/>
<path d="M0 0 C15.51 0 31.02 0 47 0 C47 73.59 47 147.18 47 223 C31.49 223 15.98 223 0 223 C0 149.41 0 75.82 0 0 Z " fill="#F6E5B3" transform="translate(1015,1)"/>
</svg>
